HussarBdObl.ufo
<glyph name="exclam" format="1">
  <advance width="308"/>
  <unicode hex="0021"/>
  <outline>
    <contour>
      <point x="122.202" y="235" type="line"/>
      <point x="187.325" y="825" type="line"/>
      <point x="364.325" y="825" type="line"/>
      <point x="254.202" y="235" type="line"/>
    </contour>
    <contour>
      <point x="83.9951" y="88" type="curve" smooth="yes"/>
      <point x="91.083" y="136"/>
      <point x="135.989" y="176"/>
      <point x="181.989" y="176" type="curve" smooth="yes"/>
      <point x="227.989" y="176"/>
      <point x="261.083" y="136"/>
      <point x="253.995" y="88" type="curve" smooth="yes"/>
      <point x="246.906" y="40"/>
      <point x="202" y="0"/>
      <point x="156" y="0" type="curve" smooth="yes"/>
      <point x="110" y="0"/>
      <point x="76.9062" y="40"/>
    </contour>
  </outline>
</glyph>
<glyph name="numbersign" format="1">
  <advance width="764"/>
  <unicode hex="0023"/>
  <outline>
    <contour>
      <point x="467.207" y="340" type="line"/>
      <point x="526.767" y="486" type="line"/>
      <point x="418.767" y="486" type="line"/>
      <point x="359.207" y="340" type="line"/>
    </contour>
    <contour>
      <point x="309.339" y="219" type="line"/>
      <point x="220" y="0" type="line"/>
      <point x="96" y="0" type="line"/>
      <point x="185.339" y="219" type="line"/>
      <point x="83.3389" y="219" type="line"/>
      <point x="133.207" y="340" type="line"/>
      <point x="235.207" y="340" type="line"/>
      <point x="294.767" y="486" type="line"/>
      <point x="187.767" y="486" type="line"/>
      <point x="237.634" y="607" type="line"/>
      <point x="344.634" y="607" type="line"/>
      <point x="433.825" y="825" type="line"/>
      <point x="557.825" y="825" type="line"/>
      <point x="468.634" y="607" type="line"/>
      <point x="576.634" y="607" type="line"/>
      <point x="665.825" y="825" type="line"/>
      <point x="789.825" y="825" type="line"/>
      <point x="700.634" y="607" type="line"/>
      <point x="802.634" y="607" type="line"/>
      <point x="752.767" y="486" type="line"/>
      <point x="650.767" y="486" type="line"/>
      <point x="591.207" y="340" type="line"/>
      <point x="698.207" y="340" type="line"/>
      <point x="648.339" y="219" type="line"/>
      <point x="541.339" y="219" type="line"/>
      <point x="452" y="0" type="line"/>
      <point x="328" y="0" type="line"/>
      <point x="417.339" y="219" type="line"/>
    </contour>
  </outline>
</glyph>
<glyph name="dollar" format="1">
  <advance width="723"/>
  <unicode hex="0024"/>
  <outline>
    <contour>
      <point x="501.44" y="240" type="curve" smooth="yes"/>
      <point x="518.097" y="352.801"/>
      <point x="181.919" y="399"/>
      <point x="209.828" y="588" type="curve" smooth="yes"/>
      <point x="229.32" y="720"/>
      <point x="341.61" y="810"/>
      <point x="457.154" y="834" type="curve"/>
      <point x="471.626" y="932" type="line"/>
      <point x="585.424" y="890" type="line"/>
      <point x="577.45" y="836" type="line"/>
      <point x="691.087" y="820"/>
      <point x="760.522" y="762"/>
      <point x="760.522" y="762" type="curve"/>
      <point x="662.372" y="612" type="line"/>
      <point x="662.372" y="612"/>
      <point x="588.789" y="669"/>
      <point x="503.789" y="669" type="curve" smooth="yes"/>
      <point x="439.789" y="669"/>
      <point x="401.507" y="640"/>
      <point x="394.862" y="595" type="curve" smooth="yes"/>
      <point x="377.823" y="479.617"/>
      <point x="740.961" y="467"/>
      <point x="709.064" y="251" type="curve" smooth="yes"/>
      <point x="685.733" y="93"/>
      <point x="577.658" y="18"/>
      <point x="453.114" y="-6" type="curve"/>
      <point x="437.904" y="-109" type="line"/>
      <point x="322.482" y="-78" type="line"/>
      <point x="331.933" y="-14" type="line"/>
      <point x="156.262" y="-5"/>
      <point x="64.8809" y="94"/>
      <point x="64.8809" y="94" type="curve"/>
      <point x="182.212" y="252" type="line"/>
      <point x="182.212" y="252"/>
      <point x="278.479" y="159"/>
      <point x="370.479" y="159" type="curve" smooth="yes"/>
      <point x="411.479" y="159"/>
      <point x="490.069" y="163"/>
    </contour>
  </outline>
</glyph>
<glyph name="percent" format="1">
  <advance width="981"/>
  <unicode hex="0025"/>
  <outline>
    <contour>
      <point x="264.658" y="643.27" type="curve" smooth="yes"/>
      <point x="257.819" y="596.957"/>
      <point x="292.435" y="556.344"/>
      <point x="340.884" y="556.344" type="curve" smooth="yes"/>
      <point x="389.335" y="556.344"/>
      <point x="435.233" y="596.957"/>
      <point x="442.072" y="643.27" type="curve" smooth="yes"/>
      <point x="448.911" y="689.582"/>
      <point x="415.112" y="730.906"/>
      <point x="366.661" y="730.906" type="curve" smooth="yes"/>
      <point x="318.212" y="730.906"/>
      <point x="271.497" y="689.582"/>
    </contour>
    <contour>
      <point x="145.987" y="643.25" type="curve" smooth="yes"/>
      <point x="162.046" y="752"/>
      <point x="270.611" y="847.25"/>
      <point x="384.611" y="847.25" type="curve" smooth="yes"/>
      <point x="498.611" y="847.25"/>
      <point x="576.796" y="752"/>
      <point x="560.737" y="643.25" type="curve" smooth="yes"/>
      <point x="544.678" y="534.5"/>
      <point x="438.474" y="440"/>
      <point x="324.474" y="440" type="curve" smooth="yes"/>
      <point x="210.474" y="440"/>
      <point x="129.928" y="534.5"/>
    </contour>
    <contour>
      <point x="662.469" y="188.27" type="curve" smooth="yes"/>
      <point x="655.63" y="141.957"/>
      <point x="690.246" y="101.344"/>
      <point x="738.695" y="101.344" type="curve" smooth="yes"/>
      <point x="787.146" y="101.344"/>
      <point x="833.044" y="141.957"/>
      <point x="839.883" y="188.27" type="curve" smooth="yes"/>
      <point x="846.722" y="234.582"/>
      <point x="812.924" y="275.906"/>
      <point x="764.473" y="275.906" type="curve" smooth="yes"/>
      <point x="716.023" y="275.906"/>
      <point x="669.308" y="234.582"/>
    </contour>
    <contour>
      <point x="543.799" y="188.25" type="curve" smooth="yes"/>
      <point x="559.857" y="297"/>
      <point x="668.423" y="392.25"/>
      <point x="782.423" y="392.25" type="curve" smooth="yes"/>
      <point x="896.423" y="392.25"/>
      <point x="974.607" y="297"/>
      <point x="958.549" y="188.25" type="curve" smooth="yes"/>
      <point x="942.489" y="79.5"/>
      <point x="836.285" y="-15"/>
      <point x="722.285" y="-15" type="curve" smooth="yes"/>
      <point x="608.285" y="-15"/>
      <point x="527.739" y="79.5"/>
    </contour>
    <contour>
      <point x="914.325" y="825" type="line"/>
      <point x="312.5" y="0" type="line"/>
      <point x="194.5" y="0" type="line"/>
      <point x="796.325" y="825" type="line"/>
    </contour>
  </outline>
</glyph>
<glyph name="ampersand" format="1">
  <advance width="972"/>
  <unicode hex="0026"/>
  <outline>
    <contour>
      <point x="514.01" y="210" type="curve"/>
      <point x="402.06" y="339" type="line"/>
      <point x="402.06" y="339"/>
      <point x="311.481" y="308"/>
      <point x="300.259" y="232" type="curve" smooth="yes"/>
      <point x="293.171" y="184"/>
      <point x="339.069" y="163"/>
      <point x="383.069" y="163" type="curve" smooth="yes"/>
      <point x="451.069" y="163"/>
      <point x="514.01" y="210"/>
    </contour>
    <contour>
      <point x="538.4" y="707" type="curve" smooth="yes"/>
      <point x="487.4" y="707"/>
      <point x="460.789" y="669"/>
      <point x="454.292" y="625" type="curve" smooth="yes"/>
      <point x="447.204" y="577"/>
      <point x="499.378" y="524"/>
      <point x="499.378" y="524" type="curve"/>
      <point x="544.774" y="547"/>
      <point x="599.795" y="581"/>
      <point x="606.292" y="625" type="curve" smooth="yes"/>
      <point x="612.789" y="669"/>
      <point x="599.4" y="707"/>
    </contour>
    <contour>
      <point x="577.986" y="413" type="curve"/>
      <point x="763.238" y="198"/>
      <point x="832.528" y="288"/>
      <point x="907.005" y="298" type="curve"/>
      <point x="907.005" y="298"/>
      <point x="877.132" y="265"/>
      <point x="773.318" y="185" type="curve"/>
      <point x="924" y="0" type="line"/>
      <point x="687" y="0" type="line"/>
      <point x="627.223" y="76" type="line"/>
      <point x="547.691" y="25"/>
      <point x="464.785" y="-15"/>
      <point x="337.785" y="-15" type="curve" smooth="yes"/>
      <point x="215.785" y="-15"/>
      <point x="58.0205" y="34"/>
      <point x="85.0439" y="217" type="curve" smooth="yes"/>
      <point x="105.274" y="354"/>
      <point x="343.134" y="414"/>
      <point x="319.598" y="451" type="curve"/>
      <point x="319.598" y="451"/>
      <point x="253.693" y="560"/>
      <point x="263.292" y="625" type="curve" smooth="yes"/>
      <point x="282.193" y="753"/>
      <point x="387.04" y="840"/>
      <point x="558.04" y="840" type="curve" smooth="yes"/>
      <point x="723.04" y="840"/>
      <point x="785.681" y="727.997"/>
      <point x="771.292" y="625" type="curve" smooth="yes"/>
      <point x="754.332" y="503.594"/>
      <point x="554.503" y="451.468"/>
    </contour>
  </outline>
</glyph>
<glyph name="quotesingle" format="1">
  <advance width="257"/>
  <unicode hex="0027"/>
  <outline>
    <contour>
      <point x="189.194" y="860" type="line"/>
      <point x="321.794" y="860" type="line"/>
      <point x="260.705" y="581" type="line"/>
      <point x="167.885" y="581" type="line"/>
    </contour>
  </outline>
</glyph>
<glyph name="parenleft" format="1">
  <advance width="409"/>
  <unicode hex="0028"/>
  <outline>
    <contour>
      <point x="311.342" y="-211" type="curve"/>
      <point x="189.106" y="-260" type="line"/>
      <point x="189.106" y="-260"/>
      <point x="45.2646" y="-49"/>
      <point x="96.3574" y="297" type="curve" smooth="yes"/>
      <point x="148.927" y="653"/>
      <point x="370.709" y="875"/>
      <point x="370.709" y="875" type="curve"/>
      <point x="478.473" y="826" type="line"/>
      <point x="478.473" y="826"/>
      <point x="312.222" y="655"/>
      <point x="259.357" y="297" type="curve" smooth="yes"/>
      <point x="209.445" y="-41"/>
      <point x="311.342" y="-211"/>
    </contour>
  </outline>
</glyph>
<glyph name="parenright" format="1">
  <advance width="410"/>
  <unicode hex="0029"/>
  <outline>
    <contour>
      <point x="143.606" y="-260" type="curve"/>
      <point x="35.8418" y="-211" type="line"/>
      <point x="35.8418" y="-211"/>
      <point x="187.945" y="-41"/>
      <point x="237.857" y="297" type="curve" smooth="yes"/>
      <point x="290.722" y="655"/>
      <point x="174.973" y="826"/>
      <point x="174.973" y="826" type="curve"/>
      <point x="297.209" y="875" type="line"/>
      <point x="297.209" y="875"/>
      <point x="453.427" y="653"/>
      <point x="400.857" y="297" type="curve" smooth="yes"/>
      <point x="349.765" y="-49"/>
      <point x="143.606" y="-260"/>
    </contour>
  </outline>
</glyph>
<glyph name="asterisk" format="1">
  <advance width="476"/>
  <unicode hex="002A"/>
  <outline>
    <contour>
      <point x="510.885" y="778" type="line"/>
      <point x="525.071" y="698" type="line"/>
      <point x="405.018" y="657" type="line"/>
      <point x="456.398" y="558" type="line"/>
      <point x="383.753" y="513" type="line"/>
      <point x="327.191" y="604" type="line"/>
      <point x="243.753" y="513" type="line"/>
      <point x="184.398" y="558" type="line"/>
      <point x="265.018" y="657" type="line"/>
      <point x="157.071" y="698" type="line"/>
      <point x="194.885" y="778" type="line"/>
      <point x="303.717" y="743" type="line"/>
      <point x="321.994" y="860" type="line"/>
      <point x="407.994" y="860" type="line"/>
      <point x="391.717" y="743" type="line"/>
    </contour>
  </outline>
</glyph>
<glyph name="plus" format="1">
  <advance width="636"/>
  <unicode hex="002B"/>
  <outline>
    <contour>
      <point x="417.831" y="158" type="line"/>
      <point x="264.831" y="158" type="line"/>
      <point x="291.411" y="338" type="line"/>
      <point x="111.411" y="338" type="line"/>
      <point x="134.005" y="491" type="line"/>
      <point x="314.005" y="491" type="line"/>
      <point x="340.585" y="671" type="line"/>
      <point x="493.585" y="671" type="line"/>
      <point x="467.005" y="491" type="line"/>
      <point x="647.005" y="491" type="line"/>
      <point x="624.411" y="338" type="line"/>
      <point x="444.411" y="338" type="line"/>
    </contour>
  </outline>
</glyph>
<glyph name="comma" format="1">
  <advance width="295"/>
  <unicode hex="002C"/>
  <outline>
    <contour>
      <point x="171.601" y="165.75" type="curve" smooth="yes"/>
      <point x="219.601" y="165.75"/>
      <point x="252.202" y="127.5"/>
      <point x="245.114" y="79.5" type="curve" smooth="yes"/>
      <point x="231.714" y="-11.25"/>
      <point x="156.36" y="-84.75"/>
      <point x="87.3291" y="-135.75" type="curve"/>
      <point x="53.7305" y="-104.25" type="line"/>
      <point x="53.7305" y="-104.25"/>
      <point x="105.044" y="-61.5"/>
      <point x="126.235" y="0.75" type="curve"/>
      <point x="90.8145" y="9.75"/>
      <point x="67.4951" y="39.75"/>
      <point x="73.3643" y="79.5" type="curve" smooth="yes"/>
      <point x="80.4521" y="127.5"/>
      <point x="124.351" y="165.75"/>
    </contour>
  </outline>
</glyph>
<glyph name="hyphen" format="1">
  <advance width="455"/>
  <unicode hex="002D"/>
  <outline>
    <contour>
      <point x="120.546" y="366" type="line"/>
      <point x="442.546" y="366" type="line"/>
      <point x="419.953" y="213" type="line"/>
      <point x="97.9531" y="213" type="line"/>
    </contour>
  </outline>
</glyph>
<glyph name="period" format="1">
  <advance width="294"/>
  <unicode hex="002E"/>
  <outline>
    <contour>
      <point x="74.9951" y="88" type="curve" smooth="yes"/>
      <point x="82.083" y="136"/>
      <point x="126.989" y="176"/>
      <point x="172.989" y="176" type="curve" smooth="yes"/>
      <point x="218.989" y="176"/>
      <point x="252.083" y="136"/>
      <point x="244.995" y="88" type="curve" smooth="yes"/>
      <point x="237.906" y="40"/>
      <point x="193" y="0"/>
      <point x="147" y="0" type="curve" smooth="yes"/>
      <point x="101" y="0"/>
      <point x="67.9062" y="40"/>
    </contour>
  </outline>
</glyph>
<glyph name="slash" format="1">
  <advance width="652"/>
  <unicode hex="002F"/>
  <outline>
    <contour>
      <point x="735.494" y="860" type="line"/>
      <point x="178.78" y="-120" type="line"/>
      <point x="25.7803" y="-120" type="line"/>
      <point x="582.494" y="860" type="line"/>
    </contour>
  </outline>
</glyph>
<glyph name="zero" format="1">
  <advance width="792"/>
  <unicode hex="0030"/>
  <outline>
    <contour>
      <point x="311.339" y="412" type="curve" smooth="yes"/>
      <point x="285.054" y="234"/>
      <point x="327.65" y="150"/>
      <point x="418.65" y="150" type="curve" smooth="yes"/>
      <point x="508.65" y="150"/>
      <point x="576.054" y="234"/>
      <point x="602.339" y="412" type="curve" smooth="yes"/>
      <point x="626.999" y="579"/>
      <point x="586.176" y="675"/>
      <point x="496.176" y="675" type="curve" smooth="yes"/>
      <point x="405.176" y="675"/>
      <point x="335.852" y="578"/>
    </contour>
    <contour>
      <point x="121.339" y="412" type="curve" smooth="yes"/>
      <point x="163.571" y="698"/>
      <point x="343.54" y="840"/>
      <point x="520.54" y="840" type="curve" smooth="yes"/>
      <point x="697.54" y="840"/>
      <point x="834.571" y="698"/>
      <point x="792.339" y="412" type="curve" smooth="yes"/>
      <point x="747.152" y="106"/>
      <point x="571.285" y="-15"/>
      <point x="394.285" y="-15" type="curve" smooth="yes"/>
      <point x="217.285" y="-15"/>
      <point x="76.1523" y="106"/>
    </contour>
  </outline>
</glyph>
<glyph name="one" format="1">
  <advance width="457"/>
  <unicode hex="0031"/>
  <outline>
    <contour>
      <point x="138.414" y="487" type="line"/>
      <point x="165.88" y="673" type="line"/>
      <point x="423.325" y="825" type="line"/>
      <point x="512.325" y="825" type="line"/>
      <point x="390.5" y="0" type="line"/>
      <point x="202.5" y="0" type="line"/>
      <point x="287.408" y="575" type="line"/>
    </contour>
  </outline>
</glyph>
<glyph name="two" format="1">
  <advance width="755"/>
  <unicode hex="0032"/>
  <outline>
    <contour>
      <point x="464.562" y="681" type="curve" smooth="yes"/>
      <point x="374.562" y="681"/>
      <point x="294.378" y="524"/>
      <point x="294.378" y="524" type="curve"/>
      <point x="148.601" y="600" type="line"/>
      <point x="148.601" y="600"/>
      <point x="264.04" y="840"/>
      <point x="488.04" y="840" type="curve" smooth="yes"/>
      <point x="771.04" y="840"/>
      <point x="780.574" y="654"/>
      <point x="765.217" y="550" type="curve" smooth="yes"/>
      <point x="736.717" y="357"/>
      <point x="417.365" y="165"/>
      <point x="417.365" y="165" type="curve"/>
      <point x="723.365" y="165" type="line"/>
      <point x="699" y="0" type="line"/>
      <point x="56" y="0" type="line"/>
      <point x="62.9404" y="47" type="line"/>
      <point x="62.9404" y="47"/>
      <point x="539.771" y="398"/>
      <point x="562.217" y="550" type="curve" smooth="yes"/>
      <point x="566.646" y="580"/>
      <point x="574.562" y="681"/>
    </contour>
  </outline>
</glyph>
<glyph name="four" format="1">
  <advance width="782"/>
  <unicode hex="0034"/>
  <outline>
    <contour>
      <point x="539.761" y="574" type="line"/>
      <point x="499.761" y="574" type="line"/>
      <point x="356.06" y="339" type="line"/>
      <point x="505.06" y="339" type="line"/>
    </contour>
    <contour>
      <point x="752.825" y="825" type="line"/>
      <point x="681.06" y="339" type="line"/>
      <point x="777.06" y="339" type="line"/>
      <point x="752.694" y="174" type="line"/>
      <point x="656.694" y="174" type="line"/>
      <point x="631" y="0" type="line"/>
      <point x="455" y="0" type="line"/>
      <point x="480.694" y="174" type="line"/>
      <point x="80.6943" y="174" type="line"/>
      <point x="88.9639" y="230" type="line"/>
      <point x="505.825" y="825" type="line"/>
    </contour>
  </outline>
</glyph>
<glyph name="six" format="1">
  <advance width="748"/>
  <unicode hex="0036"/>
  <outline>
    <contour>
      <point x="290.632" y="265" type="curve" smooth="yes"/>
      <point x="280" y="193"/>
      <point x="324.174" y="140"/>
      <point x="397.174" y="140" type="curve" smooth="yes"/>
      <point x="470.174" y="140"/>
      <point x="532" y="193"/>
      <point x="542.632" y="265" type="curve" smooth="yes"/>
      <point x="553.56" y="339"/>
      <point x="505.533" y="393"/>
      <point x="434.533" y="393" type="curve" smooth="yes"/>
      <point x="365.533" y="393"/>
      <point x="301.56" y="339"/>
    </contour>
    <contour>
      <point x="502.325" y="825" type="curve"/>
      <point x="719.325" y="825" type="line"/>
      <point x="449.535" y="542" type="line"/>
      <point x="449.535" y="542"/>
      <point x="472.308" y="554"/>
      <point x="510.308" y="554" type="curve" smooth="yes"/>
      <point x="623.308" y="554"/>
      <point x="758.984" y="457"/>
      <point x="730.632" y="265" type="curve" smooth="yes"/>
      <point x="701.837" y="70"/>
      <point x="532.285" y="-15"/>
      <point x="383.285" y="-15" type="curve" smooth="yes"/>
      <point x="198.285" y="-15"/>
      <point x="72.3008" y="107"/>
      <point x="95.6318" y="265" type="curve" smooth="yes"/>
      <point x="117.044" y="410"/>
      <point x="359.698" y="665"/>
    </contour>
  </outline>
</glyph>
<glyph name="seven" format="1">
  <advance width="760"/>
  <unicode hex="0037"/>
  <outline>
    <contour>
      <point x="830.825" y="825" type="line"/>
      <point x="822.704" y="770" type="line"/>
      <point x="598.883" y="513.333"/>
      <point x="398.508" y="256.667"/>
      <point x="273" y="0" type="curve"/>
      <point x="51" y="0" type="line"/>
      <point x="187.45" y="226.588"/>
      <point x="304.42" y="458.829"/>
      <point x="528.46" y="660" type="curve"/>
      <point x="173.46" y="660" type="line"/>
      <point x="197.825" y="825" type="line"/>
    </contour>
  </outline>
</glyph>
<glyph name="nine" format="1">
  <advance width="749"/>
  <unicode hex="0039"/>
  <outline>
    <contour>
      <point x="579.693" y="560" type="curve" smooth="yes"/>
      <point x="590.325" y="632"/>
      <point x="546.152" y="685"/>
      <point x="473.152" y="685" type="curve" smooth="yes"/>
      <point x="400.152" y="685"/>
      <point x="338.325" y="632"/>
      <point x="327.693" y="560" type="curve" smooth="yes"/>
      <point x="316.767" y="486"/>
      <point x="364.792" y="432"/>
      <point x="435.792" y="432" type="curve" smooth="yes"/>
      <point x="504.792" y="432"/>
      <point x="568.767" y="486"/>
    </contour>
    <contour>
      <point x="368" y="0" type="curve"/>
      <point x="151" y="0" type="line"/>
      <point x="420.79" y="283" type="line"/>
      <point x="420.79" y="283"/>
      <point x="398.018" y="271"/>
      <point x="360.018" y="271" type="curve" smooth="yes"/>
      <point x="247.018" y="271"/>
      <point x="111.342" y="368"/>
      <point x="139.693" y="560" type="curve" smooth="yes"/>
      <point x="168.488" y="755"/>
      <point x="338.04" y="840"/>
      <point x="487.04" y="840" type="curve" smooth="yes"/>
      <point x="672.04" y="840"/>
      <point x="798.025" y="718"/>
      <point x="774.693" y="560" type="curve" smooth="yes"/>
      <point x="753.282" y="415"/>
      <point x="510.627" y="160"/>
    </contour>
  </outline>
</glyph>
<glyph name="colon" format="1">
  <advance width="301"/>
  <unicode hex="003A"/>
  <outline>
    <contour>
      <point x="78.4951" y="88" type="curve" smooth="yes"/>
      <point x="85.583" y="136"/>
      <point x="130.489" y="176"/>
      <point x="176.489" y="176" type="curve" smooth="yes"/>
      <point x="222.489" y="176"/>
      <point x="255.583" y="136"/>
      <point x="248.495" y="88" type="curve" smooth="yes"/>
      <point x="241.406" y="40"/>
      <point x="196.5" y="0"/>
      <point x="150.5" y="0" type="curve" smooth="yes"/>
      <point x="104.5" y="0"/>
      <point x="71.4062" y="40"/>
    </contour>
    <contour>
      <point x="122.5" y="386" type="curve" smooth="yes"/>
      <point x="129.588" y="434"/>
      <point x="174.494" y="474"/>
      <point x="220.494" y="474" type="curve" smooth="yes"/>
      <point x="266.494" y="474"/>
      <point x="299.588" y="434"/>
      <point x="292.5" y="386" type="curve" smooth="yes"/>
      <point x="285.411" y="338"/>
      <point x="240.505" y="298"/>
      <point x="194.505" y="298" type="curve" smooth="yes"/>
      <point x="148.505" y="298"/>
      <point x="115.411" y="338"/>
    </contour>
  </outline>
</glyph>
<glyph name="semicolon" format="1">
  <advance width="302"/>
  <unicode hex="003B"/>
  <outline>
    <contour>
      <point x="121.562" y="386" type="curve" smooth="yes"/>
      <point x="128.65" y="434"/>
      <point x="173.557" y="474"/>
      <point x="219.557" y="474" type="curve" smooth="yes"/>
      <point x="265.557" y="474"/>
      <point x="298.65" y="434"/>
      <point x="291.562" y="386" type="curve" smooth="yes"/>
      <point x="284.474" y="338"/>
      <point x="239.567" y="298"/>
      <point x="193.567" y="298" type="curve" smooth="yes"/>
      <point x="147.567" y="298"/>
      <point x="114.474" y="338"/>
    </contour>
    <contour>
      <point x="175.663" y="165.75" type="curve" smooth="yes"/>
      <point x="223.663" y="165.75"/>
      <point x="256.265" y="127.5"/>
      <point x="249.177" y="79.5" type="curve" smooth="yes"/>
      <point x="235.776" y="-11.25"/>
      <point x="160.423" y="-84.75"/>
      <point x="91.3916" y="-135.75" type="curve"/>
      <point x="57.793" y="-104.25" type="line"/>
      <point x="57.793" y="-104.25"/>
      <point x="109.106" y="-61.5"/>
      <point x="130.298" y="0.75" type="curve"/>
      <point x="94.877" y="9.75"/>
      <point x="71.5576" y="39.75"/>
      <point x="77.4268" y="79.5" type="curve" smooth="yes"/>
      <point x="84.5146" y="127.5"/>
      <point x="128.413" y="165.75"/>
    </contour>
  </outline>
</glyph>
<glyph name="less" format="1">
  <advance width="672"/>
  <unicode hex="003C"/>
  <outline>
    <contour>
      <point x="132.642" y="475" type="line"/>
      <point x="712.424" y="697" type="line"/>
      <point x="691.455" y="555" type="line"/>
      <point x="312.782" y="415" type="line"/>
      <point x="650.403" y="277" type="line"/>
      <point x="629.436" y="135" type="line"/>
      <point x="115.217" y="357" type="line"/>
    </contour>
  </outline>
</glyph>
<glyph name="equal" format="1">
  <advance width="652"/>
  <unicode hex="003D"/>
  <outline>
    <contour>
      <point x="124.284" y="371" type="line"/>
      <point x="637.284" y="371" type="line"/>
      <point x="614.691" y="218" type="line"/>
      <point x="101.691" y="218" type="line"/>
    </contour>
    <contour>
      <point x="159.725" y="611" type="line"/>
      <point x="672.725" y="611" type="line"/>
      <point x="650.132" y="458" type="line"/>
      <point x="137.132" y="458" type="line"/>
    </contour>
  </outline>
</glyph>
<glyph name="greater" format="1">
  <advance width="674"/>
  <unicode hex="003E"/>
  <outline>
    <contour>
      <point x="104.403" y="277" type="line"/>
      <point x="482.782" y="415" type="line"/>
      <point x="145.455" y="555" type="line"/>
      <point x="166.424" y="697" type="line"/>
      <point x="680.642" y="475" type="line"/>
      <point x="663.217" y="357" type="line"/>
      <point x="83.4355" y="135" type="line"/>
    </contour>
  </outline>
</glyph>
<glyph name="at" format="1">
  <advance width="994"/>
  <unicode hex="0040"/>
  <outline>
    <contour>
      <point x="467.806" y="405" type="curve" smooth="yes"/>
      <point x="461.013" y="359"/>
      <point x="492.292" y="325"/>
      <point x="545.092" y="325" type="curve" smooth="yes"/>
      <point x="594.592" y="325"/>
      <point x="637.013" y="359"/>
      <point x="643.806" y="405" type="curve" smooth="yes"/>
      <point x="650.745" y="452"/>
      <point x="616.314" y="487"/>
      <point x="569.014" y="487" type="curve" smooth="yes"/>
      <point x="519.514" y="487"/>
      <point x="474.745" y="452"/>
    </contour>
    <contour>
      <point x="813.569" y="356" type="curve" smooth="yes"/>
      <point x="856.569" y="356"/>
      <point x="870.342" y="368"/>
      <point x="881.269" y="442" type="curve" smooth="yes"/>
      <point x="904.452" y="599"/>
      <point x="787.696" y="709"/>
      <point x="613.696" y="709" type="curve" smooth="yes"/>
      <point x="443.696" y="709"/>
      <point x="290.057" y="576"/>
      <point x="265.986" y="413" type="curve" smooth="yes"/>
      <point x="241.917" y="250"/>
      <point x="360.754" y="127"/>
      <point x="527.754" y="127" type="curve" smooth="yes"/>
      <point x="659.754" y="127"/>
      <point x="724.795" y="195"/>
      <point x="724.795" y="195" type="curve"/>
      <point x="829.425" y="118" type="line"/>
      <point x="829.425" y="118"/>
      <point x="722.785" y="-15"/>
      <point x="506.785" y="-15" type="curve" smooth="yes"/>
      <point x="262.785" y="-15"/>
      <point x="82.4795" y="159"/>
      <point x="119.986" y="413" type="curve" smooth="yes"/>
      <point x="157.494" y="667"/>
      <point x="389.04" y="840"/>
      <point x="633.04" y="840" type="curve" smooth="yes"/>
      <point x="867.04" y="840"/>
      <point x="1035.12" y="678"/>
      <point x="1000.27" y="442" type="curve" smooth="yes"/>
      <point x="977.232" y="286"/>
      <point x="862.93" y="223"/>
      <point x="764.93" y="223" type="curve" smooth="yes"/>
      <point x="710.93" y="223"/>
      <point x="661.588" y="241"/>
      <point x="632.723" y="269" type="curve"/>
      <point x="600.782" y="222"/>
      <point x="540.829" y="202"/>
      <point x="487.829" y="202" type="curve" smooth="yes"/>
      <point x="377.829" y="202"/>
      <point x="311.971" y="291"/>
      <point x="328.51" y="403" type="curve" smooth="yes"/>
      <point x="345.196" y="516"/>
      <point x="437.486" y="606"/>
      <point x="547.486" y="606" type="curve" smooth="yes"/>
      <point x="856.486" y="606"/>
      <point x="745.095" y="356"/>
    </contour>
  </outline>
</glyph>
<glyph name="A" format="1">
  <advance width="931"/>
  <unicode hex="0041"/>
  <outline>
    <contour>
      <point x="673.325" y="825" type="line"/>
      <point x="885.5" y="0" type="line"/>
      <point x="683.5" y="0" type="line"/>
      <point x="645.865" y="165" type="line"/>
      <point x="331.865" y="165" type="line"/>
      <point x="247.5" y="0" type="line"/>
      <point x="45.5" y="0" type="line"/>
      <point x="499.325" y="825" type="line"/>
    </contour>
    <contour>
      <point x="606.23" y="330" type="line"/>
      <point x="547.67" y="570" type="line"/>
      <point x="420.23" y="330" type="line"/>
    </contour>
  </outline>
</glyph>
<glyph name="D" format="1">
  <advance width="791"/>
  <unicode hex="0044"/>
  <outline>
    <contour>
      <point x="582.839" y="412" type="curve" smooth="yes"/>
      <point x="604.103" y="556"/>
      <point x="556.018" y="657"/>
      <point x="353.018" y="657" type="curve"/>
      <point x="280.808" y="168" type="line"/>
      <point x="483.808" y="168"/>
      <point x="561.575" y="268"/>
    </contour>
    <contour>
      <point x="189.825" y="825" type="line"/>
      <point x="429.825" y="825" type="line" smooth="yes"/>
      <point x="655.825" y="825"/>
      <point x="819.427" y="653"/>
      <point x="783.986" y="413" type="curve" smooth="yes"/>
      <point x="748.398" y="172"/>
      <point x="535" y="0"/>
      <point x="308" y="0" type="curve" smooth="yes"/>
      <point x="68" y="0" type="line"/>
    </contour>
  </outline>
</glyph>
<glyph name="H" format="1">
  <advance width="744"/>
  <unicode hex="0048"/>
  <outline>
    <contour>
      <point x="790.825" y="825" type="line"/>
      <point x="669" y="0" type="line"/>
      <point x="481" y="0" type="line"/>
      <point x="527.958" y="318" type="line"/>
      <point x="309.958" y="318" type="line"/>
      <point x="263" y="0" type="line"/>
      <point x="75" y="0" type="line"/>
      <point x="196.825" y="825" type="line"/>
      <point x="384.825" y="825" type="line"/>
      <point x="337.72" y="506" type="line"/>
      <point x="555.72" y="506" type="line"/>
      <point x="602.825" y="825" type="line"/>
    </contour>
  </outline>
</glyph>
<glyph name="I" format="1">
  <advance width="338"/>
  <unicode hex="0049"/>
  <outline>
    <contour>
      <point x="384.825" y="825" type="line"/>
      <point x="263" y="0" type="line"/>
      <point x="75" y="0" type="line"/>
      <point x="196.825" y="825" type="line"/>
    </contour>
  </outline>
</glyph>
<glyph name="J" format="1">
  <advance width="597"/>
  <unicode hex="004A"/>
  <outline>
    <contour>
      <point x="659.325" y="825" type="line"/>
      <point x="571.906" y="233" type="line" smooth="yes"/>
      <point x="547.984" y="71"/>
      <point x="443.285" y="-15"/>
      <point x="278.285" y="-15" type="curve" smooth="yes"/>
      <point x="160.285" y="-15"/>
      <point x="58.7617" y="-5"/>
      <point x="58.7617" y="-5" type="curve"/>
      <point x="145.342" y="175" type="line"/>
      <point x="145.342" y="175"/>
      <point x="230.865" y="165"/>
      <point x="278.865" y="165" type="curve" smooth="yes"/>
      <point x="332.865" y="165"/>
      <point x="378.738" y="198"/>
      <point x="390.994" y="281" type="curve" smooth="yes"/>
      <point x="471.325" y="825" type="line"/>
    </contour>
  </outline>
</glyph>
<glyph name="K" format="1">
  <advance width="869"/>
  <unicode hex="004B"/>
  <outline>
    <contour>
      <point x="810.5" y="0" type="line"/>
      <point x="550.5" y="0" type="line"/>
      <point x="308.372" y="419" type="line"/>
      <point x="246.5" y="0" type="line"/>
      <point x="58.5" y="0" type="line"/>
      <point x="180.325" y="825" type="line"/>
      <point x="368.325" y="825" type="line"/>
      <point x="308.372" y="419" type="line"/>
      <point x="652.325" y="825" type="line"/>
      <point x="880.325" y="825" type="line"/>
      <point x="522.372" y="419" type="line"/>
    </contour>
  </outline>
</glyph>
<glyph name="L" format="1">
  <advance width="604"/>
  <unicode hex="004C"/>
  <outline>
    <contour>
      <point x="375.825" y="825" type="line"/>
      <point x="278.365" y="165" type="line"/>
      <point x="562.365" y="165" type="line"/>
      <point x="538" y="0" type="line"/>
      <point x="66" y="0" type="line"/>
      <point x="187.825" y="825" type="line"/>
    </contour>
  </outline>
</glyph>
<glyph name="M" format="1">
  <advance width="1044"/>
  <unicode hex="004D"/>
  <outline>
    <contour>
      <point x="571.238" y="5" type="line"/>
      <point x="473.238" y="5" type="line"/>
      <point x="339.729" y="523" type="line"/>
      <point x="259.5" y="0" type="line"/>
      <point x="72.5" y="0" type="line"/>
      <point x="194.325" y="825" type="line"/>
      <point x="460.325" y="825" type="line"/>
      <point x="574.036" y="349" type="line"/>
      <point x="826.325" y="825" type="line"/>
      <point x="1093.33" y="825" type="line"/>
      <point x="971.5" y="0" type="line"/>
      <point x="784.5" y="0" type="line"/>
      <point x="859.729" y="523" type="line"/>
    </contour>
  </outline>
</glyph>
<glyph name="O" format="1">
  <advance width="951"/>
  <unicode hex="004F"/>
  <outline>
    <contour>
      <point x="307.986" y="413" type="curve" smooth="yes"/>
      <point x="289.085" y="285"/>
      <point x="374.137" y="177"/>
      <point x="502.137" y="177" type="curve" smooth="yes"/>
      <point x="630.137" y="177"/>
      <point x="746.085" y="285"/>
      <point x="764.986" y="413" type="curve" smooth="yes"/>
      <point x="783.888" y="541"/>
      <point x="699.688" y="648"/>
      <point x="571.688" y="648" type="curve" smooth="yes"/>
      <point x="443.688" y="648"/>
      <point x="326.888" y="541"/>
    </contour>
    <contour>
      <point x="120.986" y="413" type="curve" smooth="yes"/>
      <point x="155.245" y="645"/>
      <point x="368.04" y="840"/>
      <point x="600.04" y="840" type="curve" smooth="yes"/>
      <point x="832.04" y="840"/>
      <point x="986.245" y="645"/>
      <point x="951.986" y="413" type="curve" smooth="yes"/>
      <point x="917.728" y="181"/>
      <point x="705.785" y="-15"/>
      <point x="473.785" y="-15" type="curve" smooth="yes"/>
      <point x="241.785" y="-15"/>
      <point x="86.7275" y="181"/>
    </contour>
  </outline>
</glyph>
<glyph name="Q" format="1">
  <advance width="1002"/>
  <unicode hex="0051"/>
  <outline>
    <contour>
      <point x="110.986" y="413" type="curve" smooth="yes"/>
      <point x="145.245" y="645"/>
      <point x="358.04" y="840"/>
      <point x="590.04" y="840" type="curve" smooth="yes"/>
      <point x="822.04" y="840"/>
      <point x="977.245" y="645"/>
      <point x="942.986" y="413" type="curve" smooth="yes"/>
      <point x="928.958" y="318"/>
      <point x="884.815" y="229"/>
      <point x="822.184" y="157" type="curve"/>
      <point x="952" y="0" type="line"/>
      <point x="726" y="0" type="line"/>
      <point x="686.793" y="46" type="line"/>
      <point x="619.033" y="7"/>
      <point x="542.785" y="-15"/>
      <point x="463.785" y="-15" type="curve" smooth="yes"/>
      <point x="231.785" y="-15"/>
      <point x="76.7275" y="181"/>
    </contour>
    <contour>
      <point x="297.986" y="413" type="curve" smooth="yes"/>
      <point x="279.085" y="285"/>
      <point x="364.137" y="177"/>
      <point x="492.137" y="177" type="curve" smooth="yes"/>
      <point x="517.137" y="177"/>
      <point x="540.875" y="182"/>
      <point x="563.909" y="189" type="curve"/>
      <point x="483.643" y="282" type="line"/>
      <point x="626.181" y="394" type="line"/>
      <point x="707.562" y="295" type="line"/>
      <point x="732.73" y="330"/>
      <point x="749.784" y="371"/>
      <point x="755.986" y="413" type="curve" smooth="yes"/>
      <point x="774.888" y="541"/>
      <point x="689.688" y="648"/>
      <point x="561.688" y="648" type="curve" smooth="yes"/>
      <point x="433.688" y="648"/>
      <point x="316.888" y="541"/>
    </contour>
  </outline>
</glyph>
<glyph name="R" format="1">
  <advance width="711"/>
  <unicode hex="0052"/>
  <outline>
    <contour>
      <point x="186.325" y="825" type="line"/>
      <point x="487.325" y="825" type="line"/>
      <point x="685.516" y="820.372"/>
      <point x="749.769" y="697.943"/>
      <point x="730.818" y="571" type="curve" smooth="yes"/>
      <point x="712.138" y="445.868"/>
      <point x="633.663" y="379.893"/>
      <point x="545.463" y="345.067" type="curve"/>
      <point x="721.5" y="0" type="line"/>
      <point x="514.5" y="0" type="line"/>
      <point x="358.326" y="307.823" type="line"/>
      <point x="335.226" y="306.468"/>
      <point x="314.548" y="306.12"/>
      <point x="297.687" y="306" type="curve"/>
      <point x="252.5" y="0" type="line"/>
      <point x="64.5" y="0" type="line"/>
    </contour>
    <contour>
      <point x="319.836" y="456" type="line"/>
      <point x="411.632" y="458"/>
      <point x="517.302" y="468.167"/>
      <point x="531.932" y="565" type="curve" smooth="yes"/>
      <point x="545.682" y="656"/>
      <point x="461.176" y="675"/>
      <point x="352.176" y="675" type="curve"/>
    </contour>
  </outline>
</glyph>
<glyph name="S" format="1">
  <advance width="726"/>
  <unicode hex="0053"/>
  <outline>
    <contour>
      <point x="183.712" y="252" type="line"/>
      <point x="281.842" y="175"/>
      <point x="484.777" y="117"/>
      <point x="502.94" y="240" type="curve" smooth="yes"/>
      <point x="522.255" y="370.801"/>
      <point x="183.419" y="399"/>
      <point x="211.328" y="588" type="curve" smooth="yes"/>
      <point x="237.466" y="765"/>
      <point x="458.284" y="950"/>
      <point x="762.022" y="762" type="curve"/>
      <point x="663.872" y="612" type="line"/>
      <point x="556.673" y="719"/>
      <point x="406.551" y="664"/>
      <point x="396.362" y="595" type="curve" smooth="yes"/>
      <point x="383.016" y="504.617"/>
      <point x="744.528" y="481"/>
      <point x="710.564" y="251" type="curve" smooth="yes"/>
      <point x="681.474" y="54"/>
      <point x="371.588" y="-145"/>
      <point x="66.3809" y="94" type="curve"/>
    </contour>
  </outline>
</glyph>
<glyph name="T" format="1">
  <advance width="682"/>
  <unicode hex="0054"/>
  <outline>
    <contour>
      <point x="148.46" y="660" type="line"/>
      <point x="172.825" y="825" type="line"/>
      <point x="752.825" y="825" type="line"/>
      <point x="728.46" y="660" type="line"/>
      <point x="532.46" y="660" type="line"/>
      <point x="435" y="0" type="line"/>
      <point x="247" y="0" type="line"/>
      <point x="344.46" y="660" type="line"/>
    </contour>
  </outline>
</glyph>
<glyph name="U" format="1">
  <advance width="785"/>
  <unicode hex="0055"/>
  <outline>
    <contour>
      <point x="836.325" y="825" type="line"/>
      <point x="757.767" y="293" type="line" smooth="yes"/>
      <point x="727.643" y="89"/>
      <point x="600.285" y="-15"/>
      <point x="390.285" y="-15" type="curve" smooth="yes"/>
      <point x="180.285" y="-15"/>
      <point x="83.6426" y="89"/>
      <point x="113.767" y="293" type="curve" smooth="yes"/>
      <point x="192.325" y="825" type="line"/>
      <point x="380.325" y="825" type="line"/>
      <point x="309.888" y="348" type="line" smooth="yes"/>
      <point x="289.51" y="210"/>
      <point x="325.604" y="170"/>
      <point x="417.604" y="170" type="curve" smooth="yes"/>
      <point x="509.604" y="170"/>
      <point x="557.51" y="210"/>
      <point x="577.888" y="348" type="curve" smooth="yes"/>
      <point x="648.325" y="825" type="line"/>
    </contour>
  </outline>
</glyph>
<glyph name="V" format="1">
  <advance width="927"/>
  <unicode hex="0056"/>
  <outline>
    <contour>
      <point x="389.5" y="0" type="line"/>
      <point x="165.325" y="825" type="line"/>
      <point x="377.325" y="825" type="line"/>
      <point x="505.29" y="283" type="line"/>
      <point x="793.325" y="825" type="line"/>
      <point x="1005.33" y="825" type="line"/>
      <point x="537.5" y="0" type="line"/>
    </contour>
  </outline>
</glyph>
<glyph name="W" format="1">
  <advance width="1239"/>
  <unicode hex="0057"/>
  <outline>
    <contour>
      <point x="751.5" y="0" type="line"/>
      <point x="687.87" y="463" type="line"/>
      <point x="487.5" y="0" type="line"/>
      <point x="279.5" y="0" type="line"/>
      <point x="165.325" y="825" type="line"/>
      <point x="375.325" y="825" type="line"/>
      <point x="431.746" y="259" type="line"/>
      <point x="437.746" y="259" type="line"/>
      <point x="671.325" y="825" type="line"/>
      <point x="813.325" y="825" type="line"/>
      <point x="879.746" y="259" type="line"/>
      <point x="883.746" y="259" type="line"/>
      <point x="1109.33" y="825" type="line"/>
      <point x="1317.33" y="825" type="line"/>
      <point x="959.5" y="0" type="line"/>
    </contour>
  </outline>
</glyph>
<glyph name="X" format="1">
  <advance width="958"/>
  <unicode hex="0058"/>
  <outline>
    <contour>
      <point x="1033.83" y="825" type="line"/>
      <point x="651.725" y="418" type="line"/>
      <point x="912" y="0" type="line"/>
      <point x="669" y="0" type="line"/>
      <point x="512.688" y="262" type="line"/>
      <point x="279" y="0" type="line"/>
      <point x="46" y="0" type="line"/>
      <point x="419.725" y="418" type="line"/>
      <point x="167.825" y="825" type="line"/>
      <point x="400.825" y="825" type="line"/>
      <point x="559.795" y="581" type="line"/>
      <point x="790.825" y="825" type="line"/>
    </contour>
  </outline>
</glyph>
<glyph name="Y" format="1">
  <advance width="889"/>
  <unicode hex="0059"/>
  <outline>
    <contour>
      <point x="747.325" y="825" type="line"/>
      <point x="968.325" y="825" type="line"/>
      <point x="598.605" y="319" type="line"/>
      <point x="551.5" y="0" type="line"/>
      <point x="336.5" y="0" type="line"/>
      <point x="383.605" y="319" type="line"/>
      <point x="164.325" y="825" type="line"/>
      <point x="385.325" y="825" type="line"/>
      <point x="519.481" y="501" type="line"/>
    </contour>
  </outline>
</glyph>
<glyph name="bracketleft" format="1">
  <advance width="448"/>
  <unicode hex="005B"/>
  <outline>
    <contour>
      <point x="189.994" y="860" type="line"/>
      <point x="511.994" y="860" type="line"/>
      <point x="494.717" y="743" type="line"/>
      <point x="325.717" y="743" type="line"/>
      <point x="194.884" y="-143" type="line"/>
      <point x="363.884" y="-143" type="line"/>
      <point x="346.606" y="-260" type="line"/>
      <point x="24.6064" y="-260" type="line"/>
    </contour>
  </outline>
</glyph>
<glyph name="backslash" format="1">
  <advance width="653"/>
  <unicode hex="005C"/>
  <outline>
    <contour>
      <point x="170.994" y="860" type="line"/>
      <point x="323.994" y="860" type="line"/>
      <point x="591.28" y="-120" type="line"/>
      <point x="438.28" y="-120" type="line"/>
    </contour>
  </outline>
</glyph>
<glyph name="bracketright" format="1">
  <advance width="449"/>
  <unicode hex="005D"/>
  <outline>
    <contour>
      <point x="42.3838" y="-143" type="line"/>
      <point x="211.384" y="-143" type="line"/>
      <point x="342.217" y="743" type="line"/>
      <point x="173.217" y="743" type="line"/>
      <point x="190.494" y="860" type="line"/>
      <point x="512.494" y="860" type="line"/>
      <point x="347.106" y="-260" type="line"/>
      <point x="25.1064" y="-260" type="line"/>
    </contour>
  </outline>
</glyph>
<glyph name="asciicircum" format="1">
  <advance width="617"/>
  <unicode hex="005E"/>
  <outline>
    <contour>
      <point x="489.839" y="605" type="line"/>
      <point x="413.935" y="714" type="line"/>
      <point x="305.839" y="605" type="line"/>
      <point x="144.839" y="605" type="line"/>
      <point x="386.54" y="840" type="line"/>
      <point x="478.54" y="840" type="line"/>
      <point x="650.839" y="605" type="line"/>
    </contour>
  </outline>
</glyph>
<glyph name="underscore" format="1">
  <advance width="663"/>
  <unicode hex="005F"/>
  <outline>
    <contour>
      <point x="72.7852" y="-15" type="line"/>
      <point x="585.785" y="-15" type="line"/>
      <point x="573.233" y="-100" type="line"/>
      <point x="60.2334" y="-100" type="line"/>
    </contour>
  </outline>
</glyph>
<glyph name="b" format="1">
  <advance width="742"/>
  <unicode hex="0062"/>
  <outline>
    <contour>
      <point x="518.803" y="256" type="curve" smooth="yes"/>
      <point x="529.287" y="327"/>
      <point x="483.671" y="377"/>
      <point x="416.671" y="377" type="curve" smooth="yes"/>
      <point x="358.914" y="377"/>
      <point x="305.458" y="338.709"/>
      <point x="285.979" y="281.562" type="curve"/>
      <point x="278.353" y="230.86" type="line"/>
      <point x="280.479" y="174.333"/>
      <point x="320.667" y="136"/>
      <point x="381.083" y="136" type="curve" smooth="yes"/>
      <point x="453.083" y="136"/>
      <point x="508.466" y="186"/>
    </contour>
    <contour>
      <point x="69" y="0" type="line"/>
      <point x="195.994" y="860" type="line"/>
      <point x="372.994" y="860" type="line"/>
      <point x="322.749" y="525.995" type="line"/>
      <point x="392.365" y="530.491"/>
      <point x="461.765" y="528"/>
      <point x="491.968" y="528" type="curve" smooth="yes"/>
      <point x="641.968" y="528"/>
      <point x="728.953" y="406"/>
      <point x="706.803" y="256" type="curve" smooth="yes"/>
      <point x="684.652" y="106"/>
      <point x="561.785" y="-15"/>
      <point x="411.785" y="-15" type="curve" smooth="yes"/>
      <point x="341.785" y="-15"/>
      <point x="284.362" y="16"/>
      <point x="252.564" y="58" type="curve"/>
      <point x="244" y="0" type="line"/>
    </contour>
  </outline>
</glyph>
<glyph name="c" format="1">
  <advance width="572"/>
  <unicode hex="0063"/>
  <outline>
    <contour>
      <point x="518.578" y="31" type="line"/>
      <point x="518.578" y="31"/>
      <point x="453.785" y="-15"/>
      <point x="339.785" y="-15" type="curve" smooth="yes"/>
      <point x="191.785" y="-15"/>
      <point x="73.5049" y="105"/>
      <point x="95.6553" y="255" type="curve" smooth="yes"/>
      <point x="117.953" y="406"/>
      <point x="270.968" y="528"/>
      <point x="419.968" y="528" type="curve" smooth="yes"/>
      <point x="533.968" y="528"/>
      <point x="584.88" y="480"/>
      <point x="584.88" y="480" type="curve"/>
      <point x="507.013" y="359" type="line"/>
      <point x="507.013" y="359"/>
      <point x="477.557" y="383"/>
      <point x="424.557" y="383" type="curve" smooth="yes"/>
      <point x="357.557" y="383"/>
      <point x="294.287" y="327"/>
      <point x="283.95" y="257" type="curve" smooth="yes"/>
      <point x="273.466" y="186"/>
      <point x="320.196" y="130"/>
      <point x="387.196" y="130" type="curve" smooth="yes"/>
      <point x="440.196" y="130"/>
      <point x="476.741" y="154"/>
      <point x="476.741" y="154" type="curve"/>
    </contour>
  </outline>
</glyph>
<glyph name="d" format="1">
  <advance width="742"/>
  <unicode hex="0064"/>
  <outline>
    <contour>
      <point x="294.803" y="256" type="curve" smooth="yes"/>
      <point x="284.466" y="186"/>
      <point x="325.083" y="136"/>
      <point x="397.083" y="136" type="curve" smooth="yes"/>
      <point x="457.499" y="136"/>
      <point x="509.008" y="174.333"/>
      <point x="527.829" y="230.86" type="curve"/>
      <point x="535.175" y="281.562" type="line"/>
      <point x="532.575" y="338.709"/>
      <point x="490.428" y="377"/>
      <point x="432.671" y="377" type="curve" smooth="yes"/>
      <point x="365.671" y="377"/>
      <point x="305.287" y="327"/>
    </contour>
    <contour>
      <point x="669" y="0" type="line"/>
      <point x="494" y="0" type="line"/>
      <point x="502.564" y="58" type="line"/>
      <point x="458.362" y="16"/>
      <point x="391.785" y="-15"/>
      <point x="321.785" y="-15" type="curve" smooth="yes"/>
      <point x="171.785" y="-15"/>
      <point x="84.6523" y="106"/>
      <point x="106.803" y="256" type="curve" smooth="yes"/>
      <point x="128.953" y="406"/>
      <point x="251.968" y="528"/>
      <point x="401.968" y="528" type="curve" smooth="yes"/>
      <point x="432.171" y="528"/>
      <point x="502.307" y="530.491"/>
      <point x="570.595" y="525.995" type="curve"/>
      <point x="618.994" y="860" type="line"/>
      <point x="795.994" y="860" type="line"/>
    </contour>
  </outline>
</glyph>
<glyph name="f" format="1">
  <advance width="516"/>
  <unicode hex="0066"/>
  <outline>
    <contour>
      <point x="207.886" y="585" type="line"/>
      <point x="236.737" y="777"/>
      <point x="311.709" y="875"/>
      <point x="451.709" y="875" type="curve" smooth="yes"/>
      <point x="541.709" y="875"/>
      <point x="590.916" y="829"/>
      <point x="590.916" y="829" type="curve"/>
      <point x="510.458" y="704" type="line"/>
      <point x="510.458" y="704"/>
      <point x="488.525" y="718"/>
      <point x="459.525" y="718" type="curve" smooth="yes"/>
      <point x="404.525" y="718"/>
      <point x="394.927" y="653"/>
      <point x="384.886" y="585" type="curve"/>
      <point x="502.886" y="585" type="line"/>
      <point x="482.95" y="450" type="line"/>
      <point x="364.95" y="450" type="line"/>
      <point x="298.5" y="0" type="line"/>
      <point x="121.5" y="0" type="line"/>
      <point x="187.95" y="450" type="line"/>
      <point x="113.95" y="450" type="line"/>
      <point x="133.886" y="585" type="line"/>
    </contour>
  </outline>
</glyph>
<glyph name="g" format="1">
  <advance width="683"/>
  <unicode hex="0067"/>
  <outline>
    <contour>
      <point x="660.803" y="256" type="curve" smooth="yes"/>
      <point x="620.933" y="-14" type="line" smooth="yes"/>
      <point x="595.534" y="-186"/>
      <point x="455.392" y="-275"/>
      <point x="280.392" y="-275" type="curve" smooth="yes"/>
      <point x="173.392" y="-275"/>
      <point x="53.9355" y="-251"/>
      <point x="18.3936" y="-126" type="curve"/>
      <point x="173.878" y="-55" type="line"/>
      <point x="188.301" y="-86"/>
      <point x="226.132" y="-121"/>
      <point x="303.132" y="-121" type="curve" smooth="yes"/>
      <point x="352.132" y="-121"/>
      <point x="432.415" y="-92"/>
      <point x="445.853" y="-1" type="curve" smooth="yes"/>
      <point x="451.464" y="37" type="line"/>
      <point x="407.262" y="-5"/>
      <point x="345.785" y="-15"/>
      <point x="275.785" y="-15" type="curve" smooth="yes"/>
      <point x="125.785" y="-15"/>
      <point x="38.6523" y="106"/>
      <point x="60.8027" y="256" type="curve" smooth="yes"/>
      <point x="82.9531" y="406"/>
      <point x="205.968" y="528"/>
      <point x="355.968" y="528" type="curve" smooth="yes"/>
      <point x="647.618" y="528"/>
      <point x="700.968" y="528"/>
    </contour>
    <contour>
      <point x="248.803" y="256" type="curve" smooth="yes"/>
      <point x="238.466" y="186"/>
      <point x="279.083" y="136"/>
      <point x="351.083" y="136" type="curve" smooth="yes"/>
      <point x="420.083" y="136"/>
      <point x="477.466" y="186"/>
      <point x="487.803" y="256" type="curve" smooth="yes"/>
      <point x="488.976" y="263.943"/>
      <point x="495.869" y="310.623"/>
      <point x="496.791" y="318" type="curve" smooth="yes"/>
      <point x="502.345" y="364.562"/>
      <point x="492.358" y="377"/>
      <point x="386.671" y="377" type="curve" smooth="yes"/>
      <point x="319.671" y="377"/>
      <point x="259.287" y="327"/>
    </contour>
  </outline>
</glyph>
<glyph name="i" format="1">
  <advance width="321"/>
  <unicode hex="0069"/>
  <outline>
    <contour>
      <point x="178.038" y="691" type="curve" smooth="yes"/>
      <point x="185.126" y="739"/>
      <point x="230.032" y="779"/>
      <point x="276.032" y="779" type="curve" smooth="yes"/>
      <point x="322.032" y="779"/>
      <point x="355.126" y="739"/>
      <point x="348.038" y="691" type="curve" smooth="yes"/>
      <point x="340.95" y="643"/>
      <point x="296.043" y="603"/>
      <point x="250.043" y="603" type="curve" smooth="yes"/>
      <point x="204.043" y="603"/>
      <point x="170.95" y="643"/>
    </contour>
    <contour>
      <point x="70.5" y="0" type="line"/>
      <point x="148.173" y="526" type="line"/>
      <point x="328.173" y="526" type="line"/>
      <point x="250.5" y="0" type="line"/>
    </contour>
  </outline>
</glyph>
<glyph name="j" format="1">
  <advance width="394"/>
  <unicode hex="006A"/>
  <outline>
    <contour>
      <point x="185.432" y="511" type="line"/>
      <point x="362.432" y="511" type="line"/>
      <point x="300.264" y="90" type="line" smooth="yes"/>
      <point x="279.738" y="-49"/>
      <point x="188.823" y="-150"/>
      <point x="58.8232" y="-150" type="curve" smooth="yes"/>
      <point x="28.2266" y="-150"/>
      <point x="-8.72656" y="-25.4609"/>
      <point x="21.292" y="-14" type="curve" smooth="yes"/>
      <point x="60.2246" y="0.864258"/>
      <point x="109.734" y="-1.60449"/>
      <point x="122.404" y="84" type="curve" smooth="yes"/>
    </contour>
    <contour>
      <point x="215.038" y="691" type="curve" smooth="yes"/>
      <point x="222.126" y="739"/>
      <point x="267.032" y="779"/>
      <point x="313.032" y="779" type="curve" smooth="yes"/>
      <point x="359.032" y="779"/>
      <point x="392.126" y="739"/>
      <point x="385.038" y="691" type="curve" smooth="yes"/>
      <point x="377.95" y="643"/>
      <point x="333.043" y="603"/>
      <point x="287.043" y="603" type="curve" smooth="yes"/>
      <point x="241.043" y="603"/>
      <point x="207.95" y="643"/>
    </contour>
  </outline>
</glyph>
<glyph name="k" format="1">
  <advance width="728"/>
  <unicode hex="006B"/>
  <outline>
    <contour>
      <point x="720.753" y="513" type="line"/>
      <point x="440.575" y="268" type="line"/>
      <point x="669" y="0" type="line"/>
      <point x="441" y="0" type="line"/>
      <point x="266.271" y="205" type="line"/>
      <point x="236" y="0" type="line"/>
      <point x="59" y="0" type="line"/>
      <point x="185.994" y="860" type="line"/>
      <point x="362.994" y="860" type="line"/>
      <point x="285.321" y="334" type="line"/>
      <point x="490.753" y="513" type="line"/>
    </contour>
  </outline>
</glyph>
<glyph name="m" format="1">
  <advance width="1082"/>
  <unicode hex="006D"/>
  <outline>
    <contour>
      <point x="255.5" y="0" type="line"/>
      <point x="71.5" y="0" type="line"/>
      <point x="148.287" y="520" type="line"/>
      <point x="288.287" y="520" type="line"/>
      <point x="284.005" y="491" type="line"/>
      <point x="321.401" y="514"/>
      <point x="369.468" y="528"/>
      <point x="434.468" y="528" type="curve" smooth="yes"/>
      <point x="515.468" y="528"/>
      <point x="573.173" y="526"/>
      <point x="612.574" y="461" type="curve"/>
      <point x="681.173" y="526"/>
      <point x="729.468" y="528"/>
      <point x="810.468" y="528" type="curve" smooth="yes"/>
      <point x="1002.47" y="528"/>
      <point x="1078.28" y="459"/>
      <point x="1052.88" y="287" type="curve" smooth="yes"/>
      <point x="1010.5" y="0" type="line"/>
      <point x="833.5" y="0" type="line"/>
      <point x="869.531" y="244" type="line" smooth="yes"/>
      <point x="884.445" y="345"/>
      <point x="863.204" y="384"/>
      <point x="789.204" y="384" type="curve" smooth="yes"/>
      <point x="728.204" y="384"/>
      <point x="695.365" y="358"/>
      <point x="677.471" y="291" type="curve"/>
      <point x="634.5" y="0" type="line"/>
      <point x="454.5" y="0" type="line"/>
      <point x="497.471" y="291" type="line"/>
      <point x="499.365" y="358"/>
      <point x="474.204" y="384"/>
      <point x="413.204" y="384" type="curve" smooth="yes"/>
      <point x="339.204" y="384"/>
      <point x="306.445" y="345"/>
      <point x="291.531" y="244" type="curve" smooth="yes"/>
    </contour>
  </outline>
</glyph>
<glyph name="n" format="1">
  <advance width="706"/>
  <unicode hex="006E"/>
  <outline>
    <contour>
      <point x="255.5" y="0" type="line"/>
      <point x="71.5" y="0" type="line"/>
      <point x="148.287" y="520" type="line"/>
      <point x="288.287" y="520" type="line"/>
      <point x="284.005" y="491" type="line"/>
      <point x="321.401" y="514"/>
      <point x="370.468" y="528"/>
      <point x="435.468" y="528" type="curve" smooth="yes"/>
      <point x="627.468" y="528"/>
      <point x="702.279" y="459"/>
      <point x="676.881" y="287" type="curve" smooth="yes"/>
      <point x="634.5" y="0" type="line"/>
      <point x="457.5" y="0" type="line"/>
      <point x="493.531" y="244" type="line" smooth="yes"/>
      <point x="508.445" y="345"/>
      <point x="488.204" y="384"/>
      <point x="414.204" y="384" type="curve" smooth="yes"/>
      <point x="340.204" y="384"/>
      <point x="306.445" y="345"/>
      <point x="291.531" y="244" type="curve" smooth="yes"/>
    </contour>
  </outline>
</glyph>
<glyph name="o" format="1">
  <advance width="675"/>
  <unicode hex="006F"/>
  <outline>
    <contour>
      <point x="257.031" y="256.025" type="curve" smooth="yes"/>
      <point x="247.913" y="194.275"/>
      <point x="294.066" y="140.125"/>
      <point x="358.666" y="140.125" type="curve" smooth="yes"/>
      <point x="423.267" y="140.125"/>
      <point x="484.464" y="194.275"/>
      <point x="493.582" y="256.025" type="curve" smooth="yes"/>
      <point x="502.7" y="317.775"/>
      <point x="457.637" y="372.875"/>
      <point x="393.036" y="372.875" type="curve" smooth="yes"/>
      <point x="328.437" y="372.875"/>
      <point x="266.149" y="317.775"/>
    </contour>
    <contour>
      <point x="98.8027" y="256" type="curve" smooth="yes"/>
      <point x="120.215" y="401"/>
      <point x="264.968" y="528"/>
      <point x="416.968" y="528" type="curve" smooth="yes"/>
      <point x="568.968" y="528"/>
      <point x="673.215" y="401"/>
      <point x="651.803" y="256" type="curve" smooth="yes"/>
      <point x="630.391" y="111"/>
      <point x="488.785" y="-15"/>
      <point x="336.785" y="-15" type="curve" smooth="yes"/>
      <point x="184.785" y="-15"/>
      <point x="77.3906" y="111"/>
    </contour>
  </outline>
</glyph>
<glyph name="p" format="1">
  <advance width="736"/>
  <unicode hex="0070"/>
  <outline>
    <contour>
      <point x="29.6064" y="-260" type="line"/>
      <point x="135.041" y="454" type="line" smooth="yes"/>
      <point x="147.948" y="541"/>
      <point x="421.968" y="528"/>
      <point x="490.968" y="528" type="curve" smooth="yes"/>
      <point x="640.968" y="528"/>
      <point x="728.101" y="407"/>
      <point x="705.95" y="257" type="curve" smooth="yes"/>
      <point x="683.801" y="107"/>
      <point x="560.785" y="-15"/>
      <point x="410.785" y="-15" type="curve" smooth="yes"/>
      <point x="380.582" y="-15"/>
      <point x="310.446" y="-17.4912"/>
      <point x="242.158" y="-12.9951" type="curve"/>
      <point x="206.606" y="-260" type="line"/>
    </contour>
    <contour>
      <point x="517.95" y="257" type="curve" smooth="yes"/>
      <point x="528.287" y="327"/>
      <point x="487.671" y="377"/>
      <point x="415.671" y="377" type="curve" smooth="yes"/>
      <point x="355.255" y="377"/>
      <point x="303.745" y="338.667"/>
      <point x="284.925" y="282.14" type="curve"/>
      <point x="277.578" y="231.438" type="line"/>
      <point x="280.179" y="174.291"/>
      <point x="322.326" y="136"/>
      <point x="380.083" y="136" type="curve" smooth="yes"/>
      <point x="447.083" y="136"/>
      <point x="507.466" y="186"/>
    </contour>
  </outline>
</glyph>
<glyph name="q" format="1">
  <advance width="736"/>
  <unicode hex="0071"/>
  <outline>
    <contour>
      <point x="629.606" y="-260" type="line"/>
      <point x="452.606" y="-260" type="line"/>
      <point x="490.004" y="-12.9951" type="line"/>
      <point x="420.388" y="-17.4912"/>
      <point x="350.988" y="-15"/>
      <point x="320.785" y="-15" type="curve" smooth="yes"/>
      <point x="170.785" y="-15"/>
      <point x="83.8008" y="107"/>
      <point x="105.95" y="257" type="curve" smooth="yes"/>
      <point x="128.101" y="407"/>
      <point x="250.968" y="528"/>
      <point x="400.968" y="528" type="curve" smooth="yes"/>
      <point x="469.968" y="528"/>
      <point x="747.827" y="541"/>
      <point x="735.041" y="454" type="curve" smooth="yes"/>
    </contour>
    <contour>
      <point x="293.95" y="257" type="curve" smooth="yes"/>
      <point x="283.466" y="186"/>
      <point x="329.083" y="136"/>
      <point x="396.083" y="136" type="curve" smooth="yes"/>
      <point x="453.84" y="136"/>
      <point x="507.296" y="174.291"/>
      <point x="526.773" y="231.438" type="curve"/>
      <point x="534.401" y="282.14" type="line"/>
      <point x="532.274" y="338.667"/>
      <point x="492.087" y="377"/>
      <point x="431.671" y="377" type="curve" smooth="yes"/>
      <point x="359.671" y="377"/>
      <point x="304.287" y="327"/>
    </contour>
  </outline>
</glyph>
<glyph name="r" format="1">
  <advance width="573"/>
  <unicode hex="0072"/>
  <outline>
    <contour>
      <point x="315.253" y="513" type="line"/>
      <point x="304.326" y="439" type="line"/>
      <point x="304.326" y="439"/>
      <point x="375.468" y="528"/>
      <point x="476.468" y="528" type="curve" smooth="yes"/>
      <point x="542.468" y="528"/>
      <point x="583.743" y="496"/>
      <point x="583.743" y="496" type="curve"/>
      <point x="487.593" y="346" type="line"/>
      <point x="487.593" y="346"/>
      <point x="458.728" y="374"/>
      <point x="399.728" y="374" type="curve" smooth="yes"/>
      <point x="307.728" y="374"/>
      <point x="281.29" y="283"/>
      <point x="279.37" y="270" type="curve" smooth="yes"/>
      <point x="239.5" y="0" type="line"/>
      <point x="62.5" y="0" type="line"/>
      <point x="138.253" y="513" type="line"/>
    </contour>
  </outline>
</glyph>
<glyph name="t" format="1">
  <advance width="487"/>
  <unicode hex="0074"/>
  <outline>
    <contour>
      <point x="203.753" y="513" type="line"/>
      <point x="231.958" y="704" type="line"/>
      <point x="408.958" y="704" type="line"/>
      <point x="380.753" y="513" type="line"/>
      <point x="488.753" y="513" type="line"/>
      <point x="468.818" y="378" type="line"/>
      <point x="360.818" y="378" type="line"/>
      <point x="336.748" y="215" type="line" smooth="yes"/>
      <point x="329.66" y="167"/>
      <point x="338.264" y="144"/>
      <point x="366.264" y="144" type="curve" smooth="yes"/>
      <point x="389.264" y="144"/>
      <point x="412.627" y="160"/>
      <point x="412.627" y="160" type="curve"/>
      <point x="435.511" y="17" type="line"/>
      <point x="435.511" y="17"/>
      <point x="373.785" y="-15"/>
      <point x="300.785" y="-15" type="curve" smooth="yes"/>
      <point x="159.785" y="-15"/>
      <point x="141.29" y="90"/>
      <point x="154.728" y="181" type="curve" smooth="yes"/>
      <point x="183.818" y="378" type="line"/>
      <point x="109.818" y="378" type="line"/>
      <point x="129.753" y="513" type="line"/>
    </contour>
  </outline>
</glyph>
<glyph name="u" format="1">
  <advance width="694"/>
  <unicode hex="0075"/>
  <outline>
    <contour>
      <point x="321.753" y="513" type="line"/>
      <point x="285.723" y="269" type="line" smooth="yes"/>
      <point x="270.808" y="168"/>
      <point x="292.049" y="129"/>
      <point x="366.049" y="129" type="curve" smooth="yes"/>
      <point x="440.049" y="129"/>
      <point x="472.808" y="168"/>
      <point x="487.723" y="269" type="curve" smooth="yes"/>
      <point x="523.753" y="513" type="line"/>
      <point x="700.753" y="513" type="line"/>
      <point x="658.373" y="226" type="line" smooth="yes"/>
      <point x="632.974" y="54"/>
      <point x="536.785" y="-15"/>
      <point x="344.785" y="-15" type="curve" smooth="yes"/>
      <point x="152.785" y="-15"/>
      <point x="76.9736" y="54"/>
      <point x="102.373" y="226" type="curve" smooth="yes"/>
      <point x="144.753" y="513" type="line"/>
    </contour>
  </outline>
</glyph>
<glyph name="v" format="1">
  <advance width="767"/>
  <unicode hex="0076"/>
  <outline>
    <contour>
      <point x="334.253" y="513" type="line"/>
      <point x="418.054" y="234" type="line"/>
      <point x="584.253" y="513" type="line"/>
      <point x="794.253" y="513" type="line"/>
      <point x="443.5" y="0" type="line"/>
      <point x="323.5" y="0" type="line"/>
      <point x="124.253" y="513" type="line"/>
    </contour>
  </outline>
</glyph>
<glyph name="w" format="1">
  <advance width="1123"/>
  <unicode hex="0077"/>
  <outline>
    <contour>
      <point x="443.5" y="0" type="line"/>
      <point x="323.5" y="0" type="line"/>
      <point x="124.253" y="513" type="line"/>
      <point x="328.253" y="513" type="line"/>
      <point x="412.35" y="236" type="line"/>
      <point x="576.253" y="513" type="line"/>
      <point x="698.253" y="513" type="line"/>
      <point x="780.35" y="236" type="line"/>
      <point x="946.253" y="513" type="line"/>
      <point x="1150.25" y="513" type="line"/>
      <point x="799.5" y="0" type="line"/>
      <point x="679.5" y="0" type="line"/>
      <point x="600.632" y="265" type="line"/>
    </contour>
  </outline>
</glyph>
<glyph name="x" format="1">
  <advance width="744"/>
  <unicode hex="0078"/>
  <outline>
    <contour>
      <point x="699" y="0" type="line"/>
      <point x="485" y="0" type="line"/>
      <point x="393.412" y="145" type="line"/>
      <point x="259" y="0" type="line"/>
      <point x="45" y="0" type="line"/>
      <point x="303.575" y="268" type="line"/>
      <point x="151.753" y="513" type="line"/>
      <point x="358.753" y="513" type="line"/>
      <point x="430.181" y="394" type="line"/>
      <point x="536.753" y="513" type="line"/>
      <point x="743.753" y="513" type="line"/>
      <point x="519.575" y="268" type="line"/>
    </contour>
  </outline>
</glyph>
<glyph name="y" format="1">
  <advance width="765"/>
  <unicode hex="0079"/>
  <outline>
    <contour>
      <point x="590.753" y="513" type="line"/>
      <point x="794.753" y="513" type="line"/>
      <point x="277.606" y="-260" type="line"/>
      <point x="73.6064" y="-260" type="line"/>
      <point x="300.813" y="80" type="line"/>
      <point x="121.753" y="513" type="line"/>
      <point x="325.753" y="513" type="line"/>
      <point x="429.917" y="250" type="line"/>
    </contour>
  </outline>
</glyph>
<glyph name="braceleft" format="1">
  <advance width="432"/>
  <unicode hex="007B"/>
  <outline>
    <contour>
      <point x="150.762" y="188" type="curve" smooth="yes"/>
      <point x="157.554" y="234"/>
      <point x="133.359" y="253"/>
      <point x="90.3594" y="253" type="curve"/>
      <point x="104.24" y="347" type="line"/>
      <point x="147.24" y="347"/>
      <point x="177.046" y="366"/>
      <point x="183.839" y="412" type="curve" smooth="yes"/>
      <point x="237.294" y="774"/>
      <point x="232.994" y="860"/>
      <point x="505.994" y="860" type="curve"/>
      <point x="487.093" y="732" type="line"/>
      <point x="371.093" y="732"/>
      <point x="378.481" y="694"/>
      <point x="336.101" y="407" type="curve" smooth="yes"/>
      <point x="327.684" y="350"/>
      <point x="295.958" y="318"/>
      <point x="259.3" y="300" type="curve"/>
      <point x="290.643" y="282"/>
      <point x="312.77" y="249"/>
      <point x="304.5" y="193" type="curve" smooth="yes"/>
      <point x="262.119" y="-94"/>
      <point x="243.508" y="-132"/>
      <point x="359.508" y="-132" type="curve"/>
      <point x="340.606" y="-260" type="line"/>
      <point x="67.6064" y="-260"/>
      <point x="97.3057" y="-174"/>
    </contour>
  </outline>
</glyph>
<glyph name="braceright" format="1">
  <advance width="432"/>
  <unicode hex="007D"/>
  <outline>
    <contour>
      <point x="336.762" y="188" type="curve" smooth="yes"/>
      <point x="283.306" y="-174"/>
      <point x="287.606" y="-260"/>
      <point x="14.6064" y="-260" type="curve"/>
      <point x="33.5078" y="-132" type="line"/>
      <point x="149.508" y="-132"/>
      <point x="142.119" y="-94"/>
      <point x="184.5" y="193" type="curve" smooth="yes"/>
      <point x="192.77" y="249"/>
      <point x="224.643" y="282"/>
      <point x="261.3" y="300" type="curve"/>
      <point x="229.958" y="318"/>
      <point x="207.684" y="350"/>
      <point x="216.101" y="407" type="curve" smooth="yes"/>
      <point x="258.481" y="694"/>
      <point x="277.093" y="732"/>
      <point x="161.093" y="732" type="curve"/>
      <point x="179.994" y="860" type="line"/>
      <point x="452.994" y="860"/>
      <point x="423.294" y="774"/>
      <point x="369.839" y="412" type="curve" smooth="yes"/>
      <point x="363.046" y="366"/>
      <point x="387.24" y="347"/>
      <point x="430.24" y="347" type="curve"/>
      <point x="416.359" y="253" type="line"/>
      <point x="373.359" y="253"/>
      <point x="343.554" y="234"/>
    </contour>
  </outline>
</glyph>
<glyph name="asciitilde" format="1">
  <advance width="691"/>
  <unicode hex="007E"/>
  <outline>
    <contour>
      <point x="500.243" y="303" type="curve" smooth="yes"/>
      <point x="396.996" y="303"/>
      <point x="354.795" y="388"/>
      <point x="292.795" y="388" type="curve" smooth="yes"/>
      <point x="234.795" y="388"/>
      <point x="197.276" y="310"/>
      <point x="197.276" y="310" type="curve"/>
      <point x="116.238" y="391" type="line"/>
      <point x="116.238" y="391"/>
      <point x="201.468" y="528"/>
      <point x="313.468" y="528" type="curve" smooth="yes"/>
      <point x="380.468" y="528"/>
      <point x="476.14" y="443"/>
      <point x="520.917" y="443" type="curve" smooth="yes"/>
      <point x="578.917" y="443"/>
      <point x="616.435" y="521"/>
      <point x="616.435" y="521" type="curve"/>
      <point x="697.474" y="440" type="line"/>
      <point x="697.474" y="440"/>
      <point x="612.243" y="303"/>
    </contour>
  </outline>
</glyph>
<glyph name="exclamdown" format="1">
  <advance width="303"/>
  <unicode hex="00A1"/>
  <outline>
    <contour>
      <point x="24.6064" y="-260" type="line"/>
      <point x="135.73" y="330" type="line"/>
      <point x="264.73" y="330" type="line"/>
      <point x="201.606" y="-260" type="line"/>
    </contour>
    <contour>
      <point x="138.108" y="468" type="curve" smooth="yes"/>
      <point x="145.196" y="516"/>
      <point x="190.103" y="556"/>
      <point x="236.103" y="556" type="curve" smooth="yes"/>
      <point x="282.103" y="556"/>
      <point x="315.196" y="516"/>
      <point x="308.108" y="468" type="curve" smooth="yes"/>
      <point x="301.021" y="420"/>
      <point x="256.113" y="380"/>
      <point x="210.113" y="380" type="curve" smooth="yes"/>
      <point x="164.113" y="380"/>
      <point x="131.021" y="420"/>
    </contour>
  </outline>
</glyph>
<glyph name="cent" format="1">
  <advance width="568"/>
  <unicode hex="00A2"/>
  <outline>
    <contour>
      <point x="261.951" y="-129" type="line"/>
      <point x="279.818" y="-8" type="line"/>
      <point x="160.658" y="18"/>
      <point x="74.458" y="125"/>
      <point x="93.6553" y="255" type="curve" smooth="yes"/>
      <point x="111.375" y="375"/>
      <point x="211.438" y="477"/>
      <point x="326.753" y="513" type="curve"/>
      <point x="344.916" y="636" type="line"/>
      <point x="452.916" y="636" type="line"/>
      <point x="436.82" y="527" type="line"/>
      <point x="537.082" y="522"/>
      <point x="582.88" y="480"/>
      <point x="582.88" y="480" type="curve"/>
      <point x="505.013" y="359" type="line"/>
      <point x="505.013" y="359"/>
      <point x="475.557" y="383"/>
      <point x="422.557" y="383" type="curve" smooth="yes"/>
      <point x="355.557" y="383"/>
      <point x="292.287" y="327"/>
      <point x="281.95" y="257" type="curve" smooth="yes"/>
      <point x="271.466" y="186"/>
      <point x="318.196" y="130"/>
      <point x="385.196" y="130" type="curve" smooth="yes"/>
      <point x="438.196" y="130"/>
      <point x="474.741" y="154"/>
      <point x="474.741" y="154" type="curve"/>
      <point x="516.578" y="31" type="line"/>
      <point x="516.578" y="31"/>
      <point x="468.853" y="-1"/>
      <point x="387.228" y="-12" type="curve"/>
      <point x="369.951" y="-129" type="line"/>
    </contour>
  </outline>
</glyph>
<glyph name="sterling" format="1">
  <advance width="763"/>
  <unicode hex="00A3"/>
  <outline>
    <contour>
      <point x="383.718" y="164" type="curve" smooth="yes"/>
      <point x="395.602" y="148.25"/>
      <point x="450.549" y="129"/>
      <point x="524.549" y="129" type="curve" smooth="yes"/>
      <point x="581.549" y="129"/>
      <point x="602.181" y="201"/>
      <point x="602.181" y="201" type="curve"/>
      <point x="729.14" y="133" type="line"/>
      <point x="729.14" y="133"/>
      <point x="684.285" y="-15"/>
      <point x="524.285" y="-15" type="curve" smooth="yes"/>
      <point x="400.285" y="-15"/>
      <point x="315.85" y="43"/>
      <point x="221.85" y="43" type="curve" smooth="yes"/>
      <point x="180.85" y="43"/>
      <point x="168.5" y="0"/>
      <point x="168.5" y="0" type="curve"/>
      <point x="53.5" y="0" type="line"/>
      <point x="61.4736" y="54"/>
      <point x="135.785" y="178"/>
      <point x="225.785" y="178" type="curve" smooth="yes"/>
      <point x="263.618" y="178"/>
      <point x="245.746" y="259"/>
      <point x="234.176" y="289" type="curve"/>
      <point x="96.1758" y="289" type="line"/>
      <point x="110.647" y="387" type="line"/>
      <point x="212.647" y="387" type="line"/>
      <point x="191.145" y="431"/>
      <point x="174.823" y="483"/>
      <point x="185.898" y="558" type="curve" smooth="yes"/>
      <point x="208.935" y="714"/>
      <point x="323.688" y="841"/>
      <point x="508.688" y="841" type="curve" smooth="yes"/>
      <point x="742.688" y="841"/>
      <point x="754.631" y="651"/>
      <point x="754.631" y="651" type="curve"/>
      <point x="585.261" y="574" type="line"/>
      <point x="585.261" y="574"/>
      <point x="583.242" y="689"/>
      <point x="486.242" y="689" type="curve" smooth="yes"/>
      <point x="424.242" y="689"/>
      <point x="383.121" y="634"/>
      <point x="371.898" y="558" type="curve" smooth="yes"/>
      <point x="359.79" y="476"/>
      <point x="379.883" y="436"/>
      <point x="394.647" y="387" type="curve"/>
      <point x="567.647" y="387" type="line"/>
      <point x="553.176" y="289" type="line"/>
      <point x="399.176" y="289" type="line"/>
      <point x="369.933" y="239.446"/>
      <point x="367.211" y="185.876"/>
    </contour>
  </outline>
</glyph>
<glyph name="currency" format="1">
  <advance width="888"/>
  <unicode hex="00A4"/>
  <outline>
    <contour>
      <point x="329.836" y="412.151" type="curve" smooth="yes"/>
      <point x="314.773" y="310.151"/>
      <point x="353.359" y="203.052"/>
      <point x="480.01" y="203.052" type="curve" smooth="yes"/>
      <point x="607.51" y="203.052"/>
      <point x="675.647" y="307.602"/>
      <point x="691.086" y="412.151" type="curve" smooth="yes"/>
      <point x="706.524" y="516.701"/>
      <point x="665.863" y="621.251"/>
      <point x="541.764" y="621.251" type="curve" smooth="yes"/>
      <point x="418.514" y="621.251"/>
      <point x="345.274" y="516.701"/>
    </contour>
    <contour>
      <point x="855.428" y="121.141" type="line"/>
      <point x="756.432" y="24.1387" type="line"/>
      <point x="673.062" y="113.757" type="line"/>
      <point x="609.741" y="72.3662"/>
      <point x="535.468" y="48.3516"/>
      <point x="457.167" y="48.3516" type="curve" smooth="yes"/>
      <point x="382.368" y="48.3516"/>
      <point x="318.583" y="69.0254"/>
      <point x="269.016" y="105.07" type="curve"/>
      <point x="170.614" y="13.5645" type="line"/>
      <point x="86.1152" y="98.2363" type="line"/>
      <point x="190.304" y="195.124" type="line"/>
      <point x="157.629" y="255.222"/>
      <point x="145.155" y="329.995"/>
      <point x="157.287" y="412.15" type="curve" smooth="yes"/>
      <point x="167.691" y="482.611"/>
      <point x="196.287" y="547.541"/>
      <point x="237.179" y="602.409" type="curve"/>
      <point x="152.398" y="693.544" type="line"/>
      <point x="251.395" y="790.547" type="line"/>
      <point x="336.284" y="699.296" type="line"/>
      <point x="403.553" y="747.061"/>
      <point x="483.223" y="775.102"/>
      <point x="564.482" y="775.102" type="curve" smooth="yes"/>
      <point x="640.977" y="775.102"/>
      <point x="708.219" y="750.686"/>
      <point x="759.834" y="708.611" type="curve"/>
      <point x="859.312" y="801.119" type="line"/>
      <point x="943.812" y="716.446" type="line"/>
      <point x="834.649" y="614.935" type="line"/>
      <point x="863.399" y="557.534"/>
      <point x="874.845" y="488.052"/>
      <point x="863.637" y="412.151" type="curve" smooth="yes"/>
      <point x="852.319" y="335.509"/>
      <point x="820.771" y="265.291"/>
      <point x="775.164" y="207.419" type="curve"/>
    </contour>
  </outline>
</glyph>
<glyph name="yen" format="1">
  <advance width="895"/>
  <unicode hex="00A5"/>
  <outline>
    <contour>
      <point x="750.825" y="825" type="line"/>
      <point x="970.825" y="825" type="line"/>
      <point x="681.201" y="428" type="line"/>
      <point x="763.201" y="428" type="line"/>
      <point x="744.005" y="298" type="line"/>
      <point x="599.005" y="298" type="line"/>
      <point x="589.997" y="237" type="line"/>
      <point x="734.997" y="237" type="line"/>
      <point x="715.801" y="107" type="line"/>
      <point x="570.801" y="107" type="line"/>
      <point x="555" y="0" type="line"/>
      <point x="340" y="0" type="line"/>
      <point x="355.801" y="107" type="line"/>
      <point x="216.801" y="107" type="line"/>
      <point x="235.997" y="237" type="line"/>
      <point x="374.997" y="237" type="line"/>
      <point x="384.005" y="298" type="line"/>
      <point x="245.005" y="298" type="line"/>
      <point x="264.201" y="428" type="line"/>
      <point x="340.201" y="428" type="line"/>
      <point x="167.825" y="825" type="line"/>
      <point x="387.825" y="825" type="line"/>
      <point x="521.981" y="501" type="line"/>
    </contour>
  </outline>
</glyph>
<glyph name="brokenbar" format="1">
  <advance width="297"/>
  <unicode hex="00A6"/>
  <outline>
    <contour>
      <point x="72" y="0" type="line"/>
      <point x="121.025" y="332" type="line"/>
      <point x="274.025" y="332" type="line"/>
      <point x="225" y="0" type="line"/>
    </contour>
    <contour>
      <point x="149.968" y="528" type="line"/>
      <point x="198.994" y="860" type="line"/>
      <point x="351.994" y="860" type="line"/>
      <point x="302.968" y="528" type="line"/>
    </contour>
  </outline>
</glyph>
<glyph name="section" format="1">
  <advance width="699"/>
  <unicode hex="00A7"/>
  <outline>
    <contour>
      <point x="416.989" y="176" type="curve" smooth="yes"/>
      <point x="456.027" y="153.986"/>
      <point x="513.339" y="219"/>
      <point x="518.394" y="260" type="curve"/>
      <point x="517.072" y="312"/>
      <point x="414.422" y="364.131"/>
      <point x="364.442" y="389" type="curve" smooth="yes"/>
      <point x="319.59" y="411.318"/>
      <point x="261.979" y="352"/>
      <point x="264.038" y="305" type="curve"/>
      <point x="259.803" y="256"/>
      <point x="349.601" y="214"/>
    </contour>
    <contour>
      <point x="279.392" y="-275" type="curve" smooth="yes"/>
      <point x="46.3916" y="-275"/>
      <point x="42.5957" y="-84"/>
      <point x="42.5957" y="-84" type="curve"/>
      <point x="207.616" y="-50" type="line"/>
      <point x="207.616" y="-50"/>
      <point x="219.246" y="-127"/>
      <point x="301.246" y="-127" type="curve" smooth="yes"/>
      <point x="362.246" y="-127"/>
      <point x="387.086" y="-101"/>
      <point x="391.368" y="-72" type="curve" smooth="yes"/>
      <point x="397.422" y="-31"/>
      <point x="338.705" y="-2"/>
      <point x="257.611" y="38" type="curve" smooth="yes"/>
      <point x="145.028" y="95"/>
      <point x="78.9219" y="162"/>
      <point x="95.7559" y="276" type="curve" smooth="yes"/>
      <point x="110.831" y="351"/>
      <point x="167.872" y="419"/>
      <point x="256.336" y="456" type="curve"/>
      <point x="202.686" y="499"/>
      <point x="181.069" y="549"/>
      <point x="193.178" y="631" type="curve" smooth="yes"/>
      <point x="209.126" y="739"/>
      <point x="302.04" y="840"/>
      <point x="482.04" y="840" type="curve" smooth="yes"/>
      <point x="695.04" y="840"/>
      <point x="696.608" y="661"/>
      <point x="696.608" y="661" type="curve"/>
      <point x="531.587" y="627" type="line"/>
      <point x="531.587" y="627"/>
      <point x="536.186" y="692"/>
      <point x="460.186" y="692" type="curve" smooth="yes"/>
      <point x="418.186" y="692"/>
      <point x="393.642" y="668"/>
      <point x="389.064" y="637" type="curve" smooth="yes"/>
      <point x="383.157" y="597"/>
      <point x="443.728" y="567"/>
      <point x="524.82" y="527" type="curve" smooth="yes"/>
      <point x="637.403" y="470"/>
      <point x="703.51" y="403"/>
      <point x="686.676" y="289" type="curve" smooth="yes"/>
      <point x="671.601" y="214"/>
      <point x="614.56" y="146"/>
      <point x="526.096" y="109" type="curve"/>
      <point x="578.599" y="65"/>
      <point x="601.215" y="15"/>
      <point x="589.254" y="-66" type="curve" smooth="yes"/>
      <point x="576.555" y="-152"/>
      <point x="499.392" y="-275"/>
    </contour>
  </outline>
</glyph>
<glyph name="copyright" format="1">
  <advance width="973"/>
  <unicode hex="00A9"/>
  <outline>
    <contour>
      <point x="602.196" y="516" type="curve" smooth="yes"/>
      <point x="548.196" y="516"/>
      <point x="497.551" y="471"/>
      <point x="489.282" y="415" type="curve" smooth="yes"/>
      <point x="480.717" y="357"/>
      <point x="518.22" y="313"/>
      <point x="572.22" y="313" type="curve" smooth="yes"/>
      <point x="610.22" y="313"/>
      <point x="635.14" y="326"/>
      <point x="640.582" y="329" type="curve"/>
      <point x="650.857" y="297"/>
      <point x="661.018" y="271"/>
      <point x="671.292" y="239" type="curve"/>
      <point x="671.292" y="239"/>
      <point x="612.419" y="206"/>
      <point x="535.419" y="206" type="curve" smooth="yes"/>
      <point x="422.419" y="206"/>
      <point x="331.005" y="298"/>
      <point x="347.986" y="413" type="curve" smooth="yes"/>
      <point x="365.264" y="530"/>
      <point x="484.145" y="624"/>
      <point x="597.145" y="624" type="curve" smooth="yes"/>
      <point x="682.145" y="624"/>
      <point x="720.419" y="592"/>
      <point x="722.976" y="589" type="curve" smooth="yes"/>
      <point x="666.834" y="500" type="line"/>
      <point x="666.834" y="500"/>
      <point x="635.196" y="516"/>
    </contour>
    <contour>
      <point x="233.839" y="412" type="curve" smooth="yes"/>
      <point x="208.44" y="240"/>
      <point x="328.619" y="99"/>
      <point x="500.619" y="99" type="curve" smooth="yes"/>
      <point x="673.619" y="99"/>
      <point x="835.44" y="240"/>
      <point x="860.839" y="412" type="curve" smooth="yes"/>
      <point x="886.386" y="585"/>
      <point x="766.206" y="726"/>
      <point x="593.206" y="726" type="curve" smooth="yes"/>
      <point x="421.206" y="726"/>
      <point x="259.386" y="585"/>
    </contour>
    <contour>
      <point x="119.839" y="412" type="curve" smooth="yes"/>
      <point x="154.688" y="648"/>
      <point x="375.04" y="840"/>
      <point x="610.04" y="840" type="curve" smooth="yes"/>
      <point x="846.04" y="840"/>
      <point x="1009.69" y="648"/>
      <point x="974.839" y="412" type="curve" smooth="yes"/>
      <point x="940.137" y="177"/>
      <point x="719.785" y="-15"/>
      <point x="483.785" y="-15" type="curve" smooth="yes"/>
      <point x="248.785" y="-15"/>
      <point x="85.1367" y="177"/>
    </contour>
  </outline>
</glyph>
<glyph name="ordfeminine" format="1">
  <advance width="500"/>
  <unicode hex="00AA"/>
  <outline>
    <contour>
      <point x="280.085" y="671" type="curve" smooth="yes"/>
      <point x="273.735" y="628"/>
      <point x="299.157" y="597"/>
      <point x="343.157" y="597" type="curve" smooth="yes"/>
      <point x="386.157" y="597"/>
      <point x="421.735" y="628"/>
      <point x="428.085" y="671" type="curve" smooth="yes"/>
      <point x="434.582" y="715"/>
      <point x="406.16" y="746"/>
      <point x="365.16" y="746" type="curve" smooth="yes"/>
      <point x="324.16" y="746"/>
      <point x="286.582" y="715"/>
    </contour>
    <contour>
      <point x="403.753" y="513" type="line"/>
      <point x="409.069" y="549" type="line"/>
      <point x="381.229" y="523"/>
      <point x="340.424" y="504"/>
      <point x="296.424" y="504" type="curve" smooth="yes"/>
      <point x="203.424" y="504"/>
      <point x="149.499" y="579"/>
      <point x="163.085" y="671" type="curve" smooth="yes"/>
      <point x="176.817" y="764"/>
      <point x="253.04" y="840"/>
      <point x="346.04" y="840" type="curve" smooth="yes"/>
      <point x="389.04" y="840"/>
      <point x="421.825" y="825"/>
      <point x="445.134" y="800" type="curve"/>
      <point x="449.563" y="830" type="line"/>
      <point x="558.563" y="830" type="line"/>
      <point x="511.753" y="513" type="line"/>
    </contour>
  </outline>
</glyph>
<glyph name="guillemotleft" format="1">
  <advance width="649"/>
  <unicode hex="00AB"/>
  <outline>
    <contour>
      <point x="504.635" y="28" type="line"/>
      <point x="346.552" y="278" type="line"/>
      <point x="578.468" y="528" type="line"/>
      <point x="660.688" y="455" type="line"/>
      <point x="496.552" y="278" type="line"/>
      <point x="608.414" y="101" type="line"/>
    </contour>
    <contour>
      <point x="254.635" y="28" type="line"/>
      <point x="96.5518" y="278" type="line"/>
      <point x="328.468" y="528" type="line"/>
      <point x="410.688" y="455" type="line"/>
      <point x="246.552" y="278" type="line"/>
      <point x="358.414" y="101" type="line"/>
    </contour>
  </outline>
</glyph>
<glyph name="logicalnot" format="1">
  <advance width="645"/>
  <unicode hex="00AC"/>
  <outline>
    <contour>
      <point x="608.091" y="197" type="line"/>
      <point x="532.091" y="197" type="line"/>
      <point x="545.528" y="288" type="line"/>
      <point x="108.528" y="288" type="line"/>
      <point x="121.08" y="373" type="line"/>
      <point x="634.08" y="373" type="line"/>
    </contour>
  </outline>
</glyph>
<glyph name="uni00AD" format="1">
  <advance width="392"/>
  <unicode hex="00AD"/>
  <outline>
    <contour>
      <point x="124.052" y="385" type="line"/>
      <point x="381.651" y="385" type="line"/>
      <point x="359.059" y="232" type="line"/>
      <point x="101.459" y="232" type="line"/>
    </contour>
  </outline>
</glyph>
<glyph name="registered" format="1">
  <advance width="567"/>
  <unicode hex="00AE"/>
  <outline>
    <contour>
      <point x="354.235" y="628" type="line"/>
      <point x="360.235" y="628" type="line" smooth="yes"/>
      <point x="377.235" y="628"/>
      <point x="397.53" y="630"/>
      <point x="401.222" y="655" type="curve" smooth="yes"/>
      <point x="405.062" y="681"/>
      <point x="385.356" y="683"/>
      <point x="368.356" y="683" type="curve" smooth="yes"/>
      <point x="362.356" y="683" type="line"/>
    </contour>
    <contour>
      <point x="320.82" y="720" type="line"/>
      <point x="393.82" y="720" type="line" smooth="yes"/>
      <point x="432.82" y="720"/>
      <point x="458.72" y="699"/>
      <point x="452.812" y="659" type="curve" smooth="yes"/>
      <point x="448.087" y="627"/>
      <point x="428.281" y="608"/>
      <point x="401.952" y="599" type="curve"/>
      <point x="462.253" y="513" type="line"/>
      <point x="400.253" y="513" type="line"/>
      <point x="349.362" y="595" type="line"/>
      <point x="337.253" y="513" type="line"/>
      <point x="290.253" y="513" type="line"/>
    </contour>
    <contour>
      <point x="210.315" y="615" type="curve" smooth="yes"/>
      <point x="197.025" y="525"/>
      <point x="260.245" y="452"/>
      <point x="349.245" y="452" type="curve" smooth="yes"/>
      <point x="441.245" y="452"/>
      <point x="525.025" y="525"/>
      <point x="538.315" y="615" type="curve" smooth="yes"/>
      <point x="551.753" y="706"/>
      <point x="489.681" y="780"/>
      <point x="397.681" y="780" type="curve" smooth="yes"/>
      <point x="308.681" y="780"/>
      <point x="223.753" y="706"/>
    </contour>
    <contour>
      <point x="150.315" y="615" type="curve" smooth="yes"/>
      <point x="168.626" y="739"/>
      <point x="284.54" y="840"/>
      <point x="406.54" y="840" type="curve" smooth="yes"/>
      <point x="531.54" y="840"/>
      <point x="616.626" y="739"/>
      <point x="598.315" y="615" type="curve" smooth="yes"/>
      <point x="580.152" y="492"/>
      <point x="465.386" y="392"/>
      <point x="340.386" y="392" type="curve" smooth="yes"/>
      <point x="218.386" y="392"/>
      <point x="132.152" y="492"/>
    </contour>
  </outline>
</glyph>
<glyph name="macron" format="1">
  <advance width="539"/>
  <unicode hex="00AF"/>
  <outline>
    <contour>
      <point x="176.841" y="754" type="line"/>
      <point x="584.841" y="754" type="line"/>
      <point x="567.121" y="634" type="line"/>
      <point x="159.121" y="634" type="line"/>
    </contour>
  </outline>
</glyph>
<glyph name="degree" format="1">
  <advance width="352"/>
  <unicode hex="00B0"/>
  <outline>
    <contour>
      <point x="246.999" y="772" type="curve" smooth="yes"/>
      <point x="243.308" y="747"/>
      <point x="257.206" y="726"/>
      <point x="283.206" y="726" type="curve" smooth="yes"/>
      <point x="308.206" y="726"/>
      <point x="330.308" y="747"/>
      <point x="333.999" y="772" type="curve" smooth="yes"/>
      <point x="337.839" y="798"/>
      <point x="321.645" y="817"/>
      <point x="296.645" y="817" type="curve" smooth="yes"/>
      <point x="272.645" y="817"/>
      <point x="250.839" y="798"/>
    </contour>
    <contour>
      <point x="173.999" y="772" type="curve" smooth="yes"/>
      <point x="183.007" y="833"/>
      <point x="240.209" y="875"/>
      <point x="305.209" y="875" type="curve" smooth="yes"/>
      <point x="370.209" y="875"/>
      <point x="415.007" y="833"/>
      <point x="405.999" y="772" type="curve" smooth="yes"/>
      <point x="397.139" y="712"/>
      <point x="342.789" y="669"/>
      <point x="274.789" y="669" type="curve" smooth="yes"/>
      <point x="205.789" y="669"/>
      <point x="165.139" y="712"/>
    </contour>
  </outline>
</glyph>
<glyph name="plusminus" format="1">
  <advance width="645"/>
  <unicode hex="00B1"/>
  <outline>
    <contour>
      <point x="88.5928" y="153" type="line"/>
      <point x="601.593" y="153" type="line"/>
      <point x="579" y="0" type="line"/>
      <point x="66" y="0" type="line"/>
    </contour>
    <contour>
      <point x="429.715" y="208" type="line"/>
      <point x="276.715" y="208" type="line"/>
      <point x="299.604" y="363" type="line"/>
      <point x="119.604" y="363" type="line"/>
      <point x="142.196" y="516" type="line"/>
      <point x="322.196" y="516" type="line"/>
      <point x="345.085" y="671" type="line"/>
      <point x="498.085" y="671" type="line"/>
      <point x="475.196" y="516" type="line"/>
      <point x="655.196" y="516" type="line"/>
      <point x="632.604" y="363" type="line"/>
      <point x="452.604" y="363" type="line"/>
    </contour>
  </outline>
</glyph>
<glyph name="uni00B2" format="1">
  <advance width="373"/>
  <unicode hex="00B2"/>
  <outline>
    <contour>
      <point x="295.885" y="778" type="curve" smooth="yes"/>
      <point x="260.885" y="778"/>
      <point x="229.877" y="717"/>
      <point x="229.877" y="717" type="curve"/>
      <point x="173.308" y="747" type="line"/>
      <point x="173.308" y="747"/>
      <point x="218.04" y="840"/>
      <point x="305.04" y="840" type="curve" smooth="yes"/>
      <point x="416.04" y="840"/>
      <point x="419.408" y="768"/>
      <point x="413.354" y="727" type="curve" smooth="yes"/>
      <point x="402.279" y="652"/>
      <point x="278.204" y="577"/>
      <point x="278.204" y="577" type="curve"/>
      <point x="397.204" y="577" type="line"/>
      <point x="387.753" y="513" type="line"/>
      <point x="136.753" y="513" type="line"/>
      <point x="139.411" y="531" type="line"/>
      <point x="139.411" y="531"/>
      <point x="325.642" y="668"/>
      <point x="334.354" y="727" type="curve" smooth="yes"/>
      <point x="336.126" y="739"/>
      <point x="338.885" y="778"/>
    </contour>
  </outline>
</glyph>
<glyph name="uni00B3" format="1">
  <advance width="350"/>
  <unicode hex="00B3"/>
  <outline>
    <contour>
      <point x="187.475" y="769.12" type="line"/>
      <point x="187.475" y="769.12"/>
      <point x="213.591" y="837.9"/>
      <point x="301.371" y="837.9" type="curve" smooth="yes"/>
      <point x="361.03" y="837.9"/>
      <point x="398.739" y="799.9"/>
      <point x="390.883" y="746.7" type="curve" smooth="yes"/>
      <point x="387.067" y="720.86"/>
      <point x="373.51" y="701.101"/>
      <point x="354.445" y="687.8" type="curve"/>
      <point x="376.577" y="672.98"/>
      <point x="388.622" y="649.04"/>
      <point x="383.74" y="615.98" type="curve" smooth="yes"/>
      <point x="374.874" y="555.94"/>
      <point x="319.513" y="513"/>
      <point x="252.253" y="513" type="curve" smooth="yes"/>
      <point x="155.733" y="513"/>
      <point x="145.845" y="590.141"/>
      <point x="145.845" y="590.141" type="curve"/>
      <point x="216.734" y="622.44" type="line"/>
      <point x="216.734" y="622.44"/>
      <point x="213.844" y="574.561"/>
      <point x="260.964" y="574.561" type="curve" smooth="yes"/>
      <point x="327.283" y="574.561"/>
      <point x="357.963" y="662.72"/>
      <point x="259.854" y="659.681" type="curve"/>
      <point x="266.756" y="706.42" type="line"/>
      <point x="345.416" y="706.42"/>
      <point x="338.51" y="780.521"/>
      <point x="292.137" y="780.521" type="curve" smooth="yes"/>
      <point x="252.617" y="780.521"/>
      <point x="239.674" y="741.76"/>
      <point x="239.674" y="741.76" type="curve"/>
    </contour>
  </outline>
</glyph>
<glyph name="acute" format="1">
  <advance width="405"/>
  <unicode hex="00B4"/>
  <outline>
    <contour>
      <point x="153.551" y="664" type="line"/>
      <point x="382.54" y="840" type="line"/>
      <point x="456.559" y="725" type="line"/>
      <point x="198.181" y="587" type="line"/>
    </contour>
  </outline>
</glyph>
<glyph name="mu" format="1">
  <advance width="696"/>
  <unicode hex="00B5"/>
  <outline>
    <contour>
      <point x="286.723" y="269" type="line" smooth="yes"/>
      <point x="271.808" y="168"/>
      <point x="293.049" y="129"/>
      <point x="367.049" y="129" type="curve" smooth="yes"/>
      <point x="441.049" y="129"/>
      <point x="473.808" y="168"/>
      <point x="488.723" y="269" type="curve" smooth="yes"/>
      <point x="524.753" y="513" type="line"/>
      <point x="701.753" y="513" type="line"/>
      <point x="659.373" y="226" type="line" smooth="yes"/>
      <point x="633.974" y="54"/>
      <point x="537.785" y="-15"/>
      <point x="345.785" y="-15" type="curve" smooth="yes"/>
      <point x="308.081" y="-15"/>
      <point x="274.857" y="-12.3389"/>
      <point x="246.002" y="-6.75977" type="curve"/>
      <point x="227.36" y="-133" type="line"/>
      <point x="50.3604" y="-133" type="line"/>
      <point x="145.753" y="513" type="line"/>
      <point x="322.753" y="513" type="line"/>
    </contour>
  </outline>
</glyph>
<glyph name="paragraph" format="1">
  <advance width="757"/>
  <unicode hex="00B6"/>
  <outline>
    <contour>
      <point x="588" y="0" type="line"/>
      <point x="694.468" y="721" type="line"/>
      <point x="633.468" y="721" type="line"/>
      <point x="527" y="0" type="line"/>
      <point x="424" y="0" type="line"/>
      <point x="469.187" y="306" type="line"/>
      <point x="373.187" y="306" type="line" smooth="yes"/>
      <point x="212.187" y="306"/>
      <point x="129.645" y="431"/>
      <point x="150.318" y="571" type="curve" smooth="yes"/>
      <point x="171.139" y="712"/>
      <point x="288.825" y="825"/>
      <point x="449.825" y="825" type="curve" smooth="yes"/>
      <point x="812.825" y="825" type="line"/>
      <point x="691" y="0" type="line"/>
    </contour>
  </outline>
</glyph>
<glyph name="periodcentered" format="1">
  <advance width="299"/>
  <unicode hex="00B7"/>
  <outline>
    <contour>
      <point x="114.56" y="339" type="curve" smooth="yes"/>
      <point x="121.647" y="387"/>
      <point x="166.554" y="427"/>
      <point x="212.554" y="427" type="curve" smooth="yes"/>
      <point x="258.554" y="427"/>
      <point x="291.647" y="387"/>
      <point x="284.56" y="339" type="curve" smooth="yes"/>
      <point x="277.471" y="291"/>
      <point x="232.564" y="251"/>
      <point x="186.564" y="251" type="curve" smooth="yes"/>
      <point x="140.564" y="251"/>
      <point x="107.471" y="291"/>
    </contour>
  </outline>
</glyph>
<glyph name="cedilla" format="1">
  <advance width="570"/>
  <unicode hex="00B8"/>
  <outline>
    <contour>
      <point x="102.316" y="-157" type="line"/>
      <point x="102.316" y="-157"/>
      <point x="131.376" y="-204"/>
      <point x="177.376" y="-204" type="curve" smooth="yes"/>
      <point x="273.082" y="-204"/>
      <point x="273.78" y="-120"/>
      <point x="177.78" y="-120" type="curve" smooth="yes"/>
      <point x="141.78" y="-120"/>
      <point x="125.451" y="-129"/>
      <point x="125.451" y="-129" type="curve"/>
      <point x="186.339" y="26" type="line"/>
      <point x="253.091" y="4" type="line"/>
      <point x="221.197" y="-63" type="line"/>
      <point x="276.197" y="-63"/>
      <point x="345.324" y="-96"/>
      <point x="335.135" y="-165" type="curve" smooth="yes"/>
      <point x="325.832" y="-228"/>
      <point x="275.086" y="-294"/>
      <point x="164.086" y="-294" type="curve" smooth="yes"/>
      <point x="74.0859" y="-294"/>
      <point x="22.3418" y="-211"/>
      <point x="22.3418" y="-211" type="curve"/>
    </contour>
  </outline>
</glyph>
<glyph name="uni00B9" format="1">
  <advance width="247"/>
  <unicode hex="00B9"/>
  <outline>
    <contour>
      <point x="165.424" y="697" type="line"/>
      <point x="175.908" y="768" type="line"/>
      <point x="272.325" y="825" type="line"/>
      <point x="306.325" y="825" type="line"/>
      <point x="260.253" y="513" type="line"/>
      <point x="189.253" y="513" type="line"/>
      <point x="221.297" y="730" type="line"/>
    </contour>
  </outline>
</glyph>
<glyph name="ordmasculine" format="1">
  <advance width="500"/>
  <unicode hex="00BA"/>
  <outline>
    <contour>
      <point x="275.585" y="671" type="curve" smooth="yes"/>
      <point x="269.235" y="628"/>
      <point x="293.657" y="597"/>
      <point x="338.657" y="597" type="curve" smooth="yes"/>
      <point x="381.657" y="597"/>
      <point x="417.235" y="628"/>
      <point x="423.585" y="671" type="curve" smooth="yes"/>
      <point x="430.082" y="715"/>
      <point x="401.66" y="746"/>
      <point x="360.66" y="746" type="curve" smooth="yes"/>
      <point x="319.66" y="746"/>
      <point x="282.082" y="715"/>
    </contour>
    <contour>
      <point x="158.585" y="671" type="curve" smooth="yes"/>
      <point x="173.204" y="770"/>
      <point x="268.54" y="840"/>
      <point x="375.54" y="840" type="curve" smooth="yes"/>
      <point x="480.54" y="840"/>
      <point x="554.204" y="770"/>
      <point x="539.585" y="671" type="curve" smooth="yes"/>
      <point x="525.261" y="574"/>
      <point x="434.924" y="504"/>
      <point x="325.924" y="504" type="curve" smooth="yes"/>
      <point x="210.924" y="504"/>
      <point x="144.261" y="574"/>
    </contour>
  </outline>
</glyph>
<glyph name="guillemotright" format="1">
  <advance width="649"/>
  <unicode hex="00BB"/>
  <outline>
    <contour>
      <point x="320.414" y="101" type="line"/>
      <point x="484.552" y="278" type="line"/>
      <point x="372.688" y="455" type="line"/>
      <point x="476.468" y="528" type="line"/>
      <point x="634.552" y="278" type="line"/>
      <point x="402.635" y="28" type="line"/>
    </contour>
    <contour>
      <point x="226.468" y="528" type="line"/>
      <point x="384.552" y="278" type="line"/>
      <point x="152.635" y="28" type="line"/>
      <point x="70.4141" y="101" type="line"/>
      <point x="234.552" y="278" type="line"/>
      <point x="122.688" y="455" type="line"/>
    </contour>
  </outline>
</glyph>
<glyph name="onequarter" format="1">
  <advance width="819"/>
  <unicode hex="00BC"/>
  <outline>
    <contour>
      <point x="660.321" y="334" type="line"/>
      <point x="659.321" y="334" type="line"/>
      <point x="554.091" y="197" type="line"/>
      <point x="640.091" y="197" type="line"/>
    </contour>
    <contour>
      <point x="743.091" y="197" type="line"/>
      <point x="798.091" y="197" type="line"/>
      <point x="783.914" y="101" type="line"/>
      <point x="728.914" y="101" type="line"/>
      <point x="714" y="0" type="line"/>
      <point x="611" y="0" type="line"/>
      <point x="625.914" y="101" type="line"/>
      <point x="389.914" y="101" type="line"/>
      <point x="394.787" y="134" type="line"/>
      <point x="676.88" y="480" type="line"/>
      <point x="784.88" y="480" type="line"/>
    </contour>
    <contour>
      <point x="811.825" y="825" type="line"/>
      <point x="210" y="0" type="line"/>
      <point x="92" y="0" type="line"/>
      <point x="693.825" y="825" type="line"/>
    </contour>
    <contour>
      <point x="143.735" y="628" type="line"/>
      <point x="159.831" y="737" type="line"/>
      <point x="308.825" y="825" type="line"/>
      <point x="360.825" y="825" type="line"/>
      <point x="289.945" y="345" type="line"/>
      <point x="180.945" y="345" type="line"/>
      <point x="230.414" y="680" type="line"/>
    </contour>
  </outline>
</glyph>
<glyph name="onehalf" format="1">
  <advance width="888"/>
  <unicode hex="00BD"/>
  <outline>
    <contour>
      <point x="701.738" y="391" type="curve" smooth="yes"/>
      <point x="650.738" y="391"/>
      <point x="604.448" y="301"/>
      <point x="604.448" y="301" type="curve"/>
      <point x="520.798" y="344" type="line"/>
      <point x="520.798" y="344"/>
      <point x="587.176" y="482"/>
      <point x="715.176" y="482" type="curve" smooth="yes"/>
      <point x="878.176" y="482"/>
      <point x="883.375" y="375"/>
      <point x="874.663" y="316" type="curve" smooth="yes"/>
      <point x="858.271" y="205"/>
      <point x="675.028" y="95"/>
      <point x="675.028" y="95" type="curve"/>
      <point x="851.028" y="95" type="line"/>
      <point x="837" y="0" type="line"/>
      <point x="468" y="0" type="line"/>
      <point x="471.987" y="27" type="line"/>
      <point x="471.987" y="27"/>
      <point x="745.668" y="228"/>
      <point x="758.663" y="316" type="curve" smooth="yes"/>
      <point x="761.173" y="333"/>
      <point x="765.738" y="391"/>
    </contour>
    <contour>
      <point x="811.825" y="825" type="line"/>
      <point x="210" y="0" type="line"/>
      <point x="92" y="0" type="line"/>
      <point x="693.825" y="825" type="line"/>
    </contour>
    <contour>
      <point x="143.735" y="628" type="line"/>
      <point x="159.831" y="737" type="line"/>
      <point x="308.825" y="825" type="line"/>
      <point x="360.825" y="825" type="line"/>
      <point x="289.945" y="345" type="line"/>
      <point x="180.945" y="345" type="line"/>
      <point x="230.414" y="680" type="line"/>
    </contour>
  </outline>
</glyph>
<glyph name="threequarters" format="1">
  <advance width="920"/>
  <unicode hex="00BE"/>
  <outline>
    <contour>
      <point x="177.335" y="722.81" type="line"/>
      <point x="177.335" y="722.81"/>
      <point x="216.164" y="825.074"/>
      <point x="346.68" y="825.074" type="curve" smooth="yes"/>
      <point x="435.385" y="825.074"/>
      <point x="491.452" y="768.574"/>
      <point x="479.771" y="689.475" type="curve" smooth="yes"/>
      <point x="474.099" y="651.055"/>
      <point x="453.939" y="621.675"/>
      <point x="425.596" y="601.899" type="curve"/>
      <point x="458.502" y="579.864"/>
      <point x="476.41" y="544.27"/>
      <point x="469.151" y="495.114" type="curve" smooth="yes"/>
      <point x="455.969" y="405.845"/>
      <point x="373.656" y="342"/>
      <point x="273.65" y="342" type="curve" smooth="yes"/>
      <point x="130.141" y="342"/>
      <point x="115.438" y="456.694"/>
      <point x="115.438" y="456.694" type="curve"/>
      <point x="220.839" y="504.72" type="line"/>
      <point x="220.839" y="504.72"/>
      <point x="216.541" y="433.529"/>
      <point x="286.602" y="433.529" type="curve" smooth="yes"/>
      <point x="385.207" y="433.529"/>
      <point x="430.823" y="564.609"/>
      <point x="284.951" y="560.09" type="curve"/>
      <point x="295.213" y="629.585" type="line"/>
      <point x="412.168" y="629.585"/>
      <point x="401.902" y="739.76"/>
      <point x="332.953" y="739.76" type="curve" smooth="yes"/>
      <point x="274.191" y="739.76"/>
      <point x="254.947" y="682.13"/>
      <point x="254.947" y="682.13" type="curve"/>
    </contour>
    <contour>
      <point x="758.47" y="334" type="line"/>
      <point x="757.47" y="334" type="line"/>
      <point x="652.239" y="197" type="line"/>
      <point x="738.239" y="197" type="line"/>
    </contour>
    <contour>
      <point x="841.239" y="197" type="line"/>
      <point x="896.239" y="197" type="line"/>
      <point x="882.062" y="101" type="line"/>
      <point x="827.062" y="101" type="line"/>
      <point x="812.148" y="0" type="line"/>
      <point x="709.148" y="0" type="line"/>
      <point x="724.062" y="101" type="line"/>
      <point x="488.062" y="101" type="line"/>
      <point x="492.936" y="134" type="line"/>
      <point x="775.028" y="480" type="line"/>
      <point x="883.028" y="480" type="line"/>
    </contour>
    <contour>
      <point x="916.974" y="825" type="line"/>
      <point x="315.148" y="0" type="line"/>
      <point x="197.148" y="0" type="line"/>
      <point x="798.974" y="825" type="line"/>
    </contour>
  </outline>
</glyph>
<glyph name="questiondown" format="1">
  <advance width="672"/>
  <unicode hex="00BF"/>
  <outline>
    <contour>
      <point x="294.463" y="423" type="curve"/>
      <point x="335.45" y="450"/>
      <point x="334.676" y="462.353"/>
      <point x="348.955" y="555" type="curve"/>
      <point x="513.955" y="555" type="line"/>
      <point x="491.51" y="403"/>
      <point x="482.898" y="365"/>
      <point x="434.764" y="337" type="curve" smooth="yes"/>
      <point x="368.005" y="298"/>
      <point x="310.562" y="295"/>
      <point x="300.077" y="224" type="curve" smooth="yes"/>
      <point x="292.989" y="176"/>
      <point x="323.969" y="142"/>
      <point x="368.969" y="142" type="curve" smooth="yes"/>
      <point x="440.969" y="142"/>
      <point x="484.829" y="202"/>
      <point x="502.179" y="245" type="curve"/>
      <point x="638.694" y="174" type="line"/>
      <point x="637.956" y="169"/>
      <point x="567.785" y="-15"/>
      <point x="344.785" y="-15" type="curve" smooth="yes"/>
      <point x="194.785" y="-15"/>
      <point x="75.2568" y="83"/>
      <point x="96.0771" y="224" type="curve" smooth="yes"/>
      <point x="110.549" y="322"/>
      <point x="192.409" y="382"/>
    </contour>
    <contour>
      <point x="534.924" y="697" type="curve" smooth="yes"/>
      <point x="527.836" y="649"/>
      <point x="482.93" y="609"/>
      <point x="436.93" y="609" type="curve" smooth="yes"/>
      <point x="390.93" y="609"/>
      <point x="357.836" y="649"/>
      <point x="364.924" y="697" type="curve" smooth="yes"/>
      <point x="372.012" y="745"/>
      <point x="416.919" y="785"/>
      <point x="462.919" y="785" type="curve" smooth="yes"/>
      <point x="508.919" y="785"/>
      <point x="542.012" y="745"/>
    </contour>
  </outline>
</glyph>
<glyph name="Agrave" format="1">
  <advance width="930"/>
  <unicode hex="00C0"/>
  <outline>
    <contour>
      <point x="490.112" y="1152" type="line"/>
      <point x="667.123" y="976" type="line"/>
      <point x="599.753" y="899" type="line"/>
      <point x="382.131" y="1037" type="line"/>
    </contour>
    <contour>
      <point x="672.825" y="825" type="line"/>
      <point x="885" y="0" type="line"/>
      <point x="683" y="0" type="line"/>
      <point x="645.365" y="165" type="line"/>
      <point x="331.365" y="165" type="line"/>
      <point x="247" y="0" type="line"/>
      <point x="45" y="0" type="line"/>
      <point x="498.825" y="825" type="line"/>
    </contour>
    <contour>
      <point x="605.73" y="330" type="line"/>
      <point x="547.17" y="570" type="line"/>
      <point x="419.73" y="330" type="line"/>
    </contour>
  </outline>
</glyph>
<glyph name="Acircumflex" format="1">
  <advance width="930"/>
  <unicode hex="00C2"/>
  <outline>
    <contour>
      <point x="390.19" y="990" type="line"/>
      <point x="635.112" y="1152" type="line"/>
      <point x="832.19" y="990" type="line"/>
      <point x="750.753" y="899" type="line"/>
      <point x="614.291" y="1011" type="line"/>
      <point x="444.753" y="899" type="line"/>
    </contour>
    <contour>
      <point x="672.825" y="825" type="line"/>
      <point x="885" y="0" type="line"/>
      <point x="683" y="0" type="line"/>
      <point x="645.365" y="165" type="line"/>
      <point x="331.365" y="165" type="line"/>
      <point x="247" y="0" type="line"/>
      <point x="45" y="0" type="line"/>
      <point x="498.825" y="825" type="line"/>
    </contour>
    <contour>
      <point x="605.73" y="330" type="line"/>
      <point x="547.17" y="570" type="line"/>
      <point x="419.73" y="330" type="line"/>
    </contour>
  </outline>
</glyph>
<glyph name="Atilde" format="1">
  <advance width="930"/>
  <unicode hex="00C3"/>
  <outline>
    <contour>
      <point x="523.68" y="973" type="curve" smooth="yes"/>
      <point x="491.68" y="973"/>
      <point x="471.888" y="927"/>
      <point x="471.888" y="927" type="curve"/>
      <point x="370.888" y="927" type="line"/>
      <point x="370.888" y="927"/>
      <point x="422.286" y="1099"/>
      <point x="532.286" y="1099" type="curve" smooth="yes"/>
      <point x="571.286" y="1099"/>
      <point x="664.493" y="1053"/>
      <point x="705.493" y="1053" type="curve" smooth="yes"/>
      <point x="737.493" y="1053"/>
      <point x="757.286" y="1099"/>
      <point x="757.286" y="1099" type="curve"/>
      <point x="858.286" y="1099" type="line"/>
      <point x="858.286" y="1099"/>
      <point x="806.888" y="927"/>
      <point x="696.888" y="927" type="curve" smooth="yes"/>
      <point x="657.888" y="927"/>
      <point x="587.883" y="973"/>
    </contour>
    <contour>
      <point x="672.825" y="825" type="line"/>
      <point x="885" y="0" type="line"/>
      <point x="683" y="0" type="line"/>
      <point x="645.365" y="165" type="line"/>
      <point x="331.365" y="165" type="line"/>
      <point x="247" y="0" type="line"/>
      <point x="45" y="0" type="line"/>
      <point x="498.825" y="825" type="line"/>
    </contour>
    <contour>
      <point x="605.73" y="330" type="line"/>
      <point x="547.17" y="570" type="line"/>
      <point x="419.73" y="330" type="line"/>
    </contour>
  </outline>
</glyph>
<glyph name="Adieresis" format="1">
  <advance width="930"/>
  <unicode hex="00C4"/>
  <outline>
    <contour>
      <point x="745.877" y="1103" type="curve" smooth="yes"/>
      <point x="796.877" y="1103"/>
      <point x="831.822" y="1062"/>
      <point x="824.291" y="1011" type="curve" smooth="yes"/>
      <point x="816.761" y="960"/>
      <point x="769.706" y="919"/>
      <point x="718.706" y="919" type="curve" smooth="yes"/>
      <point x="667.706" y="919"/>
      <point x="632.761" y="960"/>
      <point x="640.291" y="1011" type="curve" smooth="yes"/>
      <point x="647.822" y="1062"/>
      <point x="694.877" y="1103"/>
    </contour>
    <contour>
      <point x="508.877" y="1103" type="curve" smooth="yes"/>
      <point x="559.877" y="1103"/>
      <point x="594.822" y="1062"/>
      <point x="587.291" y="1011" type="curve" smooth="yes"/>
      <point x="579.761" y="960"/>
      <point x="532.706" y="919"/>
      <point x="481.706" y="919" type="curve" smooth="yes"/>
      <point x="430.706" y="919"/>
      <point x="395.761" y="960"/>
      <point x="403.291" y="1011" type="curve" smooth="yes"/>
      <point x="410.822" y="1062"/>
      <point x="457.877" y="1103"/>
    </contour>
    <contour>
      <point x="672.825" y="825" type="line"/>
      <point x="885" y="0" type="line"/>
      <point x="683" y="0" type="line"/>
      <point x="645.365" y="165" type="line"/>
      <point x="331.365" y="165" type="line"/>
      <point x="247" y="0" type="line"/>
      <point x="45" y="0" type="line"/>
      <point x="498.825" y="825" type="line"/>
    </contour>
    <contour>
      <point x="605.73" y="330" type="line"/>
      <point x="547.17" y="570" type="line"/>
      <point x="419.73" y="330" type="line"/>
    </contour>
  </outline>
</glyph>
<glyph name="Aring" format="1">
  <advance width="930"/>
  <unicode hex="00C5"/>
  <outline>
    <contour>
      <point x="558.312" y="1045" type="curve" smooth="yes"/>
      <point x="553.144" y="1010"/>
      <point x="573.861" y="981"/>
      <point x="609.861" y="981" type="curve" smooth="yes"/>
      <point x="644.861" y="981"/>
      <point x="675.144" y="1010"/>
      <point x="680.312" y="1045" type="curve" smooth="yes"/>
      <point x="685.333" y="1079"/>
      <point x="662.468" y="1107"/>
      <point x="628.468" y="1107" type="curve" smooth="yes"/>
      <point x="595.468" y="1107"/>
      <point x="563.333" y="1079"/>
    </contour>
    <contour>
      <point x="458.312" y="1045" type="curve" smooth="yes"/>
      <point x="470.568" y="1128"/>
      <point x="550.281" y="1187"/>
      <point x="640.281" y="1187" type="curve" smooth="yes"/>
      <point x="731.281" y="1187"/>
      <point x="792.568" y="1128"/>
      <point x="780.312" y="1045" type="curve" smooth="yes"/>
      <point x="767.908" y="961"/>
      <point x="692.195" y="902"/>
      <point x="598.195" y="902" type="curve" smooth="yes"/>
      <point x="502.195" y="902"/>
      <point x="445.908" y="961"/>
    </contour>
    <contour>
      <point x="672.825" y="825" type="line"/>
      <point x="885" y="0" type="line"/>
      <point x="683" y="0" type="line"/>
      <point x="645.365" y="165" type="line"/>
      <point x="331.365" y="165" type="line"/>
      <point x="247" y="0" type="line"/>
      <point x="45" y="0" type="line"/>
      <point x="498.825" y="825" type="line"/>
    </contour>
    <contour>
      <point x="605.73" y="330" type="line"/>
      <point x="547.17" y="570" type="line"/>
      <point x="419.73" y="330" type="line"/>
    </contour>
  </outline>
</glyph>
<glyph name="AE" format="1">
  <advance width="1282"/>
  <unicode hex="00C6"/>
  <outline>
    <contour>
      <point x="730.394" y="635" type="line"/>
      <point x="526.605" y="330" type="line"/>
      <point x="685.355" y="330" type="line"/>
    </contour>
    <contour>
      <point x="419.74" y="165" type="line"/>
      <point x="307.875" y="0" type="line"/>
      <point x="55.375" y="0" type="line"/>
      <point x="648.45" y="825" type="line"/>
      <point x="1348.45" y="825" type="line"/>
      <point x="1324.08" y="660" type="line"/>
      <point x="969.085" y="660" type="line"/>
      <point x="944.868" y="496" type="line"/>
      <point x="1284.87" y="496" type="line"/>
      <point x="1260.5" y="331" type="line"/>
      <point x="920.503" y="331" type="line"/>
      <point x="895.99" y="165" type="line"/>
      <point x="1250.99" y="165" type="line"/>
      <point x="1226.62" y="0" type="line"/>
      <point x="636.625" y="0" type="line"/>
      <point x="660.99" y="165" type="line"/>
    </contour>
  </outline>
</glyph>
<glyph name="Ccedilla" format="1">
  <advance width="798"/>
  <unicode hex="00C7"/>
  <outline>
    <contour>
      <point x="498.785" y="-15" type="curve" smooth="yes"/>
      <point x="478.785" y="-15"/>
      <point x="458.933" y="-14"/>
      <point x="439.376" y="-11" type="curve"/>
      <point x="414.697" y="-63" type="line"/>
      <point x="469.697" y="-63"/>
      <point x="538.824" y="-96"/>
      <point x="528.635" y="-165" type="curve" smooth="yes"/>
      <point x="519.332" y="-228"/>
      <point x="468.586" y="-294"/>
      <point x="357.586" y="-294" type="curve" smooth="yes"/>
      <point x="267.586" y="-294"/>
      <point x="215.842" y="-211"/>
      <point x="215.842" y="-211" type="curve"/>
      <point x="295.816" y="-157" type="line"/>
      <point x="295.816" y="-157"/>
      <point x="324.876" y="-204"/>
      <point x="370.876" y="-204" type="curve" smooth="yes"/>
      <point x="466.582" y="-204"/>
      <point x="467.28" y="-120"/>
      <point x="371.28" y="-120" type="curve" smooth="yes"/>
      <point x="335.28" y="-120"/>
      <point x="318.951" y="-129"/>
      <point x="318.951" y="-129" type="curve"/>
      <point x="369.738" y="5" type="line"/>
      <point x="201.86" y="60"/>
      <point x="86.4863" y="220"/>
      <point x="114.691" y="411" type="curve" smooth="yes"/>
      <point x="149.688" y="648"/>
      <point x="391.04" y="840"/>
      <point x="625.04" y="840" type="curve" smooth="yes"/>
      <point x="804.04" y="840"/>
      <point x="857.134" y="800"/>
      <point x="857.134" y="800" type="curve"/>
      <point x="789.815" y="615" type="line"/>
      <point x="789.815" y="615"/>
      <point x="722.722" y="655"/>
      <point x="626.722" y="655" type="curve" smooth="yes"/>
      <point x="437.722" y="655"/>
      <point x="335.229" y="523"/>
      <point x="318.986" y="413" type="curve" smooth="yes"/>
      <point x="302.596" y="302"/>
      <point x="366.104" y="170"/>
      <point x="555.104" y="170" type="curve" smooth="yes"/>
      <point x="651.104" y="170"/>
      <point x="730.01" y="210"/>
      <point x="730.01" y="210" type="curve"/>
      <point x="742.691" y="25" type="line"/>
      <point x="742.691" y="25"/>
      <point x="677.785" y="-15"/>
    </contour>
  </outline>
</glyph>
<glyph name="Egrave" format="1">
  <advance width="613"/>
  <unicode hex="00C8"/>
  <outline>
    <contour>
      <point x="667.325" y="825" type="line"/>
      <point x="642.96" y="660" type="line"/>
      <point x="358.96" y="660" type="line"/>
      <point x="334.743" y="496" type="line"/>
      <point x="606.743" y="496" type="line"/>
      <point x="582.378" y="331" type="line"/>
      <point x="310.378" y="331" type="line"/>
      <point x="285.865" y="165" type="line"/>
      <point x="569.865" y="165" type="line"/>
      <point x="545.5" y="0" type="line"/>
      <point x="73.5" y="0" type="line"/>
      <point x="195.325" y="825" type="line"/>
    </contour>
    <contour>
      <point x="328.612" y="1152" type="line"/>
      <point x="505.623" y="976" type="line"/>
      <point x="438.253" y="899" type="line"/>
      <point x="220.631" y="1037" type="line"/>
    </contour>
  </outline>
</glyph>
<glyph name="Eacute" format="1">
  <advance width="612"/>
  <unicode hex="00C9"/>
  <outline>
    <contour>
      <point x="663.825" y="825" type="line"/>
      <point x="639.46" y="660" type="line"/>
      <point x="355.46" y="660" type="line"/>
      <point x="331.243" y="496" type="line"/>
      <point x="603.243" y="496" type="line"/>
      <point x="578.878" y="331" type="line"/>
      <point x="306.878" y="331" type="line"/>
      <point x="282.365" y="165" type="line"/>
      <point x="566.365" y="165" type="line"/>
      <point x="542" y="0" type="line"/>
      <point x="70" y="0" type="line"/>
      <point x="191.825" y="825" type="line"/>
    </contour>
    <contour>
      <point x="326.123" y="976" type="line"/>
      <point x="555.112" y="1152" type="line"/>
      <point x="629.131" y="1037" type="line"/>
      <point x="370.753" y="899" type="line"/>
    </contour>
  </outline>
</glyph>
<glyph name="Ecircumflex" format="1">
  <advance width="612"/>
  <unicode hex="00CA"/>
  <outline>
    <contour>
      <point x="663.825" y="825" type="line"/>
      <point x="639.46" y="660" type="line"/>
      <point x="355.46" y="660" type="line"/>
      <point x="331.243" y="496" type="line"/>
      <point x="603.243" y="496" type="line"/>
      <point x="578.878" y="331" type="line"/>
      <point x="306.878" y="331" type="line"/>
      <point x="282.365" y="165" type="line"/>
      <point x="566.365" y="165" type="line"/>
      <point x="542" y="0" type="line"/>
      <point x="70" y="0" type="line"/>
      <point x="191.825" y="825" type="line"/>
    </contour>
    <contour>
      <point x="225.19" y="990" type="line"/>
      <point x="470.112" y="1152" type="line"/>
      <point x="667.19" y="990" type="line"/>
      <point x="585.753" y="899" type="line"/>
      <point x="449.291" y="1011" type="line"/>
      <point x="279.753" y="899" type="line"/>
    </contour>
  </outline>
</glyph>
<glyph name="Edieresis" format="1">
  <advance width="612"/>
  <unicode hex="00CB"/>
  <outline>
    <contour>
      <point x="663.825" y="825" type="line"/>
      <point x="639.46" y="660" type="line"/>
      <point x="355.46" y="660" type="line"/>
      <point x="331.243" y="496" type="line"/>
      <point x="603.243" y="496" type="line"/>
      <point x="578.878" y="331" type="line"/>
      <point x="306.878" y="331" type="line"/>
      <point x="282.365" y="165" type="line"/>
      <point x="566.365" y="165" type="line"/>
      <point x="542" y="0" type="line"/>
      <point x="70" y="0" type="line"/>
      <point x="191.825" y="825" type="line"/>
    </contour>
    <contour>
      <point x="580.877" y="1103" type="curve" smooth="yes"/>
      <point x="631.877" y="1103"/>
      <point x="666.822" y="1062"/>
      <point x="659.291" y="1011" type="curve" smooth="yes"/>
      <point x="651.761" y="960"/>
      <point x="604.706" y="919"/>
      <point x="553.706" y="919" type="curve" smooth="yes"/>
      <point x="502.706" y="919"/>
      <point x="467.761" y="960"/>
      <point x="475.291" y="1011" type="curve" smooth="yes"/>
      <point x="482.822" y="1062"/>
      <point x="529.877" y="1103"/>
    </contour>
    <contour>
      <point x="343.877" y="1103" type="curve" smooth="yes"/>
      <point x="394.877" y="1103"/>
      <point x="429.822" y="1062"/>
      <point x="422.291" y="1011" type="curve" smooth="yes"/>
      <point x="414.761" y="960"/>
      <point x="367.706" y="919"/>
      <point x="316.706" y="919" type="curve" smooth="yes"/>
      <point x="265.706" y="919"/>
      <point x="230.761" y="960"/>
      <point x="238.291" y="1011" type="curve" smooth="yes"/>
      <point x="245.822" y="1062"/>
      <point x="292.877" y="1103"/>
    </contour>
  </outline>
</glyph>
<glyph name="Igrave" format="1">
  <advance width="444"/>
  <unicode hex="00CC"/>
  <outline>
    <contour>
      <point x="508.825" y="825" type="line"/>
      <point x="387" y="0" type="line"/>
      <point x="199" y="0" type="line"/>
      <point x="320.825" y="825" type="line"/>
    </contour>
    <contour>
      <point x="318.112" y="1152" type="line"/>
      <point x="495.123" y="976" type="line"/>
      <point x="427.753" y="899" type="line"/>
      <point x="210.131" y="1037" type="line"/>
    </contour>
  </outline>
</glyph>
<glyph name="Iacute" format="1">
  <advance width="402"/>
  <unicode hex="00CD"/>
  <outline>
    <contour>
      <point x="367.825" y="825" type="line"/>
      <point x="246" y="0" type="line"/>
      <point x="58" y="0" type="line"/>
      <point x="179.825" y="825" type="line"/>
    </contour>
    <contour>
      <point x="198.123" y="976" type="line"/>
      <point x="427.112" y="1152" type="line"/>
      <point x="501.131" y="1037" type="line"/>
      <point x="242.753" y="899" type="line"/>
    </contour>
  </outline>
</glyph>
<glyph name="Icircumflex" format="1">
  <advance width="518"/>
  <unicode hex="00CE"/>
  <outline>
    <contour>
      <point x="474.825" y="825" type="line"/>
      <point x="353" y="0" type="line"/>
      <point x="165" y="0" type="line"/>
      <point x="286.825" y="825" type="line"/>
    </contour>
    <contour>
      <point x="184.19" y="990" type="line"/>
      <point x="429.112" y="1152" type="line"/>
      <point x="626.19" y="990" type="line"/>
      <point x="544.753" y="899" type="line"/>
      <point x="408.291" y="1011" type="line"/>
      <point x="238.753" y="899" type="line"/>
    </contour>
  </outline>
</glyph>
<glyph name="Idieresis" format="1">
  <advance width="498"/>
  <unicode hex="00CF"/>
  <outline>
    <contour>
      <point x="464.325" y="825" type="line"/>
      <point x="342.5" y="0" type="line"/>
      <point x="154.5" y="0" type="line"/>
      <point x="276.325" y="825" type="line"/>
    </contour>
    <contour>
      <point x="530.377" y="1103" type="curve" smooth="yes"/>
      <point x="581.377" y="1103"/>
      <point x="616.322" y="1062"/>
      <point x="608.791" y="1011" type="curve" smooth="yes"/>
      <point x="601.261" y="960"/>
      <point x="554.206" y="919"/>
      <point x="503.206" y="919" type="curve" smooth="yes"/>
      <point x="452.206" y="919"/>
      <point x="417.261" y="960"/>
      <point x="424.791" y="1011" type="curve" smooth="yes"/>
      <point x="432.322" y="1062"/>
      <point x="479.377" y="1103"/>
    </contour>
    <contour>
      <point x="293.377" y="1103" type="curve" smooth="yes"/>
      <point x="344.377" y="1103"/>
      <point x="379.322" y="1062"/>
      <point x="371.791" y="1011" type="curve" smooth="yes"/>
      <point x="364.261" y="960"/>
      <point x="317.206" y="919"/>
      <point x="266.206" y="919" type="curve" smooth="yes"/>
      <point x="215.206" y="919"/>
      <point x="180.261" y="960"/>
      <point x="187.791" y="1011" type="curve" smooth="yes"/>
      <point x="195.322" y="1062"/>
      <point x="242.377" y="1103"/>
    </contour>
  </outline>
</glyph>
<glyph name="Eth" format="1">
  <advance width="851"/>
  <unicode hex="00D0"/>
  <outline>
    <contour>
      <point x="653.839" y="412" type="curve" smooth="yes"/>
      <point x="675.103" y="556"/>
      <point x="627.018" y="657"/>
      <point x="424.018" y="657" type="curve"/>
      <point x="399.209" y="489" type="line"/>
      <point x="509.811" y="461.194" type="line"/>
      <point x="496.576" y="371.572" type="line"/>
      <point x="376.616" y="336" type="line"/>
      <point x="351.808" y="168" type="line"/>
      <point x="554.808" y="168"/>
      <point x="632.575" y="268"/>
    </contour>
    <contour>
      <point x="211.209" y="489" type="line"/>
      <point x="260.825" y="825" type="line"/>
      <point x="499.825" y="825" type="line" smooth="yes"/>
      <point x="725.825" y="825"/>
      <point x="890.427" y="653"/>
      <point x="854.986" y="413" type="curve" smooth="yes"/>
      <point x="819.398" y="172"/>
      <point x="605" y="0"/>
      <point x="378" y="0" type="curve" smooth="yes"/>
      <point x="139" y="0" type="line"/>
      <point x="188.616" y="336" type="line"/>
      <point x="111.869" y="371.572" type="line"/>
      <point x="125.104" y="461.194" type="line"/>
    </contour>
  </outline>
</glyph>
<glyph name="Ntilde" format="1">
  <advance width="856"/>
  <unicode hex="00D1"/>
  <outline>
    <contour>
      <point x="486.68" y="973" type="curve" smooth="yes"/>
      <point x="454.68" y="973"/>
      <point x="434.888" y="927"/>
      <point x="434.888" y="927" type="curve"/>
      <point x="333.888" y="927" type="line"/>
      <point x="333.888" y="927"/>
      <point x="385.286" y="1099"/>
      <point x="495.286" y="1099" type="curve" smooth="yes"/>
      <point x="534.286" y="1099"/>
      <point x="627.493" y="1053"/>
      <point x="668.493" y="1053" type="curve" smooth="yes"/>
      <point x="700.493" y="1053"/>
      <point x="720.286" y="1099"/>
      <point x="720.286" y="1099" type="curve"/>
      <point x="821.286" y="1099" type="line"/>
      <point x="821.286" y="1099"/>
      <point x="769.888" y="927"/>
      <point x="659.888" y="927" type="curve" smooth="yes"/>
      <point x="620.888" y="927"/>
      <point x="550.883" y="973"/>
    </contour>
    <contour>
      <point x="75" y="0" type="line"/>
      <point x="196.825" y="825" type="line"/>
      <point x="650.066" y="400" type="line"/>
      <point x="714.825" y="825" type="line"/>
      <point x="902.825" y="825" type="line"/>
      <point x="781" y="0" type="line"/>
      <point x="325.611" y="424" type="line"/>
      <point x="263" y="0" type="line"/>
    </contour>
  </outline>
</glyph>
<glyph name="Ocircumflex" format="1">
  <advance width="952"/>
  <unicode hex="00D4"/>
  <outline>
    <contour>
      <point x="324.486" y="413" type="curve" smooth="yes"/>
      <point x="306.323" y="290"/>
      <point x="347.16" y="167"/>
      <point x="501.16" y="167" type="curve" smooth="yes"/>
      <point x="651.16" y="167"/>
      <point x="731.323" y="290"/>
      <point x="749.486" y="413" type="curve" smooth="yes"/>
      <point x="767.649" y="536"/>
      <point x="719.812" y="659"/>
      <point x="573.812" y="659" type="curve" smooth="yes"/>
      <point x="428.812" y="659"/>
      <point x="342.649" y="536"/>
    </contour>
    <contour>
      <point x="121.486" y="413" type="curve" smooth="yes"/>
      <point x="157.074" y="654"/>
      <point x="373.54" y="840"/>
      <point x="600.54" y="840" type="curve" smooth="yes"/>
      <point x="829.54" y="840"/>
      <point x="988.074" y="654"/>
      <point x="952.486" y="413" type="curve" smooth="yes"/>
      <point x="916.898" y="172"/>
      <point x="711.285" y="-15"/>
      <point x="474.285" y="-15" type="curve" smooth="yes"/>
      <point x="230.285" y="-15"/>
      <point x="85.8984" y="172"/>
    </contour>
    <contour>
      <point x="400.69" y="990" type="line"/>
      <point x="645.612" y="1152" type="line"/>
      <point x="842.69" y="990" type="line"/>
      <point x="761.253" y="899" type="line"/>
      <point x="624.791" y="1011" type="line"/>
      <point x="455.253" y="899" type="line"/>
    </contour>
  </outline>
</glyph>
<glyph name="Otilde" format="1">
  <advance width="952"/>
  <unicode hex="00D5"/>
  <outline>
    <contour>
      <point x="534.18" y="973" type="curve" smooth="yes"/>
      <point x="502.18" y="973"/>
      <point x="482.388" y="927"/>
      <point x="482.388" y="927" type="curve"/>
      <point x="381.388" y="927" type="line"/>
      <point x="381.388" y="927"/>
      <point x="432.786" y="1099"/>
      <point x="542.786" y="1099" type="curve" smooth="yes"/>
      <point x="581.786" y="1099"/>
      <point x="674.993" y="1053"/>
      <point x="715.993" y="1053" type="curve" smooth="yes"/>
      <point x="747.993" y="1053"/>
      <point x="767.786" y="1099"/>
      <point x="767.786" y="1099" type="curve"/>
      <point x="868.786" y="1099" type="line"/>
      <point x="868.786" y="1099"/>
      <point x="817.388" y="927"/>
      <point x="707.388" y="927" type="curve" smooth="yes"/>
      <point x="668.388" y="927"/>
      <point x="598.383" y="973"/>
    </contour>
    <contour>
      <point x="324.486" y="413" type="curve" smooth="yes"/>
      <point x="306.323" y="290"/>
      <point x="347.16" y="167"/>
      <point x="501.16" y="167" type="curve" smooth="yes"/>
      <point x="651.16" y="167"/>
      <point x="731.323" y="290"/>
      <point x="749.486" y="413" type="curve" smooth="yes"/>
      <point x="767.649" y="536"/>
      <point x="719.812" y="659"/>
      <point x="573.812" y="659" type="curve" smooth="yes"/>
      <point x="428.812" y="659"/>
      <point x="342.649" y="536"/>
    </contour>
    <contour>
      <point x="121.486" y="413" type="curve" smooth="yes"/>
      <point x="157.074" y="654"/>
      <point x="373.54" y="840"/>
      <point x="600.54" y="840" type="curve" smooth="yes"/>
      <point x="829.54" y="840"/>
      <point x="988.074" y="654"/>
      <point x="952.486" y="413" type="curve" smooth="yes"/>
      <point x="916.898" y="172"/>
      <point x="711.285" y="-15"/>
      <point x="474.285" y="-15" type="curve" smooth="yes"/>
      <point x="230.285" y="-15"/>
      <point x="85.8984" y="172"/>
    </contour>
  </outline>
</glyph>
<glyph name="Odieresis" format="1">
  <advance width="952"/>
  <unicode hex="00D6"/>
  <outline>
    <contour>
      <point x="324.486" y="413" type="curve" smooth="yes"/>
      <point x="306.323" y="290"/>
      <point x="347.16" y="167"/>
      <point x="501.16" y="167" type="curve" smooth="yes"/>
      <point x="651.16" y="167"/>
      <point x="731.323" y="290"/>
      <point x="749.486" y="413" type="curve" smooth="yes"/>
      <point x="767.649" y="536"/>
      <point x="719.812" y="659"/>
      <point x="573.812" y="659" type="curve" smooth="yes"/>
      <point x="428.812" y="659"/>
      <point x="342.649" y="536"/>
    </contour>
    <contour>
      <point x="121.486" y="413" type="curve" smooth="yes"/>
      <point x="157.074" y="654"/>
      <point x="373.54" y="840"/>
      <point x="600.54" y="840" type="curve" smooth="yes"/>
      <point x="829.54" y="840"/>
      <point x="988.074" y="654"/>
      <point x="952.486" y="413" type="curve" smooth="yes"/>
      <point x="916.898" y="172"/>
      <point x="711.285" y="-15"/>
      <point x="474.285" y="-15" type="curve" smooth="yes"/>
      <point x="230.285" y="-15"/>
      <point x="85.8984" y="172"/>
    </contour>
    <contour>
      <point x="757.377" y="1103" type="curve" smooth="yes"/>
      <point x="808.377" y="1103"/>
      <point x="843.322" y="1062"/>
      <point x="835.791" y="1011" type="curve" smooth="yes"/>
      <point x="828.261" y="960"/>
      <point x="781.206" y="919"/>
      <point x="730.206" y="919" type="curve" smooth="yes"/>
      <point x="679.206" y="919"/>
      <point x="644.261" y="960"/>
      <point x="651.791" y="1011" type="curve" smooth="yes"/>
      <point x="659.322" y="1062"/>
      <point x="706.377" y="1103"/>
    </contour>
    <contour>
      <point x="520.377" y="1103" type="curve" smooth="yes"/>
      <point x="571.377" y="1103"/>
      <point x="606.322" y="1062"/>
      <point x="598.791" y="1011" type="curve" smooth="yes"/>
      <point x="591.261" y="960"/>
      <point x="544.206" y="919"/>
      <point x="493.206" y="919" type="curve" smooth="yes"/>
      <point x="442.206" y="919"/>
      <point x="407.261" y="960"/>
      <point x="414.791" y="1011" type="curve" smooth="yes"/>
      <point x="422.322" y="1062"/>
      <point x="469.377" y="1103"/>
    </contour>
  </outline>
</glyph>
<glyph name="multiply" format="1">
  <advance width="629"/>
  <unicode hex="00D7"/>
  <outline>
    <contour>
      <point x="613.688" y="262" type="line"/>
      <point x="490.741" y="154" type="line"/>
      <point x="360.334" y="307" type="line"/>
      <point x="184.741" y="154" type="line"/>
      <point x="92.8369" y="263" type="line"/>
      <point x="267.282" y="415" type="line"/>
      <point x="137.875" y="568" type="line"/>
      <point x="261.676" y="675" type="line"/>
      <point x="391.229" y="523" type="line"/>
      <point x="566.676" y="675" type="line"/>
      <point x="658.728" y="567" type="line"/>
      <point x="483.134" y="414" type="line"/>
    </contour>
  </outline>
</glyph>
<glyph name="Oslash" format="1">
  <advance width="952"/>
  <unicode hex="00D8"/>
  <outline>
    <contour>
      <point x="749.486" y="413" type="curve" smooth="yes"/>
      <point x="755.688" y="455"/>
      <point x="754.038" y="498"/>
      <point x="742.649" y="536" type="curve"/>
      <point x="411.818" y="185" type="line"/>
      <point x="436.047" y="173"/>
      <point x="465.16" y="167"/>
      <point x="501.16" y="167" type="curve" smooth="yes"/>
      <point x="651.16" y="167"/>
      <point x="731.323" y="290"/>
    </contour>
    <contour>
      <point x="324.486" y="413" type="curve" smooth="yes"/>
      <point x="318.137" y="370"/>
      <point x="318.64" y="326"/>
      <point x="329.028" y="288" type="curve"/>
      <point x="660.007" y="640" type="line"/>
      <point x="636.779" y="652"/>
      <point x="607.812" y="659"/>
      <point x="573.812" y="659" type="curve" smooth="yes"/>
      <point x="428.812" y="659"/>
      <point x="342.649" y="536"/>
    </contour>
    <contour>
      <point x="113.212" y="59" type="line"/>
      <point x="178.401" y="128" type="line"/>
      <point x="126.477" y="203"/>
      <point x="105.096" y="302"/>
      <point x="121.486" y="413" type="curve" smooth="yes"/>
      <point x="157.074" y="654"/>
      <point x="373.54" y="840"/>
      <point x="600.54" y="840" type="curve" smooth="yes"/>
      <point x="674.54" y="840"/>
      <point x="741.587" y="820"/>
      <point x="797.419" y="785" type="curve"/>
      <point x="861.46" y="853" type="line"/>
      <point x="960.761" y="767" type="line"/>
      <point x="891.981" y="694" type="line"/>
      <point x="944.054" y="620"/>
      <point x="968.582" y="522"/>
      <point x="952.486" y="413" type="curve" smooth="yes"/>
      <point x="916.898" y="172"/>
      <point x="711.285" y="-15"/>
      <point x="474.285" y="-15" type="curve" smooth="yes"/>
      <point x="396.285" y="-15"/>
      <point x="328.091" y="4"/>
      <point x="273.111" y="38" type="curve"/>
      <point x="212.513" y="-27" type="line"/>
    </contour>
  </outline>
</glyph>
<glyph name="Uacute" format="1">
  <advance width="785"/>
  <unicode hex="00DA"/>
  <outline>
    <contour>
      <point x="648.325" y="825" type="line"/>
      <point x="836.325" y="825" type="line"/>
      <point x="757.767" y="293" type="line" smooth="yes"/>
      <point x="727.643" y="89"/>
      <point x="600.285" y="-15"/>
      <point x="390.285" y="-15" type="curve" smooth="yes"/>
      <point x="180.285" y="-15"/>
      <point x="83.6426" y="89"/>
      <point x="113.767" y="293" type="curve" smooth="yes"/>
      <point x="192.325" y="825" type="line"/>
      <point x="380.325" y="825" type="line"/>
      <point x="309.888" y="348" type="line" smooth="yes"/>
      <point x="289.51" y="210"/>
      <point x="325.604" y="170"/>
      <point x="417.604" y="170" type="curve" smooth="yes"/>
      <point x="509.604" y="170"/>
      <point x="557.51" y="210"/>
      <point x="577.888" y="348" type="curve" smooth="yes"/>
    </contour>
    <contour>
      <point x="418.623" y="976" type="line"/>
      <point x="647.612" y="1152" type="line"/>
      <point x="721.631" y="1037" type="line"/>
      <point x="463.253" y="899" type="line"/>
    </contour>
  </outline>
</glyph>
<glyph name="Udieresis" format="1">
  <advance width="785"/>
  <unicode hex="00DC"/>
  <outline>
    <contour>
      <point x="648.325" y="825" type="line"/>
      <point x="836.325" y="825" type="line"/>
      <point x="757.767" y="293" type="line" smooth="yes"/>
      <point x="727.643" y="89"/>
      <point x="600.285" y="-15"/>
      <point x="390.285" y="-15" type="curve" smooth="yes"/>
      <point x="180.285" y="-15"/>
      <point x="83.6426" y="89"/>
      <point x="113.767" y="293" type="curve" smooth="yes"/>
      <point x="192.325" y="825" type="line"/>
      <point x="380.325" y="825" type="line"/>
      <point x="309.888" y="348" type="line" smooth="yes"/>
      <point x="289.51" y="210"/>
      <point x="325.604" y="170"/>
      <point x="417.604" y="170" type="curve" smooth="yes"/>
      <point x="509.604" y="170"/>
      <point x="557.51" y="210"/>
      <point x="577.888" y="348" type="curve" smooth="yes"/>
    </contour>
    <contour>
      <point x="673.377" y="1103" type="curve" smooth="yes"/>
      <point x="724.377" y="1103"/>
      <point x="759.322" y="1062"/>
      <point x="751.791" y="1011" type="curve" smooth="yes"/>
      <point x="744.261" y="960"/>
      <point x="697.206" y="919"/>
      <point x="646.206" y="919" type="curve" smooth="yes"/>
      <point x="595.206" y="919"/>
      <point x="560.261" y="960"/>
      <point x="567.791" y="1011" type="curve" smooth="yes"/>
      <point x="575.322" y="1062"/>
      <point x="622.377" y="1103"/>
    </contour>
    <contour>
      <point x="436.377" y="1103" type="curve" smooth="yes"/>
      <point x="487.377" y="1103"/>
      <point x="522.322" y="1062"/>
      <point x="514.791" y="1011" type="curve" smooth="yes"/>
      <point x="507.261" y="960"/>
      <point x="460.206" y="919"/>
      <point x="409.206" y="919" type="curve" smooth="yes"/>
      <point x="358.206" y="919"/>
      <point x="323.261" y="960"/>
      <point x="330.791" y="1011" type="curve" smooth="yes"/>
      <point x="338.322" y="1062"/>
      <point x="385.377" y="1103"/>
    </contour>
  </outline>
</glyph>
<glyph name="Thorn" format="1">
  <advance width="718"/>
  <unicode hex="00DE"/>
  <outline>
    <contour>
      <point x="300.243" y="303" type="line"/>
      <point x="353.243" y="303" type="line" smooth="yes"/>
      <point x="427.243" y="303"/>
      <point x="496.082" y="329"/>
      <point x="508.339" y="412" type="curve" smooth="yes"/>
      <point x="520.743" y="496"/>
      <point x="459.582" y="522"/>
      <point x="385.582" y="522" type="curve" smooth="yes"/>
      <point x="332.582" y="522" type="line"/>
    </contour>
    <contour>
      <point x="377.325" y="825" type="line"/>
      <point x="354.732" y="672" type="line"/>
      <point x="467.732" y="672" type="line" smooth="yes"/>
      <point x="628.732" y="672"/>
      <point x="737.476" y="589"/>
      <point x="712.225" y="418" type="curve" smooth="yes"/>
      <point x="687.121" y="248"/>
      <point x="552.093" y="153"/>
      <point x="391.093" y="153" type="curve" smooth="yes"/>
      <point x="278.093" y="153" type="line"/>
      <point x="255.5" y="0" type="line"/>
      <point x="67.5" y="0" type="line"/>
      <point x="189.325" y="825" type="line"/>
    </contour>
  </outline>
</glyph>
<glyph name="germandbls" format="1">
  <advance width="678"/>
  <unicode hex="00DF"/>
  <outline>
    <contour>
      <point x="681.212" y="638" type="curve"/>
      <point x="666.002" y="535"/>
      <point x="612.471" y="484"/>
      <point x="544.564" y="444" type="curve"/>
      <point x="630.771" y="398"/>
      <point x="658.516" y="315"/>
      <point x="646.259" y="232" type="curve" smooth="yes"/>
      <point x="610.967" y="-7"/>
      <point x="278" y="0"/>
      <point x="278" y="0" type="curve"/>
      <point x="298.969" y="142" type="line"/>
      <point x="291.66" y="167"/>
      <point x="453.345" y="131"/>
      <point x="470.031" y="244" type="curve" smooth="yes"/>
      <point x="484.354" y="341"/>
      <point x="389.604" y="363"/>
      <point x="354.886" y="392" type="curve"/>
      <point x="372.162" y="509" type="line" smooth="yes"/>
      <point x="380.875" y="568"/>
      <point x="489.184" y="543"/>
      <point x="501.439" y="626" type="curve" smooth="yes"/>
      <point x="514.025" y="718"/>
      <point x="452.24" y="733"/>
      <point x="384.911" y="724" type="curve" smooth="yes"/>
      <point x="347.458" y="718.993"/>
      <point x="331.427" y="653"/>
      <point x="321.237" y="584" type="curve" smooth="yes"/>
      <point x="235" y="0" type="line"/>
      <point x="67" y="0" type="line"/>
      <point x="161.983" y="650" type="line" smooth="yes"/>
      <point x="210.484" y="981.903"/>
      <point x="749.001" y="929.126"/>
    </contour>
  </outline>
</glyph>
<glyph name="atilde" format="1">
  <advance width="733"/>
  <unicode hex="00E3"/>
  <outline>
    <contour>
      <point x="293.303" y="256" type="curve" smooth="yes"/>
      <point x="282.966" y="186"/>
      <point x="323.583" y="136"/>
      <point x="395.583" y="136" type="curve" smooth="yes"/>
      <point x="464.583" y="136"/>
      <point x="521.966" y="186"/>
      <point x="532.303" y="256" type="curve" smooth="yes"/>
      <point x="542.787" y="327"/>
      <point x="497.171" y="377"/>
      <point x="431.171" y="377" type="curve" smooth="yes"/>
      <point x="364.171" y="377"/>
      <point x="303.787" y="327"/>
    </contour>
    <contour>
      <point x="734.541" y="454" type="curve" smooth="yes"/>
      <point x="667.5" y="0" type="line"/>
      <point x="492.5" y="0" type="line"/>
      <point x="501.064" y="58" type="line"/>
      <point x="456.862" y="16"/>
      <point x="390.285" y="-15"/>
      <point x="320.285" y="-15" type="curve" smooth="yes"/>
      <point x="170.285" y="-15"/>
      <point x="83.1523" y="106"/>
      <point x="105.303" y="256" type="curve" smooth="yes"/>
      <point x="127.453" y="406"/>
      <point x="250.468" y="528"/>
      <point x="400.468" y="528" type="curve" smooth="yes"/>
      <point x="469.468" y="528"/>
      <point x="746.888" y="541"/>
    </contour>
    <contour>
      <point x="397.108" y="661" type="curve" smooth="yes"/>
      <point x="365.108" y="661"/>
      <point x="345.315" y="615"/>
      <point x="345.315" y="615" type="curve"/>
      <point x="244.315" y="615" type="line"/>
      <point x="244.315" y="615"/>
      <point x="295.714" y="787"/>
      <point x="405.714" y="787" type="curve" smooth="yes"/>
      <point x="444.714" y="787"/>
      <point x="537.921" y="741"/>
      <point x="578.921" y="741" type="curve" smooth="yes"/>
      <point x="610.921" y="741"/>
      <point x="630.714" y="787"/>
      <point x="630.714" y="787" type="curve"/>
      <point x="731.714" y="787" type="line"/>
      <point x="731.714" y="787"/>
      <point x="680.315" y="615"/>
      <point x="570.315" y="615" type="curve" smooth="yes"/>
      <point x="531.315" y="615"/>
      <point x="461.312" y="661"/>
    </contour>
  </outline>
</glyph>
<glyph name="adieresis" format="1">
  <advance width="733"/>
  <unicode hex="00E4"/>
  <outline>
    <contour>
      <point x="293.303" y="256" type="curve" smooth="yes"/>
      <point x="282.966" y="186"/>
      <point x="323.583" y="136"/>
      <point x="395.583" y="136" type="curve" smooth="yes"/>
      <point x="464.583" y="136"/>
      <point x="521.966" y="186"/>
      <point x="532.303" y="256" type="curve" smooth="yes"/>
      <point x="542.787" y="327"/>
      <point x="497.171" y="377"/>
      <point x="431.171" y="377" type="curve" smooth="yes"/>
      <point x="364.171" y="377"/>
      <point x="303.787" y="327"/>
    </contour>
    <contour>
      <point x="734.541" y="454" type="curve" smooth="yes"/>
      <point x="667.5" y="0" type="line"/>
      <point x="492.5" y="0" type="line"/>
      <point x="501.064" y="58" type="line"/>
      <point x="456.862" y="16"/>
      <point x="390.285" y="-15"/>
      <point x="320.285" y="-15" type="curve" smooth="yes"/>
      <point x="170.285" y="-15"/>
      <point x="83.1523" y="106"/>
      <point x="105.303" y="256" type="curve" smooth="yes"/>
      <point x="127.453" y="406"/>
      <point x="250.468" y="528"/>
      <point x="400.468" y="528" type="curve" smooth="yes"/>
      <point x="469.468" y="528"/>
      <point x="746.888" y="541"/>
    </contour>
    <contour>
      <point x="620.305" y="791" type="curve" smooth="yes"/>
      <point x="671.305" y="791"/>
      <point x="706.25" y="750"/>
      <point x="698.72" y="699" type="curve" smooth="yes"/>
      <point x="691.188" y="648"/>
      <point x="644.134" y="607"/>
      <point x="593.134" y="607" type="curve" smooth="yes"/>
      <point x="542.134" y="607"/>
      <point x="507.188" y="648"/>
      <point x="514.72" y="699" type="curve" smooth="yes"/>
      <point x="522.25" y="750"/>
      <point x="569.305" y="791"/>
    </contour>
    <contour>
      <point x="383.305" y="791" type="curve" smooth="yes"/>
      <point x="434.305" y="791"/>
      <point x="469.25" y="750"/>
      <point x="461.72" y="699" type="curve" smooth="yes"/>
      <point x="454.188" y="648"/>
      <point x="407.134" y="607"/>
      <point x="356.134" y="607" type="curve" smooth="yes"/>
      <point x="305.134" y="607"/>
      <point x="270.188" y="648"/>
      <point x="277.72" y="699" type="curve" smooth="yes"/>
      <point x="285.25" y="750"/>
      <point x="332.305" y="791"/>
    </contour>
  </outline>
</glyph>
<glyph name="aring" format="1">
  <advance width="733"/>
  <unicode hex="00E5"/>
  <outline>
    <contour>
      <point x="293.303" y="256" type="curve" smooth="yes"/>
      <point x="282.966" y="186"/>
      <point x="323.583" y="136"/>
      <point x="395.583" y="136" type="curve" smooth="yes"/>
      <point x="464.583" y="136"/>
      <point x="521.966" y="186"/>
      <point x="532.303" y="256" type="curve" smooth="yes"/>
      <point x="542.787" y="327"/>
      <point x="497.171" y="377"/>
      <point x="431.171" y="377" type="curve" smooth="yes"/>
      <point x="364.171" y="377"/>
      <point x="303.787" y="327"/>
    </contour>
    <contour>
      <point x="734.541" y="454" type="curve" smooth="yes"/>
      <point x="667.5" y="0" type="line"/>
      <point x="492.5" y="0" type="line"/>
      <point x="501.064" y="58" type="line"/>
      <point x="456.862" y="16"/>
      <point x="390.285" y="-15"/>
      <point x="320.285" y="-15" type="curve" smooth="yes"/>
      <point x="170.285" y="-15"/>
      <point x="83.1523" y="106"/>
      <point x="105.303" y="256" type="curve" smooth="yes"/>
      <point x="127.453" y="406"/>
      <point x="250.468" y="528"/>
      <point x="400.468" y="528" type="curve" smooth="yes"/>
      <point x="469.468" y="528"/>
      <point x="746.888" y="541"/>
    </contour>
    <contour>
      <point x="431.74" y="733" type="curve" smooth="yes"/>
      <point x="426.571" y="698"/>
      <point x="447.289" y="669"/>
      <point x="483.289" y="669" type="curve" smooth="yes"/>
      <point x="518.289" y="669"/>
      <point x="548.571" y="698"/>
      <point x="553.74" y="733" type="curve" smooth="yes"/>
      <point x="558.761" y="767"/>
      <point x="535.896" y="795"/>
      <point x="501.896" y="795" type="curve" smooth="yes"/>
      <point x="468.896" y="795"/>
      <point x="436.761" y="767"/>
    </contour>
    <contour>
      <point x="331.74" y="733" type="curve" smooth="yes"/>
      <point x="343.996" y="816"/>
      <point x="423.709" y="875"/>
      <point x="513.709" y="875" type="curve" smooth="yes"/>
      <point x="604.709" y="875"/>
      <point x="665.996" y="816"/>
      <point x="653.74" y="733" type="curve" smooth="yes"/>
      <point x="641.336" y="649"/>
      <point x="565.624" y="590"/>
      <point x="471.624" y="590" type="curve" smooth="yes"/>
      <point x="375.624" y="590"/>
      <point x="319.336" y="649"/>
    </contour>
  </outline>
</glyph>
<glyph name="ccedilla" format="1">
  <advance width="570"/>
  <unicode hex="00E7"/>
  <outline>
    <contour>
      <point x="517.578" y="31" type="line"/>
      <point x="517.578" y="31"/>
      <point x="452.785" y="-15"/>
      <point x="338.785" y="-15" type="curve" smooth="yes"/>
      <point x="332.785" y="-15"/>
      <point x="326.785" y="-15"/>
      <point x="320.933" y="-14" type="curve"/>
      <point x="297.697" y="-63" type="line"/>
      <point x="352.697" y="-63"/>
      <point x="421.824" y="-96"/>
      <point x="411.635" y="-165" type="curve" smooth="yes"/>
      <point x="402.332" y="-228"/>
      <point x="351.586" y="-294"/>
      <point x="240.586" y="-294" type="curve" smooth="yes"/>
      <point x="150.586" y="-294"/>
      <point x="98.8418" y="-211"/>
      <point x="98.8418" y="-211" type="curve"/>
      <point x="178.816" y="-157" type="line"/>
      <point x="178.816" y="-157"/>
      <point x="207.876" y="-204"/>
      <point x="253.876" y="-204" type="curve" smooth="yes"/>
      <point x="349.583" y="-204"/>
      <point x="350.28" y="-120"/>
      <point x="254.28" y="-120" type="curve" smooth="yes"/>
      <point x="218.28" y="-120"/>
      <point x="201.951" y="-129"/>
      <point x="201.951" y="-129" type="curve"/>
      <point x="250" y="0" type="line"/>
      <point x="147.316" y="36"/>
      <point x="77.083" y="136"/>
      <point x="94.6553" y="255" type="curve" smooth="yes"/>
      <point x="116.953" y="406"/>
      <point x="269.968" y="528"/>
      <point x="418.968" y="528" type="curve" smooth="yes"/>
      <point x="532.968" y="528"/>
      <point x="583.88" y="480"/>
      <point x="583.88" y="480" type="curve"/>
      <point x="506.013" y="359" type="line"/>
      <point x="506.013" y="359"/>
      <point x="476.557" y="383"/>
      <point x="423.557" y="383" type="curve" smooth="yes"/>
      <point x="356.557" y="383"/>
      <point x="293.287" y="327"/>
      <point x="282.95" y="257" type="curve" smooth="yes"/>
      <point x="272.466" y="186"/>
      <point x="319.196" y="130"/>
      <point x="386.196" y="130" type="curve" smooth="yes"/>
      <point x="439.196" y="130"/>
      <point x="475.741" y="154"/>
      <point x="475.741" y="154" type="curve"/>
    </contour>
  </outline>
</glyph>
<glyph name="edieresis" format="1">
  <advance width="676"/>
  <unicode hex="00EB"/>
  <outline>
    <contour>
      <point x="295.311" y="317" type="curve"/>
      <point x="490.311" y="317" type="line"/>
      <point x="490.284" y="371"/>
      <point x="459.486" y="413"/>
      <point x="407.486" y="413" type="curve" smooth="yes"/>
      <point x="346.486" y="413"/>
      <point x="305.251" y="364"/>
    </contour>
    <contour>
      <point x="505.047" y="173" type="curve"/>
      <point x="625.072" y="119" type="line"/>
      <point x="552.749" y="22"/>
      <point x="453.285" y="-15"/>
      <point x="339.285" y="-15" type="curve" smooth="yes"/>
      <point x="184.285" y="-15"/>
      <point x="75.3008" y="107"/>
      <point x="97.3027" y="256" type="curve" smooth="yes"/>
      <point x="119.453" y="406"/>
      <point x="264.468" y="528"/>
      <point x="419.468" y="528" type="curve" smooth="yes"/>
      <point x="575.468" y="528"/>
      <point x="678.225" y="418"/>
      <point x="650.021" y="227" type="curve"/>
      <point x="277.021" y="227" type="line"/>
      <point x="264.321" y="141"/>
      <point x="375.36" y="60"/>
    </contour>
    <contour>
      <point x="573.305" y="791" type="curve" smooth="yes"/>
      <point x="624.305" y="791"/>
      <point x="659.25" y="750"/>
      <point x="651.72" y="699" type="curve" smooth="yes"/>
      <point x="644.188" y="648"/>
      <point x="597.134" y="607"/>
      <point x="546.134" y="607" type="curve" smooth="yes"/>
      <point x="495.134" y="607"/>
      <point x="460.188" y="648"/>
      <point x="467.72" y="699" type="curve" smooth="yes"/>
      <point x="475.25" y="750"/>
      <point x="522.305" y="791"/>
    </contour>
    <contour>
      <point x="336.305" y="791" type="curve" smooth="yes"/>
      <point x="387.305" y="791"/>
      <point x="422.25" y="750"/>
      <point x="414.72" y="699" type="curve" smooth="yes"/>
      <point x="407.188" y="648"/>
      <point x="360.134" y="607"/>
      <point x="309.134" y="607" type="curve" smooth="yes"/>
      <point x="258.134" y="607"/>
      <point x="223.188" y="648"/>
      <point x="230.72" y="699" type="curve" smooth="yes"/>
      <point x="238.25" y="750"/>
      <point x="285.305" y="791"/>
    </contour>
  </outline>
</glyph>
<glyph name="igrave" format="1">
  <advance width="440"/>
  <unicode hex="00EC"/>
  <outline>
    <contour>
      <point x="280.753" y="513" type="line"/>
      <point x="457.753" y="513" type="line"/>
      <point x="382" y="0" type="line"/>
      <point x="205" y="0" type="line"/>
    </contour>
    <contour>
      <point x="273.04" y="840" type="line"/>
      <point x="450.051" y="664" type="line"/>
      <point x="382.681" y="587" type="line"/>
      <point x="165.059" y="725" type="line"/>
    </contour>
  </outline>
</glyph>
<glyph name="icircumflex" format="1">
  <advance width="529"/>
  <unicode hex="00EE"/>
  <outline>
    <contour>
      <point x="251.253" y="513" type="line"/>
      <point x="428.253" y="513" type="line"/>
      <point x="352.5" y="0" type="line"/>
      <point x="175.5" y="0" type="line"/>
    </contour>
    <contour>
      <point x="143.618" y="678" type="line"/>
      <point x="388.54" y="840" type="line"/>
      <point x="585.618" y="678" type="line"/>
      <point x="504.181" y="587" type="line"/>
      <point x="367.72" y="699" type="line"/>
      <point x="198.181" y="587" type="line"/>
    </contour>
  </outline>
</glyph>
<glyph name="idieresis" format="1">
  <advance width="516"/>
  <unicode hex="00EF"/>
  <outline>
    <contour>
      <point x="245.253" y="513" type="line"/>
      <point x="422.253" y="513" type="line"/>
      <point x="346.5" y="0" type="line"/>
      <point x="169.5" y="0" type="line"/>
    </contour>
    <contour>
      <point x="493.305" y="791" type="curve" smooth="yes"/>
      <point x="544.305" y="791"/>
      <point x="579.25" y="750"/>
      <point x="571.72" y="699" type="curve" smooth="yes"/>
      <point x="564.188" y="648"/>
      <point x="517.134" y="607"/>
      <point x="466.134" y="607" type="curve" smooth="yes"/>
      <point x="415.134" y="607"/>
      <point x="380.188" y="648"/>
      <point x="387.72" y="699" type="curve" smooth="yes"/>
      <point x="395.25" y="750"/>
      <point x="442.305" y="791"/>
    </contour>
    <contour>
      <point x="256.305" y="791" type="curve" smooth="yes"/>
      <point x="307.305" y="791"/>
      <point x="342.25" y="750"/>
      <point x="334.72" y="699" type="curve" smooth="yes"/>
      <point x="327.188" y="648"/>
      <point x="280.134" y="607"/>
      <point x="229.134" y="607" type="curve" smooth="yes"/>
      <point x="178.134" y="607"/>
      <point x="143.188" y="648"/>
      <point x="150.72" y="699" type="curve" smooth="yes"/>
      <point x="158.25" y="750"/>
      <point x="205.305" y="791"/>
    </contour>
  </outline>
</glyph>
<glyph name="eth" format="1">
  <advance width="736"/>
  <unicode hex="00F0"/>
  <outline>
    <contour>
      <point x="286.303" y="256" type="curve" smooth="yes"/>
      <point x="275.966" y="186"/>
      <point x="316.583" y="136"/>
      <point x="388.583" y="136" type="curve" smooth="yes"/>
      <point x="457.583" y="136"/>
      <point x="514.966" y="186"/>
      <point x="525.303" y="256" type="curve" smooth="yes"/>
      <point x="526.041" y="261" type="line" smooth="yes"/>
      <point x="533.082" y="329"/>
      <point x="488.171" y="377"/>
      <point x="424.171" y="377" type="curve" smooth="yes"/>
      <point x="357.171" y="377"/>
      <point x="296.787" y="327"/>
    </contour>
    <contour>
      <point x="98.3027" y="256" type="curve" smooth="yes"/>
      <point x="123.111" y="424"/>
      <point x="286.468" y="528"/>
      <point x="396.468" y="528" type="curve" smooth="yes"/>
      <point x="410.468" y="528"/>
      <point x="457.468" y="528"/>
      <point x="484.105" y="512" type="curve"/>
      <point x="458.046" y="559"/>
      <point x="421.657" y="597"/>
      <point x="384.087" y="627" type="curve"/>
      <point x="288.979" y="545" type="line"/>
      <point x="223.349" y="622" type="line"/>
      <point x="294.504" y="684" type="line"/>
      <point x="235.935" y="714"/>
      <point x="189.559" y="725"/>
      <point x="189.559" y="725" type="curve"/>
      <point x="253.709" y="875" type="line"/>
      <point x="253.709" y="875"/>
      <point x="335.903" y="856"/>
      <point x="431.077" y="803" type="curve"/>
      <point x="514.709" y="875" type="line"/>
      <point x="579.19" y="797" type="line"/>
      <point x="519.512" y="745" type="line"/>
      <point x="639.631" y="651"/>
      <point x="749.038" y="498"/>
      <point x="713.303" y="256" type="curve" smooth="yes"/>
      <point x="689.972" y="98"/>
      <point x="544.285" y="-15"/>
      <point x="367.285" y="-15" type="curve" smooth="yes"/>
      <point x="182.285" y="-15"/>
      <point x="74.9717" y="98"/>
    </contour>
  </outline>
</glyph>
<glyph name="ntilde" format="1">
  <advance width="692"/>
  <unicode hex="00F1"/>
  <outline>
    <contour>
      <point x="353.108" y="661" type="curve" smooth="yes"/>
      <point x="321.108" y="661"/>
      <point x="301.315" y="615"/>
      <point x="301.315" y="615" type="curve"/>
      <point x="200.315" y="615" type="line"/>
      <point x="200.315" y="615"/>
      <point x="251.714" y="787"/>
      <point x="361.714" y="787" type="curve" smooth="yes"/>
      <point x="400.714" y="787"/>
      <point x="493.921" y="741"/>
      <point x="534.921" y="741" type="curve" smooth="yes"/>
      <point x="566.921" y="741"/>
      <point x="586.714" y="787"/>
      <point x="586.714" y="787" type="curve"/>
      <point x="687.714" y="787" type="line"/>
      <point x="687.714" y="787"/>
      <point x="636.315" y="615"/>
      <point x="526.315" y="615" type="curve" smooth="yes"/>
      <point x="487.315" y="615"/>
      <point x="417.312" y="661"/>
    </contour>
    <contour>
      <point x="254.5" y="0" type="line"/>
      <point x="70.5" y="0" type="line"/>
      <point x="147.287" y="520" type="line"/>
      <point x="287.287" y="520" type="line"/>
      <point x="283.005" y="491" type="line"/>
      <point x="320.401" y="514"/>
      <point x="369.468" y="528"/>
      <point x="434.468" y="528" type="curve" smooth="yes"/>
      <point x="626.468" y="528"/>
      <point x="701.279" y="459"/>
      <point x="675.881" y="287" type="curve" smooth="yes"/>
      <point x="633.5" y="0" type="line"/>
      <point x="456.5" y="0" type="line"/>
      <point x="492.531" y="244" type="line" smooth="yes"/>
      <point x="507.445" y="345"/>
      <point x="487.204" y="384"/>
      <point x="413.204" y="384" type="curve" smooth="yes"/>
      <point x="339.204" y="384"/>
      <point x="305.445" y="345"/>
      <point x="290.531" y="244" type="curve" smooth="yes"/>
    </contour>
  </outline>
</glyph>
<glyph name="ograve" format="1">
  <advance width="735"/>
  <unicode hex="00F2"/>
  <outline>
    <contour>
      <point x="285.803" y="256" type="curve" smooth="yes"/>
      <point x="275.466" y="186"/>
      <point x="316.083" y="136"/>
      <point x="388.083" y="136" type="curve" smooth="yes"/>
      <point x="457.083" y="136"/>
      <point x="514.466" y="186"/>
      <point x="524.803" y="256" type="curve" smooth="yes"/>
      <point x="535.287" y="327"/>
      <point x="489.671" y="377"/>
      <point x="423.671" y="377" type="curve" smooth="yes"/>
      <point x="356.671" y="377"/>
      <point x="296.287" y="327"/>
    </contour>
    <contour>
      <point x="97.8027" y="256" type="curve" smooth="yes"/>
      <point x="121.43" y="416"/>
      <point x="273.968" y="528"/>
      <point x="446.968" y="528" type="curve" smooth="yes"/>
      <point x="616.968" y="528"/>
      <point x="736.43" y="416"/>
      <point x="712.803" y="256" type="curve" smooth="yes"/>
      <point x="689.472" y="98"/>
      <point x="543.785" y="-15"/>
      <point x="366.785" y="-15" type="curve" smooth="yes"/>
      <point x="181.785" y="-15"/>
      <point x="74.4717" y="98"/>
    </contour>
    <contour>
      <point x="346.04" y="840" type="line"/>
      <point x="523.051" y="664" type="line"/>
      <point x="455.681" y="587" type="line"/>
      <point x="238.059" y="725" type="line"/>
    </contour>
  </outline>
</glyph>
<glyph name="ocircumflex" format="1">
  <advance width="734"/>
  <unicode hex="00F4"/>
  <outline>
    <contour>
      <point x="285.303" y="256" type="curve" smooth="yes"/>
      <point x="274.966" y="186"/>
      <point x="315.583" y="136"/>
      <point x="387.583" y="136" type="curve" smooth="yes"/>
      <point x="456.583" y="136"/>
      <point x="513.966" y="186"/>
      <point x="524.303" y="256" type="curve" smooth="yes"/>
      <point x="534.787" y="327"/>
      <point x="489.171" y="377"/>
      <point x="423.171" y="377" type="curve" smooth="yes"/>
      <point x="356.171" y="377"/>
      <point x="295.787" y="327"/>
    </contour>
    <contour>
      <point x="97.3027" y="256" type="curve" smooth="yes"/>
      <point x="120.93" y="416"/>
      <point x="273.468" y="528"/>
      <point x="446.468" y="528" type="curve" smooth="yes"/>
      <point x="616.468" y="528"/>
      <point x="735.93" y="416"/>
      <point x="712.303" y="256" type="curve" smooth="yes"/>
      <point x="688.972" y="98"/>
      <point x="543.285" y="-15"/>
      <point x="366.285" y="-15" type="curve" smooth="yes"/>
      <point x="181.285" y="-15"/>
      <point x="73.9717" y="98"/>
    </contour>
    <contour>
      <point x="245.618" y="678" type="line"/>
      <point x="490.54" y="840" type="line"/>
      <point x="687.618" y="678" type="line"/>
      <point x="606.181" y="587" type="line"/>
      <point x="469.72" y="699" type="line"/>
      <point x="300.181" y="587" type="line"/>
    </contour>
  </outline>
</glyph>
<glyph name="otilde" format="1">
  <advance width="735"/>
  <unicode hex="00F5"/>
  <outline>
    <contour>
      <point x="379.608" y="661" type="curve" smooth="yes"/>
      <point x="347.608" y="661"/>
      <point x="327.815" y="615"/>
      <point x="327.815" y="615" type="curve"/>
      <point x="226.815" y="615" type="line"/>
      <point x="226.815" y="615"/>
      <point x="278.214" y="787"/>
      <point x="388.214" y="787" type="curve" smooth="yes"/>
      <point x="427.214" y="787"/>
      <point x="520.421" y="741"/>
      <point x="561.421" y="741" type="curve" smooth="yes"/>
      <point x="593.421" y="741"/>
      <point x="613.214" y="787"/>
      <point x="613.214" y="787" type="curve"/>
      <point x="714.214" y="787" type="line"/>
      <point x="714.214" y="787"/>
      <point x="662.815" y="615"/>
      <point x="552.815" y="615" type="curve" smooth="yes"/>
      <point x="513.815" y="615"/>
      <point x="443.812" y="661"/>
    </contour>
    <contour>
      <point x="285.803" y="256" type="curve" smooth="yes"/>
      <point x="275.466" y="186"/>
      <point x="316.083" y="136"/>
      <point x="388.083" y="136" type="curve" smooth="yes"/>
      <point x="457.083" y="136"/>
      <point x="514.466" y="186"/>
      <point x="524.803" y="256" type="curve" smooth="yes"/>
      <point x="535.287" y="327"/>
      <point x="489.671" y="377"/>
      <point x="423.671" y="377" type="curve" smooth="yes"/>
      <point x="356.671" y="377"/>
      <point x="296.287" y="327"/>
    </contour>
    <contour>
      <point x="97.8027" y="256" type="curve" smooth="yes"/>
      <point x="121.43" y="416"/>
      <point x="273.968" y="528"/>
      <point x="446.968" y="528" type="curve" smooth="yes"/>
      <point x="616.968" y="528"/>
      <point x="736.43" y="416"/>
      <point x="712.803" y="256" type="curve" smooth="yes"/>
      <point x="689.472" y="98"/>
      <point x="543.785" y="-15"/>
      <point x="366.785" y="-15" type="curve" smooth="yes"/>
      <point x="181.785" y="-15"/>
      <point x="74.4717" y="98"/>
    </contour>
  </outline>
</glyph>
<glyph name="odieresis" format="1">
  <advance width="734"/>
  <unicode hex="00F6"/>
  <outline>
    <contour>
      <point x="285.303" y="256" type="curve" smooth="yes"/>
      <point x="274.966" y="186"/>
      <point x="315.583" y="136"/>
      <point x="387.583" y="136" type="curve" smooth="yes"/>
      <point x="456.583" y="136"/>
      <point x="513.966" y="186"/>
      <point x="524.303" y="256" type="curve" smooth="yes"/>
      <point x="534.787" y="327"/>
      <point x="489.171" y="377"/>
      <point x="423.171" y="377" type="curve" smooth="yes"/>
      <point x="356.171" y="377"/>
      <point x="295.787" y="327"/>
    </contour>
    <contour>
      <point x="97.3027" y="256" type="curve" smooth="yes"/>
      <point x="120.93" y="416"/>
      <point x="273.468" y="528"/>
      <point x="446.468" y="528" type="curve" smooth="yes"/>
      <point x="616.468" y="528"/>
      <point x="735.93" y="416"/>
      <point x="712.303" y="256" type="curve" smooth="yes"/>
      <point x="688.972" y="98"/>
      <point x="543.285" y="-15"/>
      <point x="366.285" y="-15" type="curve" smooth="yes"/>
      <point x="181.285" y="-15"/>
      <point x="73.9717" y="98"/>
    </contour>
    <contour>
      <point x="602.305" y="791" type="curve" smooth="yes"/>
      <point x="653.305" y="791"/>
      <point x="688.25" y="750"/>
      <point x="680.72" y="699" type="curve" smooth="yes"/>
      <point x="673.188" y="648"/>
      <point x="626.134" y="607"/>
      <point x="575.134" y="607" type="curve" smooth="yes"/>
      <point x="524.134" y="607"/>
      <point x="489.188" y="648"/>
      <point x="496.72" y="699" type="curve" smooth="yes"/>
      <point x="504.25" y="750"/>
      <point x="551.305" y="791"/>
    </contour>
    <contour>
      <point x="365.305" y="791" type="curve" smooth="yes"/>
      <point x="416.305" y="791"/>
      <point x="451.25" y="750"/>
      <point x="443.72" y="699" type="curve" smooth="yes"/>
      <point x="436.188" y="648"/>
      <point x="389.134" y="607"/>
      <point x="338.134" y="607" type="curve" smooth="yes"/>
      <point x="287.134" y="607"/>
      <point x="252.188" y="648"/>
      <point x="259.72" y="699" type="curve" smooth="yes"/>
      <point x="267.25" y="750"/>
      <point x="314.305" y="791"/>
    </contour>
  </outline>
</glyph>
<glyph name="divide" format="1">
  <advance width="639"/>
  <unicode hex="00F7"/>
  <outline>
    <contour>
      <point x="358.018" y="271" type="curve" smooth="yes"/>
      <point x="404.018" y="271"/>
      <point x="434.702" y="235"/>
      <point x="427.909" y="189" type="curve" smooth="yes"/>
      <point x="421.412" y="145"/>
      <point x="380.096" y="109"/>
      <point x="334.096" y="109" type="curve" smooth="yes"/>
      <point x="290.096" y="109"/>
      <point x="259.412" y="145"/>
      <point x="265.909" y="189" type="curve" smooth="yes"/>
      <point x="272.702" y="235"/>
      <point x="314.018" y="271"/>
    </contour>
    <contour>
      <point x="135.505" y="491" type="line"/>
      <point x="648.505" y="491" type="line"/>
      <point x="625.911" y="338" type="line"/>
      <point x="112.911" y="338" type="line"/>
    </contour>
    <contour>
      <point x="424.32" y="720" type="curve" smooth="yes"/>
      <point x="470.32" y="720"/>
      <point x="501.004" y="684"/>
      <point x="494.212" y="638" type="curve" smooth="yes"/>
      <point x="487.714" y="594"/>
      <point x="446.398" y="558"/>
      <point x="400.398" y="558" type="curve" smooth="yes"/>
      <point x="356.398" y="558"/>
      <point x="325.714" y="594"/>
      <point x="332.212" y="638" type="curve" smooth="yes"/>
      <point x="339.004" y="684"/>
      <point x="380.32" y="720"/>
    </contour>
  </outline>
</glyph>
<glyph name="oslash" format="1">
  <advance width="775"/>
  <unicode hex="00F8"/>
  <outline>
    <contour>
      <point x="408.083" y="136" type="curve" smooth="yes"/>
      <point x="477.083" y="136"/>
      <point x="534.466" y="186"/>
      <point x="544.803" y="256" type="curve" smooth="yes"/>
      <point x="547.165" y="272"/>
      <point x="546.381" y="287"/>
      <point x="543.448" y="301" type="curve"/>
      <point x="341.889" y="155" type="line"/>
      <point x="359.116" y="143"/>
      <point x="381.083" y="136"/>
    </contour>
    <contour>
      <point x="305.803" y="256" type="curve" smooth="yes"/>
      <point x="303.292" y="239"/>
      <point x="303.077" y="224"/>
      <point x="306.01" y="210" type="curve"/>
      <point x="508.569" y="356" type="line"/>
      <point x="491.489" y="369"/>
      <point x="468.671" y="377"/>
      <point x="443.671" y="377" type="curve" smooth="yes"/>
      <point x="376.671" y="377"/>
      <point x="316.287" y="327"/>
    </contour>
    <contour>
      <point x="796.471" y="484" type="line"/>
      <point x="701.282" y="415" type="line"/>
      <point x="729.933" y="372"/>
      <point x="741.811" y="317"/>
      <point x="732.803" y="256" type="curve" smooth="yes"/>
      <point x="709.472" y="98"/>
      <point x="563.785" y="-15"/>
      <point x="386.785" y="-15" type="curve" smooth="yes"/>
      <point x="304.785" y="-15"/>
      <point x="237.033" y="7"/>
      <point x="190.793" y="46" type="curve"/>
      <point x="91.1611" y="-26" type="line"/>
      <point x="54.1348" y="28" type="line"/>
      <point x="147.028" y="95" type="line"/>
      <point x="119.525" y="139"/>
      <point x="108.647" y="194"/>
      <point x="117.803" y="256" type="curve" smooth="yes"/>
      <point x="141.43" y="416"/>
      <point x="293.968" y="528"/>
      <point x="466.968" y="528" type="curve" smooth="yes"/>
      <point x="543.968" y="528"/>
      <point x="610.572" y="505"/>
      <point x="658.665" y="465" type="curve"/>
      <point x="759.445" y="538" type="line"/>
    </contour>
  </outline>
</glyph>
<glyph name="uacute" format="1">
  <advance width="693"/>
  <unicode hex="00FA"/>
  <outline>
    <contour>
      <point x="144.253" y="513" type="line"/>
      <point x="321.253" y="513" type="line"/>
      <point x="285.223" y="269" type="line" smooth="yes"/>
      <point x="270.308" y="168"/>
      <point x="291.549" y="129"/>
      <point x="365.549" y="129" type="curve" smooth="yes"/>
      <point x="439.549" y="129"/>
      <point x="472.308" y="168"/>
      <point x="487.223" y="269" type="curve" smooth="yes"/>
      <point x="523.253" y="513" type="line"/>
      <point x="700.253" y="513" type="line"/>
      <point x="657.873" y="226" type="line" smooth="yes"/>
      <point x="632.474" y="54"/>
      <point x="536.285" y="-15"/>
      <point x="344.285" y="-15" type="curve" smooth="yes"/>
      <point x="152.285" y="-15"/>
      <point x="76.4736" y="54"/>
      <point x="101.873" y="226" type="curve" smooth="yes"/>
    </contour>
    <contour>
      <point x="385.551" y="664" type="line"/>
      <point x="614.54" y="840" type="line"/>
      <point x="688.559" y="725" type="line"/>
      <point x="430.181" y="587" type="line"/>
    </contour>
  </outline>
</glyph>
<glyph name="ucircumflex" format="1">
  <advance width="692"/>
  <unicode hex="00FB"/>
  <outline>
    <contour>
      <point x="143.753" y="513" type="line"/>
      <point x="320.753" y="513" type="line"/>
      <point x="284.723" y="269" type="line" smooth="yes"/>
      <point x="269.808" y="168"/>
      <point x="291.049" y="129"/>
      <point x="365.049" y="129" type="curve" smooth="yes"/>
      <point x="439.049" y="129"/>
      <point x="471.808" y="168"/>
      <point x="486.723" y="269" type="curve" smooth="yes"/>
      <point x="522.753" y="513" type="line"/>
      <point x="699.753" y="513" type="line"/>
      <point x="657.373" y="226" type="line" smooth="yes"/>
      <point x="631.974" y="54"/>
      <point x="535.785" y="-15"/>
      <point x="343.785" y="-15" type="curve" smooth="yes"/>
      <point x="151.785" y="-15"/>
      <point x="75.9736" y="54"/>
      <point x="101.373" y="226" type="curve" smooth="yes"/>
    </contour>
    <contour>
      <point x="225.118" y="678" type="line"/>
      <point x="470.04" y="840" type="line"/>
      <point x="667.118" y="678" type="line"/>
      <point x="585.681" y="587" type="line"/>
      <point x="449.22" y="699" type="line"/>
      <point x="279.681" y="587" type="line"/>
    </contour>
  </outline>
</glyph>
<glyph name="udieresis" format="1">
  <advance width="693"/>
  <unicode hex="00FC"/>
  <outline>
    <contour>
      <point x="144.253" y="513" type="line"/>
      <point x="321.253" y="513" type="line"/>
      <point x="285.223" y="269" type="line" smooth="yes"/>
      <point x="270.308" y="168"/>
      <point x="291.549" y="129"/>
      <point x="365.549" y="129" type="curve" smooth="yes"/>
      <point x="439.549" y="129"/>
      <point x="472.308" y="168"/>
      <point x="487.223" y="269" type="curve" smooth="yes"/>
      <point x="523.253" y="513" type="line"/>
      <point x="700.253" y="513" type="line"/>
      <point x="657.873" y="226" type="line" smooth="yes"/>
      <point x="632.474" y="54"/>
      <point x="536.285" y="-15"/>
      <point x="344.285" y="-15" type="curve" smooth="yes"/>
      <point x="152.285" y="-15"/>
      <point x="76.4736" y="54"/>
      <point x="101.873" y="226" type="curve" smooth="yes"/>
    </contour>
    <contour>
      <point x="581.305" y="791" type="curve" smooth="yes"/>
      <point x="632.305" y="791"/>
      <point x="667.25" y="750"/>
      <point x="659.72" y="699" type="curve" smooth="yes"/>
      <point x="652.188" y="648"/>
      <point x="605.134" y="607"/>
      <point x="554.134" y="607" type="curve" smooth="yes"/>
      <point x="503.134" y="607"/>
      <point x="468.188" y="648"/>
      <point x="475.72" y="699" type="curve" smooth="yes"/>
      <point x="483.25" y="750"/>
      <point x="530.305" y="791"/>
    </contour>
    <contour>
      <point x="344.305" y="791" type="curve" smooth="yes"/>
      <point x="395.305" y="791"/>
      <point x="430.25" y="750"/>
      <point x="422.72" y="699" type="curve" smooth="yes"/>
      <point x="415.188" y="648"/>
      <point x="368.134" y="607"/>
      <point x="317.134" y="607" type="curve" smooth="yes"/>
      <point x="266.134" y="607"/>
      <point x="231.188" y="648"/>
      <point x="238.72" y="699" type="curve" smooth="yes"/>
      <point x="246.25" y="750"/>
      <point x="293.305" y="791"/>
    </contour>
  </outline>
</glyph>
<glyph name="yacute" format="1">
  <advance width="767"/>
  <unicode hex="00FD"/>
  <outline>
    <contour>
      <point x="591.753" y="513" type="line"/>
      <point x="795.753" y="513" type="line"/>
      <point x="278.606" y="-260" type="line"/>
      <point x="74.6064" y="-260" type="line"/>
      <point x="301.813" y="80" type="line"/>
      <point x="122.753" y="513" type="line"/>
      <point x="326.753" y="513" type="line"/>
      <point x="430.917" y="250" type="line"/>
    </contour>
    <contour>
      <point x="384.051" y="664" type="line"/>
      <point x="613.04" y="840" type="line"/>
      <point x="687.059" y="725" type="line"/>
      <point x="428.681" y="587" type="line"/>
    </contour>
  </outline>
</glyph>
<glyph name="ydieresis" format="1">
  <advance width="766"/>
  <unicode hex="00FF"/>
  <outline>
    <contour>
      <point x="591.253" y="513" type="line"/>
      <point x="795.253" y="513" type="line"/>
      <point x="278.106" y="-260" type="line"/>
      <point x="74.1064" y="-260" type="line"/>
      <point x="301.313" y="80" type="line"/>
      <point x="122.253" y="513" type="line"/>
      <point x="326.253" y="513" type="line"/>
      <point x="430.417" y="250" type="line"/>
    </contour>
    <contour>
      <point x="618.305" y="791" type="curve" smooth="yes"/>
      <point x="669.305" y="791"/>
      <point x="704.25" y="750"/>
      <point x="696.72" y="699" type="curve" smooth="yes"/>
      <point x="689.188" y="648"/>
      <point x="642.134" y="607"/>
      <point x="591.134" y="607" type="curve" smooth="yes"/>
      <point x="540.134" y="607"/>
      <point x="505.188" y="648"/>
      <point x="512.72" y="699" type="curve" smooth="yes"/>
      <point x="520.25" y="750"/>
      <point x="567.305" y="791"/>
    </contour>
    <contour>
      <point x="381.305" y="791" type="curve" smooth="yes"/>
      <point x="432.305" y="791"/>
      <point x="467.25" y="750"/>
      <point x="459.72" y="699" type="curve" smooth="yes"/>
      <point x="452.188" y="648"/>
      <point x="405.134" y="607"/>
      <point x="354.134" y="607" type="curve" smooth="yes"/>
      <point x="303.134" y="607"/>
      <point x="268.188" y="648"/>
      <point x="275.72" y="699" type="curve" smooth="yes"/>
      <point x="283.25" y="750"/>
      <point x="330.305" y="791"/>
    </contour>
  </outline>
</glyph>
<glyph name="Abreve" format="1">
  <advance width="930"/>
  <unicode hex="0102"/>
  <outline>
    <contour>
      <point x="740.112" y="1152" type="curve"/>
      <point x="861.535" y="1121" type="line"/>
      <point x="833.734" y="1014"/>
      <point x="732.807" y="940"/>
      <point x="603.807" y="940" type="curve" smooth="yes"/>
      <point x="474.807" y="940"/>
      <point x="395.734" y="1014"/>
      <point x="399.535" y="1121" type="curve"/>
      <point x="530.112" y="1152" type="line"/>
      <point x="530.112" y="1152"/>
      <point x="525.903" y="1049"/>
      <point x="619.903" y="1049" type="curve" smooth="yes"/>
      <point x="713.903" y="1049"/>
      <point x="740.112" y="1152"/>
    </contour>
    <contour>
      <point x="672.825" y="825" type="line"/>
      <point x="885" y="0" type="line"/>
      <point x="683" y="0" type="line"/>
      <point x="645.365" y="165" type="line"/>
      <point x="331.365" y="165" type="line"/>
      <point x="247" y="0" type="line"/>
      <point x="45" y="0" type="line"/>
      <point x="498.825" y="825" type="line"/>
    </contour>
    <contour>
      <point x="605.73" y="330" type="line"/>
      <point x="547.17" y="570" type="line"/>
      <point x="419.73" y="330" type="line"/>
    </contour>
  </outline>
</glyph>
<glyph name="abreve" format="1">
  <advance width="733"/>
  <unicode hex="0103"/>
  <outline>
    <contour>
      <point x="293.303" y="256" type="curve" smooth="yes"/>
      <point x="282.966" y="186"/>
      <point x="323.583" y="136"/>
      <point x="395.583" y="136" type="curve" smooth="yes"/>
      <point x="464.583" y="136"/>
      <point x="521.966" y="186"/>
      <point x="532.303" y="256" type="curve" smooth="yes"/>
      <point x="542.787" y="327"/>
      <point x="497.171" y="377"/>
      <point x="431.171" y="377" type="curve" smooth="yes"/>
      <point x="364.171" y="377"/>
      <point x="303.787" y="327"/>
    </contour>
    <contour>
      <point x="734.541" y="454" type="curve" smooth="yes"/>
      <point x="667.5" y="0" type="line"/>
      <point x="492.5" y="0" type="line"/>
      <point x="501.064" y="58" type="line"/>
      <point x="456.862" y="16"/>
      <point x="390.285" y="-15"/>
      <point x="320.285" y="-15" type="curve" smooth="yes"/>
      <point x="170.285" y="-15"/>
      <point x="83.1523" y="106"/>
      <point x="105.303" y="256" type="curve" smooth="yes"/>
      <point x="127.453" y="406"/>
      <point x="250.468" y="528"/>
      <point x="400.468" y="528" type="curve" smooth="yes"/>
      <point x="469.468" y="528"/>
      <point x="746.888" y="541"/>
    </contour>
    <contour>
      <point x="613.54" y="840" type="curve"/>
      <point x="734.963" y="809" type="line"/>
      <point x="707.162" y="702"/>
      <point x="606.235" y="628"/>
      <point x="477.235" y="628" type="curve" smooth="yes"/>
      <point x="348.235" y="628"/>
      <point x="269.162" y="702"/>
      <point x="272.963" y="809" type="curve"/>
      <point x="403.54" y="840" type="line"/>
      <point x="403.54" y="840"/>
      <point x="399.331" y="737"/>
      <point x="493.331" y="737" type="curve" smooth="yes"/>
      <point x="587.331" y="737"/>
      <point x="613.54" y="840"/>
    </contour>
  </outline>
</glyph>
<glyph name="Aogonek" format="1">
  <advance width="932"/>
  <unicode hex="0104"/>
  <outline>
    <contour>
      <point x="606.73" y="330" type="line"/>
      <point x="548.17" y="570" type="line"/>
      <point x="420.73" y="330" type="line"/>
    </contour>
    <contour>
      <point x="673.825" y="825" type="line"/>
      <point x="886" y="0" type="line"/>
      <point x="766" y="0" type="line"/>
      <point x="766" y="0"/>
      <point x="696.663" y="-70"/>
      <point x="686.326" y="-140" type="curve" smooth="yes"/>
      <point x="682.635" y="-165"/>
      <point x="700.567" y="-179"/>
      <point x="717.567" y="-179" type="curve" smooth="yes"/>
      <point x="748.567" y="-179"/>
      <point x="772.998" y="-149"/>
      <point x="772.998" y="-149" type="curve"/>
      <point x="837.023" y="-203" type="line"/>
      <point x="837.023" y="-203"/>
      <point x="781.392" y="-275"/>
      <point x="689.392" y="-275" type="curve" smooth="yes"/>
      <point x="637.392" y="-275"/>
      <point x="567.821" y="-245"/>
      <point x="580.669" y="-158" type="curve" smooth="yes"/>
      <point x="589.086" y="-101"/>
      <point x="648.832" y="-35"/>
      <point x="684" y="0" type="curve"/>
      <point x="646.365" y="165" type="line"/>
      <point x="332.365" y="165" type="line"/>
      <point x="248" y="0" type="line"/>
      <point x="46" y="0" type="line"/>
      <point x="499.825" y="825" type="line"/>
    </contour>
  </outline>
</glyph>
<glyph name="aogonek" format="1">
  <advance width="735"/>
  <unicode hex="0105"/>
  <outline>
    <contour>
      <point x="492.5" y="0" type="curve"/>
      <point x="501.064" y="58" type="line"/>
      <point x="456.862" y="16"/>
      <point x="390.285" y="-15"/>
      <point x="320.285" y="-15" type="curve" smooth="yes"/>
      <point x="170.285" y="-15"/>
      <point x="83.1523" y="106"/>
      <point x="105.303" y="256" type="curve" smooth="yes"/>
      <point x="127.453" y="406"/>
      <point x="250.468" y="528"/>
      <point x="400.468" y="528" type="curve" smooth="yes"/>
      <point x="469.468" y="528"/>
      <point x="746.888" y="541"/>
      <point x="734.541" y="454" type="curve" smooth="yes"/>
      <point x="667.5" y="0" type="line"/>
      <point x="571.5" y="0" type="line"/>
      <point x="571.5" y="0"/>
      <point x="501.163" y="-70"/>
      <point x="490.826" y="-140" type="curve" smooth="yes"/>
      <point x="487.135" y="-165"/>
      <point x="505.067" y="-179"/>
      <point x="522.067" y="-179" type="curve" smooth="yes"/>
      <point x="553.067" y="-179"/>
      <point x="577.498" y="-149"/>
      <point x="577.498" y="-149" type="curve"/>
      <point x="641.523" y="-203" type="line"/>
      <point x="641.523" y="-203"/>
      <point x="585.892" y="-275"/>
      <point x="493.892" y="-275" type="curve" smooth="yes"/>
      <point x="441.892" y="-275"/>
      <point x="372.321" y="-245"/>
      <point x="385.169" y="-158" type="curve" smooth="yes"/>
      <point x="393.586" y="-101"/>
      <point x="457.332" y="-35"/>
    </contour>
    <contour>
      <point x="293.303" y="256" type="curve" smooth="yes"/>
      <point x="282.966" y="186"/>
      <point x="323.583" y="136"/>
      <point x="395.583" y="136" type="curve" smooth="yes"/>
      <point x="464.583" y="136"/>
      <point x="521.966" y="186"/>
      <point x="532.303" y="256" type="curve" smooth="yes"/>
      <point x="542.787" y="327"/>
      <point x="497.171" y="377"/>
      <point x="431.171" y="377" type="curve" smooth="yes"/>
      <point x="364.171" y="377"/>
      <point x="303.787" y="327"/>
    </contour>
  </outline>
</glyph>
<glyph name="Ccircumflex" format="1">
  <advance width="826"/>
  <unicode hex="0108"/>
  <outline>
    <contour>
      <point x="742.691" y="25" type="line"/>
      <point x="742.691" y="25"/>
      <point x="677.785" y="-15"/>
      <point x="498.785" y="-15" type="curve" smooth="yes"/>
      <point x="265.785" y="-15"/>
      <point x="79.8418" y="175"/>
      <point x="114.691" y="411" type="curve" smooth="yes"/>
      <point x="149.688" y="648"/>
      <point x="391.04" y="840"/>
      <point x="625.04" y="840" type="curve" smooth="yes"/>
      <point x="804.04" y="840"/>
      <point x="857.134" y="800"/>
      <point x="857.134" y="800" type="curve"/>
      <point x="789.815" y="615" type="line"/>
      <point x="789.815" y="615"/>
      <point x="722.722" y="655"/>
      <point x="626.722" y="655" type="curve" smooth="yes"/>
      <point x="437.722" y="655"/>
      <point x="335.229" y="523"/>
      <point x="318.986" y="413" type="curve" smooth="yes"/>
      <point x="302.596" y="302"/>
      <point x="366.104" y="170"/>
      <point x="555.104" y="170" type="curve" smooth="yes"/>
      <point x="651.104" y="170"/>
      <point x="730.01" y="210"/>
      <point x="730.01" y="210" type="curve"/>
    </contour>
    <contour>
      <point x="375.123" y="976" type="line"/>
      <point x="620.045" y="1138" type="line"/>
      <point x="817.123" y="976" type="line"/>
      <point x="735.686" y="885" type="line"/>
      <point x="599.225" y="997" type="line"/>
      <point x="429.686" y="885" type="line"/>
    </contour>
  </outline>
</glyph>
<glyph name="ccircumflex" format="1">
  <advance width="571"/>
  <unicode hex="0109"/>
  <outline>
    <contour>
      <point x="514.578" y="31" type="line"/>
      <point x="514.578" y="31"/>
      <point x="449.785" y="-15"/>
      <point x="335.785" y="-15" type="curve" smooth="yes"/>
      <point x="187.785" y="-15"/>
      <point x="69.5049" y="105"/>
      <point x="91.6553" y="255" type="curve" smooth="yes"/>
      <point x="113.953" y="406"/>
      <point x="266.968" y="528"/>
      <point x="415.968" y="528" type="curve" smooth="yes"/>
      <point x="529.968" y="528"/>
      <point x="580.88" y="480"/>
      <point x="580.88" y="480" type="curve"/>
      <point x="503.013" y="359" type="line"/>
      <point x="503.013" y="359"/>
      <point x="473.557" y="383"/>
      <point x="420.557" y="383" type="curve" smooth="yes"/>
      <point x="353.557" y="383"/>
      <point x="290.287" y="327"/>
      <point x="279.95" y="257" type="curve" smooth="yes"/>
      <point x="269.466" y="186"/>
      <point x="316.196" y="130"/>
      <point x="383.196" y="130" type="curve" smooth="yes"/>
      <point x="436.196" y="130"/>
      <point x="472.741" y="154"/>
      <point x="472.741" y="154" type="curve"/>
    </contour>
    <contour>
      <point x="172.165" y="658" type="line"/>
      <point x="417.087" y="820" type="line"/>
      <point x="614.165" y="658" type="line"/>
      <point x="532.728" y="567" type="line"/>
      <point x="396.266" y="679" type="line"/>
      <point x="226.728" y="567" type="line"/>
    </contour>
  </outline>
</glyph>
<glyph name="Cdotaccent" format="1">
  <advance width="826"/>
  <unicode hex="010A"/>
  <outline>
    <contour>
      <point x="742.691" y="25" type="line"/>
      <point x="742.691" y="25"/>
      <point x="677.785" y="-15"/>
      <point x="498.785" y="-15" type="curve" smooth="yes"/>
      <point x="265.785" y="-15"/>
      <point x="79.8418" y="175"/>
      <point x="114.691" y="411" type="curve" smooth="yes"/>
      <point x="149.688" y="648"/>
      <point x="391.04" y="840"/>
      <point x="625.04" y="840" type="curve" smooth="yes"/>
      <point x="804.04" y="840"/>
      <point x="857.134" y="800"/>
      <point x="857.134" y="800" type="curve"/>
      <point x="789.815" y="615" type="line"/>
      <point x="789.815" y="615"/>
      <point x="722.722" y="655"/>
      <point x="626.722" y="655" type="curve" smooth="yes"/>
      <point x="437.722" y="655"/>
      <point x="335.229" y="523"/>
      <point x="318.986" y="413" type="curve" smooth="yes"/>
      <point x="302.596" y="302"/>
      <point x="366.104" y="170"/>
      <point x="555.104" y="170" type="curve" smooth="yes"/>
      <point x="651.104" y="170"/>
      <point x="730.01" y="210"/>
      <point x="730.01" y="210" type="curve"/>
    </contour>
    <contour>
      <point x="611.877" y="1103" type="curve" smooth="yes"/>
      <point x="662.877" y="1103"/>
      <point x="697.822" y="1062"/>
      <point x="690.291" y="1011" type="curve" smooth="yes"/>
      <point x="682.761" y="960"/>
      <point x="635.706" y="919"/>
      <point x="584.706" y="919" type="curve" smooth="yes"/>
      <point x="533.706" y="919"/>
      <point x="498.761" y="960"/>
      <point x="506.291" y="1011" type="curve" smooth="yes"/>
      <point x="513.822" y="1062"/>
      <point x="560.877" y="1103"/>
    </contour>
  </outline>
</glyph>
<glyph name="Ccaron" format="1">
  <advance width="826"/>
  <unicode hex="010C"/>
  <outline>
    <contour>
      <point x="742.691" y="25" type="line"/>
      <point x="742.691" y="25"/>
      <point x="677.785" y="-15"/>
      <point x="498.785" y="-15" type="curve" smooth="yes"/>
      <point x="265.785" y="-15"/>
      <point x="79.8418" y="175"/>
      <point x="114.691" y="411" type="curve" smooth="yes"/>
      <point x="149.688" y="648"/>
      <point x="391.04" y="840"/>
      <point x="625.04" y="840" type="curve" smooth="yes"/>
      <point x="804.04" y="840"/>
      <point x="857.134" y="800"/>
      <point x="857.134" y="800" type="curve"/>
      <point x="789.815" y="615" type="line"/>
      <point x="789.815" y="615"/>
      <point x="722.722" y="655"/>
      <point x="626.722" y="655" type="curve" smooth="yes"/>
      <point x="437.722" y="655"/>
      <point x="335.229" y="523"/>
      <point x="318.986" y="413" type="curve" smooth="yes"/>
      <point x="302.596" y="302"/>
      <point x="366.104" y="170"/>
      <point x="555.104" y="170" type="curve" smooth="yes"/>
      <point x="651.104" y="170"/>
      <point x="730.01" y="210"/>
      <point x="730.01" y="210" type="curve"/>
    </contour>
    <contour>
      <point x="489.112" y="1152" type="line"/>
      <point x="625.574" y="1040" type="line"/>
      <point x="795.112" y="1152" type="line"/>
      <point x="849.675" y="1061" type="line"/>
      <point x="604.753" y="899" type="line"/>
      <point x="407.675" y="1061" type="line"/>
    </contour>
  </outline>
</glyph>
<glyph name="Dcaron" format="1">
  <advance width="791"/>
  <unicode hex="010E"/>
  <outline>
    <contour>
      <point x="582.839" y="412" type="curve" smooth="yes"/>
      <point x="604.103" y="556"/>
      <point x="556.018" y="657"/>
      <point x="353.018" y="657" type="curve"/>
      <point x="280.808" y="168" type="line"/>
      <point x="483.808" y="168"/>
      <point x="561.575" y="268"/>
    </contour>
    <contour>
      <point x="189.825" y="825" type="line"/>
      <point x="428.825" y="825" type="line" smooth="yes"/>
      <point x="654.825" y="825"/>
      <point x="819.427" y="653"/>
      <point x="783.986" y="413" type="curve" smooth="yes"/>
      <point x="748.398" y="172"/>
      <point x="534" y="0"/>
      <point x="307" y="0" type="curve" smooth="yes"/>
      <point x="68" y="0" type="line"/>
    </contour>
    <contour>
      <point x="385.112" y="1152" type="line"/>
      <point x="521.574" y="1040" type="line"/>
      <point x="691.112" y="1152" type="line"/>
      <point x="745.675" y="1061" type="line"/>
      <point x="500.753" y="899" type="line"/>
      <point x="303.675" y="1061" type="line"/>
    </contour>
  </outline>
</glyph>
<glyph name="dcaron" format="1">
  <advance width="931"/>
  <unicode hex="010F"/>
  <outline>
    <contour>
      <point x="279.803" y="256" type="curve" smooth="yes"/>
      <point x="269.466" y="186"/>
      <point x="310.083" y="136"/>
      <point x="382.083" y="136" type="curve" smooth="yes"/>
      <point x="442.499" y="136"/>
      <point x="494.008" y="174.333"/>
      <point x="512.829" y="230.86" type="curve"/>
      <point x="520.175" y="281.562" type="line"/>
      <point x="517.575" y="338.709"/>
      <point x="475.428" y="377"/>
      <point x="417.671" y="377" type="curve" smooth="yes"/>
      <point x="350.671" y="377"/>
      <point x="290.287" y="327"/>
    </contour>
    <contour>
      <point x="654" y="0" type="line"/>
      <point x="479" y="0" type="line"/>
      <point x="487.564" y="58" type="line"/>
      <point x="443.362" y="16"/>
      <point x="376.785" y="-15"/>
      <point x="306.785" y="-15" type="curve" smooth="yes"/>
      <point x="156.785" y="-15"/>
      <point x="69.6523" y="106"/>
      <point x="91.8027" y="256" type="curve" smooth="yes"/>
      <point x="113.953" y="406"/>
      <point x="236.968" y="528"/>
      <point x="386.968" y="528" type="curve" smooth="yes"/>
      <point x="417.171" y="528"/>
      <point x="487.307" y="530.491"/>
      <point x="555.595" y="525.995" type="curve"/>
      <point x="603.994" y="860" type="line"/>
      <point x="780.994" y="860" type="line"/>
    </contour>
    <contour>
      <point x="908.678" y="824" type="curve" smooth="yes"/>
      <point x="958.678" y="824"/>
      <point x="992.771" y="784"/>
      <point x="985.388" y="734" type="curve" smooth="yes"/>
      <point x="971.654" y="641"/>
      <point x="893.432" y="565"/>
      <point x="822.753" y="513" type="curve"/>
      <point x="787.331" y="544" type="line"/>
      <point x="787.331" y="544"/>
      <point x="840.976" y="589"/>
      <point x="862.574" y="654" type="curve"/>
      <point x="825.903" y="663"/>
      <point x="801.481" y="694"/>
      <point x="807.388" y="734" type="curve" smooth="yes"/>
      <point x="814.771" y="784"/>
      <point x="860.678" y="824"/>
    </contour>
  </outline>
</glyph>
